<svg xmlns="http://www.w3.org/2000/svg" xmlns:xlink="http://www.w3.org/1999/xlink" xmlns:lucid="lucid" width="1411.91" height="1510"><g transform="translate(-2799.3389111031556 -730)" lucid:page-tab-id="0_0"><path d="M3440 756a6 6 0 0 1 6-6h148a6 6 0 0 1 6 6v48a6 6 0 0 1-6 6h-148a6 6 0 0 1-6-6z" stroke="#5e5e5e" stroke-width="3" fill="#fff"/><path d="M3456 750v60m128-60v60" stroke="#5e5e5e" stroke-width="3" fill="none"/><use xlink:href="#a" transform="matrix(1,0,0,1,3465,755) translate(-3.5493827160493936 29.444444444444443)"/><path d="M3355 868.33a6 6 0 0 1 6-6h318a6 6 0 0 1 6 6v92a6 6 0 0 1-6 6h-318a6 6 0 0 1-6-6z" stroke="#5e5e5e" stroke-width="3" fill="#fff"/><use xlink:href="#b" transform="matrix(1,0,0,1,3367,874.3333333333333) translate(2.629629629629619 20.27777777777778)"/><use xlink:href="#c" transform="matrix(1,0,0,1,3367,874.3333333333333) translate(99.9753086419753 20.27777777777778)"/><use xlink:href="#d" transform="matrix(1,0,0,1,3367,874.3333333333333) translate(123.37037037037037 20.27777777777778)"/><use xlink:href="#e" transform="matrix(1,0,0,1,3367,874.3333333333333) translate(173.92592592592592 20.27777777777778)"/><use xlink:href="#f" transform="matrix(1,0,0,1,3367,874.3333333333333) translate(191.20987654320987 20.27777777777778)"/><use xlink:href="#g" transform="matrix(1,0,0,1,3367,874.3333333333333) translate(225.71604938271605 20.27777777777778)"/><use xlink:href="#h" transform="matrix(1,0,0,1,3367,874.3333333333333) translate(6.3024691358024825 46.94444444444444)"/><use xlink:href="#f" transform="matrix(1,0,0,1,3367,874.3333333333333) translate(48.27777777777779 46.94444444444444)"/><use xlink:href="#i" transform="matrix(1,0,0,1,3367,874.3333333333333) translate(82.78395061728396 46.94444444444444)"/><use xlink:href="#j" transform="matrix(1,0,0,1,3367,874.3333333333333) translate(160.43827160493828 46.94444444444444)"/><use xlink:href="#c" transform="matrix(1,0,0,1,3367,874.3333333333333) translate(191.30246913580248 46.94444444444444)"/><use xlink:href="#k" transform="matrix(1,0,0,1,3367,874.3333333333333) translate(214.69753086419755 46.94444444444444)"/><use xlink:href="#l" transform="matrix(1,0,0,1,3367,874.3333333333333) translate(288.58641975308643 46.94444444444444)"/><use xlink:href="#m" transform="matrix(1,0,0,1,3367,874.3333333333333) translate(47.62962962962963 73.61111111111111)"/><use xlink:href="#n" transform="matrix(1,0,0,1,3367,874.3333333333333) translate(123.98765432098766 73.61111111111111)"/><use xlink:href="#o" transform="matrix(1,0,0,1,3367,874.3333333333333) translate(146.14814814814815 73.61111111111111)"/><use xlink:href="#p" transform="matrix(1,0,0,1,3367,874.3333333333333) translate(188.12345679012344 73.61111111111111)"/><path d="M3520 812.46v29.9" stroke="#5e5e5e" stroke-width="2" fill="none"/><path d="M3521 812.5h-2v-1.04h2z" stroke="#5e5e5e" stroke-width=".05" fill="#5e5e5e"/><path d="M3520 857.63l-4.64-14.26h9.28z" stroke="#5e5e5e" stroke-width="2" fill="#5e5e5e"/><path d="M3515.2 1022.27a8 8 0 0 1 9.6 0l70.4 52.8a4.5 4.5 0 0 1 0 7.2l-70.4 52.8a8 8 0 0 1-9.6 0l-70.4-52.8a4.5 4.5 0 0 1 0-7.2z" stroke="#5e5e5e" stroke-width="3" fill="#fff"/><use xlink:href="#q" transform="matrix(1,0,0,1,3445,1023.6666666666666) translate(48.49265432098766 45.27777777777778)"/><use xlink:href="#r" transform="matrix(1,0,0,1,3445,1023.6666666666666) translate(33.708703703703705 71.94444444444446)"/><path d="M3520 968.8v31.86" stroke="#5e5e5e" stroke-width="2" fill="none"/><path d="M3521 968.82h-2v-1.02h2z" stroke="#5e5e5e" stroke-width=".05" fill="#5e5e5e"/><path d="M3520 1015.93l-4.64-14.27h9.28z" stroke="#5e5e5e" stroke-width="2" fill="#5e5e5e"/><path d="M3660 1059.33a6 6 0 0 1 6-6h208a6 6 0 0 1 6 6V1098a6 6 0 0 1-6 6h-208a6 6 0 0 1-6-6z" stroke="#5e5e5e" stroke-width="3" fill="#fff"/><use xlink:href="#s" transform="matrix(1,0,0,1,3672,1065.3333333333333) translate(13.555555555555543 19.46527777777778)"/><use xlink:href="#t" transform="matrix(1,0,0,1,3672,1065.3333333333333) translate(114.72839506172839 19.46527777777778)"/><path d="M3620.13 1079.67h-20.62v-2h20.63zm19.9 0h-3.1v-2h3.1z" stroke="#5e5e5e" stroke-width=".05" fill="#5e5e5e"/><path d="M3599.53 1079.67h-1.12l.1-1-.1-1h1.13z" fill="#5e5e5e"/><path d="M3599.56 1079.7h-1.17l.08-1.03-.1-1.03h1.18zm-1.12-2l.1.97-.1.97h1.07v-1.95z" stroke="#5e5e5e" stroke-width=".05" fill="#5e5e5e"/><path d="M3655.3 1078.67l-14.27 4.63v-9.27z" fill="#5e5e5e"/><path d="M3658.54 1078.67l-18.5 6v-12.02zm-16.5 3.26l10.02-3.26-10.03-3.26z" stroke="#5e5e5e" stroke-width=".05" fill="#5e5e5e"/><use xlink:href="#u" transform="matrix(1,0,0,1,3620.1262029952936,1067.9999999999998) translate(0.005000000000000782 14.222222222222223)"/><path d="M3410 1184.67a6 6 0 0 1 6-6h208a6 6 0 0 1 6 6v38.66a6 6 0 0 1-6 6h-208a6 6 0 0 1-6-6z" stroke="#5e5e5e" stroke-width="3" fill="#fff"/><use xlink:href="#v" transform="matrix(1,0,0,1,3422,1190.6666666666665) translate(25.28395061728395 19.46527777777778)"/><use xlink:href="#t" transform="matrix(1,0,0,1,3422,1190.6666666666665) translate(103 19.46527777777778)"/><path d="M3521 1147.02h-2v-7.85h2z" stroke="#5e5e5e" stroke-width=".05" fill="#5e5e5e"/><path d="M3520 1138.17l1-.06v1.1h-2v-1.1z" fill="#5e5e5e"/><path d="M3520 1138.14l1.03-.06v1.14h-2.06v-1.14zm-.97 1.03h1.94v-1.04l-.97.06-.97-.07z" stroke="#5e5e5e" stroke-width=".05" fill="#5e5e5e"/><path d="M3520 1173.97l-1.82-5.62h3.64z" fill="#5e5e5e"/><path d="M3520 1177.2l-2.88-8.85h2.1l.78 2.38.77-2.38h2.1z" stroke="#5e5e5e" stroke-width=".05" fill="#5e5e5e"/><use xlink:href="#w" transform="matrix(1,0,0,1,3508.1975308641977,1147.019951108293) translate(0.005000000000000782 14.222222222222223)"/><path d="M3390 1326a6 6 0 0 1 6-6h248a6 6 0 0 1 6 6v92a6 6 0 0 1-6 6h-248a6 6 0 0 1-6-6z" stroke="#5e5e5e" stroke-width="3" fill="#fff"/><use xlink:href="#x" transform="matrix(1,0,0,1,3402,1332) translate(27.320987654320987 20.30902777777778)"/><use xlink:href="#y" transform="matrix(1,0,0,1,3402,1332) translate(122.32098765432097 20.30902777777778)"/><use xlink:href="#z" transform="matrix(1,0,0,1,3402,1332) translate(7.135802469135797 46.97569444444444)"/><use xlink:href="#A" transform="matrix(1,0,0,1,3402,1332) translate(79.79012345679011 46.97569444444444)"/><use xlink:href="#B" transform="matrix(1,0,0,1,3402,1332) translate(130.34567901234567 46.97569444444444)"/><use xlink:href="#C" transform="matrix(1,0,0,1,3402,1332) translate(69.85185185185185 73.64236111111111)"/><path d="M3520 1231.8v68.23" stroke="#5e5e5e" stroke-width="2" fill="none"/><path d="M3521 1231.82h-2v-1.02h2z" stroke="#5e5e5e" stroke-width=".05" fill="#5e5e5e"/><path d="M3520 1315.3l-4.64-14.27h9.28z" stroke="#5e5e5e" stroke-width="2" fill="#5e5e5e"/><path d="M3916.56 1077.75l1.07.26 1 .43.95.57.84.7.7.85.58.94.42 1 .27 1.1.06 170.44-.08 1.06-.26 1.06-.42 1.02-.57.94-.7.83-.85.72-.94.57-1 .42-1.12.27-390.48.07-.82.06-.76.2-.73.3-.67.4-.6.5-.5.6-.4.67-.3.73-.2.72-.06 34.86h-2l.07-35.1.27-1.1.42-1.02.57-.94.72-.83.83-.72.94-.57 1.02-.42 1.06-.26 1.06-.08 390.32-.07.73-.18.73-.3.67-.4.6-.52.5-.6.42-.66.3-.73.18-.76.06-.82-.07-170.1-.18-.74-.3-.72-.4-.67-.52-.6-.6-.5-.67-.42-.72-.3-.75-.17-.83-.06h-32.96v-2h33.04z" stroke="#5e5e5e" stroke-width=".05" fill="#5e5e5e"/><path d="M3882.5 1079.67h-1.03v-2h1.02z" fill="#5e5e5e"/><path d="M3882.5 1079.7h-1.06v-2.06h1.07zm-1-2v1.94h.96v-1.95z" stroke="#5e5e5e" stroke-width=".05" fill="#5e5e5e"/><path d="M3520 1315.3l-4.64-14.27h9.28z" fill="#5e5e5e"/><path d="M3520 1318.54l-6-18.5h12zm-3.26-16.5l3.26 10.02 3.26-10.03z" stroke="#5e5e5e" stroke-width=".05" fill="#5e5e5e"/><path d="M2963.86 1603.48a8.44 8.44 0 0 1 9.78 0l110.22 78.38a4.27 4.27 0 0 1 0 6.95l-110.22 78.4a8.44 8.44 0 0 1-9.78 0l-110.22-78.4a4.27 4.27 0 0 1 0-6.94z" stroke="#5e5e5e" stroke-width="3" fill="#fff"/><use xlink:href="#D" transform="matrix(1,0,0,1,2853.75,1605) translate(52.13462962962962 58.02777777777778)"/><use xlink:href="#y" transform="matrix(1,0,0,1,2853.75,1605) translate(91.51734567901234 58.02777777777778)"/><use xlink:href="#E" transform="matrix(1,0,0,1,2853.75,1605) translate(50.37537037037037 84.69444444444446)"/><use xlink:href="#F" transform="matrix(1,0,0,1,2853.75,1605) translate(103.33833333333334 84.69444444444446)"/><use xlink:href="#G" transform="matrix(1,0,0,1,2853.75,1605) translate(126.7333950617284 84.69444444444446)"/><use xlink:href="#H" transform="matrix(1,0,0,1,2853.75,1605) translate(53.98648148148147 111.36111111111111)"/><path d="M3520 1426.46V1464a6 6 0 0 1-6 6h-539.25a6 6 0 0 0-6 6v105.9" stroke="#5e5e5e" stroke-width="2" fill="none"/><path d="M3521 1426.5h-2v-1.04h2z" stroke="#5e5e5e" stroke-width=".05" fill="#5e5e5e"/><path d="M2968.75 1597.18l-4.64-14.27h9.3z" stroke="#5e5e5e" stroke-width="2" fill="#5e5e5e"/><path d="M2848.75 1830a6 6 0 0 1 6-6h228a6 6 0 0 1 6 6v65.33a6 6 0 0 1-6 6h-228a6 6 0 0 1-6-6z" stroke="#5e5e5e" stroke-width="3" fill="#fff"/><use xlink:href="#I" transform="matrix(1,0,0,1,2860.75,1836) translate(11.796296296296305 21.15277777777778)"/><use xlink:href="#J" transform="matrix(1,0,0,1,2860.75,1836) translate(114.14197530864197 21.15277777777778)"/><use xlink:href="#j" transform="matrix(1,0,0,1,2860.75,1836) translate(44.419753086419746 47.81944444444444)"/><use xlink:href="#C" transform="matrix(1,0,0,1,2860.75,1836) translate(75.28395061728395 47.81944444444444)"/><path d="M2848.75 1954a6 6 0 0 1 6-6h228a6 6 0 0 1 6 6v38.67a6 6 0 0 1-6 6h-228a6 6 0 0 1-6-6z" stroke="#5e5e5e" stroke-width="3" fill="#fff"/><use xlink:href="#K" transform="matrix(1,0,0,1,2860.75,1960) translate(18.679012345679013 19.46527777777778)"/><use xlink:href="#L" transform="matrix(1,0,0,1,2860.75,1960) translate(110.96296296296296 19.46527777777778)"/><path d="M2968.75 1903.8v24.23" stroke="#5e5e5e" stroke-width="2" fill="none"/><path d="M2969.75 1903.82h-2v-1.02h2z" stroke="#5e5e5e" stroke-width=".05" fill="#5e5e5e"/><path d="M2968.75 1943.3l-4.64-14.27h9.3z" stroke="#5e5e5e" stroke-width="2" fill="#5e5e5e"/><path d="M3331.36 1603.48a8.44 8.44 0 0 1 9.78 0l110.22 78.38a4.27 4.27 0 0 1 0 6.95l-110.22 78.4a8.44 8.44 0 0 1-9.78 0l-110.22-78.4a4.27 4.27 0 0 1 0-6.94z" stroke="#5e5e5e" stroke-width="3" fill="#fff"/><use xlink:href="#M" transform="matrix(1,0,0,1,3221.25,1605) translate(94.6654938271605 58.02777777777778)"/><use xlink:href="#N" transform="matrix(1,0,0,1,3221.25,1605) translate(56.39388888888889 84.69444444444446)"/><use xlink:href="#O" transform="matrix(1,0,0,1,3221.25,1605) translate(148.92475308641974 84.69444444444446)"/><use xlink:href="#C" transform="matrix(1,0,0,1,3221.25,1605) translate(66.85685185185184 111.36111111111111)"/><path d="M3216.25 1830a6 6 0 0 1 6-6h228a6 6 0 0 1 6 6v65.33a6 6 0 0 1-6 6h-228a6 6 0 0 1-6-6z" stroke="#5e5e5e" stroke-width="3" fill="#fff"/><use xlink:href="#I" transform="matrix(1,0,0,1,3228.25,1836) translate(18 31.27777777777778)"/><use xlink:href="#P" transform="matrix(1,0,0,1,3228.25,1836) translate(120.34567901234567 31.27777777777778)"/><path d="M3216.25 1954a6 6 0 0 1 6-6h228a6 6 0 0 1 6 6v65.33a6 6 0 0 1-6 6h-228a6 6 0 0 1-6-6z" stroke="#5e5e5e" stroke-width="3" fill="#fff"/><use xlink:href="#K" transform="matrix(1,0,0,1,3228.25,1959.9999999999998) translate(6.950617283950606 21.15277777777778)"/><use xlink:href="#Q" transform="matrix(1,0,0,1,3228.25,1959.9999999999998) translate(99.23456790123456 21.15277777777778)"/><use xlink:href="#j" transform="matrix(1,0,0,1,3228.25,1959.9999999999998) translate(44.419753086419746 47.81944444444444)"/><use xlink:href="#C" transform="matrix(1,0,0,1,3228.25,1959.9999999999998) translate(75.28395061728395 47.81944444444444)"/><path d="M3336.25 1903.8v24.23" stroke="#5e5e5e" stroke-width="2" fill="none"/><path d="M3337.25 1903.82h-2v-1.02h2z" stroke="#5e5e5e" stroke-width=".05" fill="#5e5e5e"/><path d="M3336.25 1943.3l-4.64-14.27h9.3z" stroke="#5e5e5e" stroke-width="2" fill="#5e5e5e"/><path d="M3698.86 1603.48a8.44 8.44 0 0 1 9.78 0l110.22 78.38a4.27 4.27 0 0 1 0 6.95l-110.22 78.4a8.44 8.44 0 0 1-9.78 0l-110.22-78.4a4.27 4.27 0 0 1 0-6.94z" stroke="#5e5e5e" stroke-width="3" fill="#fff"/><use xlink:href="#M" transform="matrix(1,0,0,1,3588.75,1605) translate(94.6654938271605 58.02777777777778)"/><use xlink:href="#N" transform="matrix(1,0,0,1,3588.75,1605) translate(56.39388888888889 84.69444444444446)"/><use xlink:href="#O" transform="matrix(1,0,0,1,3588.75,1605) translate(148.92475308641974 84.69444444444446)"/><use xlink:href="#R" transform="matrix(1,0,0,1,3588.75,1605) translate(70.005 111.36111111111111)"/><path d="M3583.75 1830a6 6 0 0 1 6-6h228a6 6 0 0 1 6 6v65.33a6 6 0 0 1-6 6h-228a6 6 0 0 1-6-6z" stroke="#5e5e5e" stroke-width="3" fill="#fff"/><use xlink:href="#I" transform="matrix(1,0,0,1,3595.75,1835.9999999999993) translate(29.080246913580254 31.27777777777778)"/><use xlink:href="#S" transform="matrix(1,0,0,1,3595.75,1835.9999999999993) translate(131.42592592592592 31.27777777777778)"/><path d="M3583.75 1954a6 6 0 0 1 6-6h228a6 6 0 0 1 6 6v65.33a6 6 0 0 1-6 6h-228a6 6 0 0 1-6-6z" stroke="#5e5e5e" stroke-width="3" fill="#fff"/><use xlink:href="#K" transform="matrix(1,0,0,1,3595.75,1959.9999999999993) translate(6.950617283950606 21.15277777777778)"/><use xlink:href="#Q" transform="matrix(1,0,0,1,3595.75,1959.9999999999993) translate(99.23456790123456 21.15277777777778)"/><use xlink:href="#j" transform="matrix(1,0,0,1,3595.75,1959.9999999999993) translate(53.74074074074075 47.81944444444444)"/><use xlink:href="#P" transform="matrix(1,0,0,1,3595.75,1959.9999999999993) translate(84.60493827160494 47.81944444444444)"/><path d="M3703.75 1903.8v24.23" stroke="#5e5e5e" stroke-width="2" fill="none"/><path d="M3704.75 1903.82h-2v-1.02h2z" stroke="#5e5e5e" stroke-width=".05" fill="#5e5e5e"/><path d="M3703.75 1943.3l-4.64-14.27h9.3z" stroke="#5e5e5e" stroke-width="2" fill="#5e5e5e"/><path d="M4066.36 1603.48a8.44 8.44 0 0 1 9.78 0l110.22 78.38a4.27 4.27 0 0 1 0 6.95l-110.22 78.4a8.44 8.44 0 0 1-9.78 0l-110.22-78.4a4.27 4.27 0 0 1 0-6.94z" stroke="#5e5e5e" stroke-width="3" fill="#fff"/><use xlink:href="#T" transform="matrix(1,0,0,1,3956.25,1605) translate(32.96796296296296 73.12152777777777)"/><use xlink:href="#N" transform="matrix(1,0,0,1,3956.25,1605) translate(79.8198148148148 73.12152777777777)"/><use xlink:href="#U" transform="matrix(1,0,0,1,3956.25,1605) translate(172.35067901234567 73.12152777777777)"/><use xlink:href="#V" transform="matrix(1,0,0,1,3956.25,1605) translate(81.08524691358025 99.78819444444446)"/><path d="M3951.25 1830a6 6 0 0 1 6-6h228a6 6 0 0 1 6 6v65.33a6 6 0 0 1-6 6h-228a6 6 0 0 1-6-6z" stroke="#5e5e5e" stroke-width="3" fill="#fff"/><use xlink:href="#K" transform="matrix(1,0,0,1,3963.25,1835.999999999999) translate(17.444444444444443 21.15277777777778)"/><use xlink:href="#W" transform="matrix(1,0,0,1,3963.25,1835.999999999999) translate(109.72839506172839 21.15277777777778)"/><use xlink:href="#X" transform="matrix(1,0,0,1,3963.25,1835.999999999999) translate(170.22222222222223 21.15277777777778)"/><use xlink:href="#Y" transform="matrix(1,0,0,1,3963.25,1835.999999999999) translate(53.09259259259258 47.81944444444444)"/><path d="M3568 2140c17.67 0 32 17.9 32 40s-14.33 40-32 40h-96c-17.67 0-32-17.9-32-40s14.33-40 32-40z" stroke="#5e5e5e" stroke-width="3" fill="#fff"/><use xlink:href="#Z" transform="matrix(1,0,0,1,3445,2145) translate(32.505 26.52777777777778)"/><use xlink:href="#j" transform="matrix(1,0,0,1,3445,2145) translate(69.41858024691359 26.52777777777778)"/><use xlink:href="#aa" transform="matrix(1,0,0,1,3445,2145) translate(100.28277777777778 26.52777777777778)"/><use xlink:href="#ab" transform="matrix(1,0,0,1,3445,2145) translate(17.103765432098754 53.19444444444445)"/><path d="M2969.75 1785.73h-2v-14.48h2z" stroke="#5e5e5e" stroke-width=".05" fill="#5e5e5e"/><path d="M2968.75 1770.25l1-.06v1.08h-2v-1.1z" fill="#5e5e5e"/><path d="M2968.75 1770.23l1.03-.06v1.13h-2.06v-1.13zm-.97 1.02h1.94v-1.03l-.97.06-.97-.06z" stroke="#5e5e5e" stroke-width=".05" fill="#5e5e5e"/><path d="M2968.75 1819.3l-3.98-12.24h7.96z" fill="#5e5e5e"/><path d="M2968.75 1822.54l-5.03-15.48h2.1l2.93 9 2.93-9h2.1z" stroke="#5e5e5e" stroke-width=".05" fill="#5e5e5e"/><use xlink:href="#u" transform="matrix(1,0,0,1,2960.354938271605,1785.7285913625212) translate(0.005000000000000782 14.222222222222223)"/><path d="M3337.25 1785.73h-2v-14.48h2z" stroke="#5e5e5e" stroke-width=".05" fill="#5e5e5e"/><path d="M3336.25 1770.25l1-.06v1.08h-2v-1.1z" fill="#5e5e5e"/><path d="M3336.25 1770.23l1.03-.06v1.13h-2.06v-1.13zm-.97 1.02h1.94v-1.03l-.97.06-.97-.06z" stroke="#5e5e5e" stroke-width=".05" fill="#5e5e5e"/><path d="M3336.25 1819.3l-3.98-12.24h7.96z" fill="#5e5e5e"/><path d="M3336.25 1822.54l-5.03-15.48h2.1l2.93 9 2.93-9h2.1z" stroke="#5e5e5e" stroke-width=".05" fill="#5e5e5e"/><g><use xlink:href="#u" transform="matrix(1,0,0,1,3327.854938271605,1785.7285913625212) translate(0.005000000000000782 14.222222222222223)"/></g><path d="M3704.75 1785.73h-2v-14.48h2z" stroke="#5e5e5e" stroke-width=".05" fill="#5e5e5e"/><path d="M3703.75 1770.25l1-.06v1.08h-2v-1.1z" fill="#5e5e5e"/><path d="M3703.75 1770.23l1.03-.06v1.13h-2.06v-1.13zm-.97 1.02h1.94v-1.03l-.97.06-.97-.06z" stroke="#5e5e5e" stroke-width=".05" fill="#5e5e5e"/><path d="M3703.75 1819.3l-3.98-12.24h7.96z" fill="#5e5e5e"/><path d="M3703.75 1822.54l-5.03-15.48h2.1l2.93 9 2.93-9h2.1z" stroke="#5e5e5e" stroke-width=".05" fill="#5e5e5e"/><g><use xlink:href="#u" transform="matrix(1,0,0,1,3695.354938271605,1785.7285913625208) translate(0.005000000000000782 14.222222222222223)"/></g><path d="M4072.25 1785.73h-2v-14.48h2z" stroke="#5e5e5e" stroke-width=".05" fill="#5e5e5e"/><path d="M4071.25 1770.25l1-.06v1.08h-2v-1.1z" fill="#5e5e5e"/><path d="M4071.25 1770.23l1.03-.06v1.13h-2.06v-1.13zm-.97 1.02h1.94v-1.03l-.97.06-.97-.06z" stroke="#5e5e5e" stroke-width=".05" fill="#5e5e5e"/><path d="M4071.25 1819.3l-3.98-12.24h7.96z" fill="#5e5e5e"/><path d="M4071.25 1822.54l-5.03-15.48h2.1l2.93 9 2.93-9h2.1z" stroke="#5e5e5e" stroke-width=".05" fill="#5e5e5e"/><g><use xlink:href="#u" transform="matrix(1,0,0,1,4062.854938271605,1785.7285913625208) translate(0.005000000000000782 14.222222222222223)"/></g><path d="M3331.35 1559.5l1.06.25 1.03.42.94.58.83.7.72.85.57.93.4 1.02.28 1.1.07 16.56-2 .02-.07-16.33-.18-.73-.3-.73-.4-.66-.52-.6-.6-.5-.66-.42-.73-.3-.77-.18-.82-.07-205.02.1-.72.16-.73.3-.67.4-.6.52-.5.6-.4.66-.3.73-.2.76-.06.82-.07 401.94-.27 1.1-.42 1-.57.95-.72.84-.83.7-.94.57-1.02.42-1.06.25-1.06.08h-22.83v-2h22.76l.82-.06.76-.18.73-.3.67-.42.6-.5.5-.6.4-.68.3-.72.2-.73.06-401.78.08-1.05.26-1.07.42-1.02.57-.93.72-.84.83-.7.94-.6 1.02-.4 1.1-.27 205.35-.1z" stroke="#5e5e5e" stroke-width=".05" fill="#5e5e5e"/><path d="M3091.24 1974.33h-1.02v-2h1.02z" fill="#5e5e5e"/><path d="M3091.26 1974.36h-1.07v-2.05h1.06zm-1.02-2v1.95h.97v-1.94z" stroke="#5e5e5e" stroke-width=".05" fill="#5e5e5e"/><path d="M3336.25 1597.18l-4.64-14.27h9.3z" fill="#5e5e5e"/><path d="M3336.25 1600.4l-6-18.5h12zm-3.26-16.5l3.25 10.04 3.26-10.03zM3698.85 1559.5l1.06.25 1.03.42.94.58.83.7.72.85.57.93.4 1.02.28 1.1.07 16.56-2 .02-.07-16.33-.18-.73-.3-.73-.4-.66-.52-.6-.6-.5-.66-.42-.73-.3-.77-.18-.82-.07-212.52.1-.72.16-.73.3-.67.4-.6.52-.5.6-.4.66-.3.73-.2.76-.06.82-.07 415.27-.27 1.1-.42 1.03-.57.93-.72.84-.83.7-.94.6-1.02.4-1.06.26-1.06.1h-15.33v-2h15.26l.82-.08.76-.18.73-.3.67-.4.6-.52.5-.6.4-.66.3-.73.2-.7.06-415.13.08-1.05.26-1.07.42-1.02.57-.93.72-.84.83-.7.94-.6 1.02-.4 1.1-.27 212.85-.1z" stroke="#5e5e5e" stroke-width=".05" fill="#5e5e5e"/><path d="M3458.74 1987.67h-1.03v-2h1.04z" fill="#5e5e5e"/><path d="M3458.76 1987.7h-1.07v-2.06h1.06zm-1.02-2v1.94h.97v-1.95z" stroke="#5e5e5e" stroke-width=".05" fill="#5e5e5e"/><path d="M3703.75 1597.18l-4.64-14.27h9.3z" fill="#5e5e5e"/><path d="M3703.75 1600.4l-6-18.5h12zm-3.26-16.5l3.25 10.04 3.26-10.03zM4066.35 1559.5l1.06.25 1.03.42.94.58.83.7.72.85.57.93.4 1.02.28 1.1.07 16.56-2 .02-.07-16.33-.18-.73-.3-.73-.4-.66-.52-.6-.6-.5-.66-.42-.73-.3-.77-.18-.82-.07-220.02.1-.72.16-.73.3-.67.4-.6.52-.5.6-.4.66-.3.73-.2.76-.06.82-.07 415.27-.27 1.1-.42 1.03-.57.93-.72.84-.83.7-.94.6-1.02.4-1.06.26-1.06.1h-7.83v-2h7.76l.82-.08.76-.18.73-.3.67-.4.6-.52.5-.6.4-.66.3-.73.2-.7.06-415.13.08-1.05.26-1.07.42-1.02.57-.93.72-.84.83-.7.94-.6 1.02-.4 1.1-.27 220.35-.1z" stroke="#5e5e5e" stroke-width=".05" fill="#5e5e5e"/><path d="M3826.24 1987.67h-1.03v-2h1.04z" fill="#5e5e5e"/><path d="M3826.26 1987.7h-1.07v-2.06h1.06zm-1.02-2v1.94h.97v-1.95z" stroke="#5e5e5e" stroke-width=".05" fill="#5e5e5e"/><path d="M4071.25 1597.18l-4.64-14.27h9.3z" fill="#5e5e5e"/><path d="M4071.25 1600.4l-6-18.5h12zm-3.26-16.5l3.25 10.04 3.26-10.03zM3420 2179v2l-551.1-.07v-2zm-570.66-492.67h-32.96l-.82.07-.77.18-.73.3-.67.4-.6.52-.5.6-.4.66-.3.73-.2.7-.06 483.46.06.82.2.76.3.73.4.67.5.6.6.5.67.4.72.3.72.2h29.76v2h-30l-1.1-.28-1.02-.42-.94-.57-.83-.72-.73-.83-.57-.94-.42-1.02-.26-1.06-.08-1.06.07-483.76.28-1.1.42-1.03.57-.93.72-.84.82-.7.94-.6 1-.4 1.08-.26 1.06-.1h33.04z" stroke="#5e5e5e" stroke-width=".05" fill="#5e5e5e"/><path d="M2850.34 1685.33l.1 1h-1.13v-2h1.13z" fill="#5e5e5e"/><path d="M2850.36 1685.33l.1 1.03h-1.17v-2.05h1.16zm-1.02-.97v1.95h1.07l-.1-.97.1-.97z" stroke="#5e5e5e" stroke-width=".05" fill="#5e5e5e"/><path d="M3435.26 2180l-14.26 4.64v-9.28z" fill="#5e5e5e"/><path d="M3438.5 2180l-18.5 6v-12zm-16.5 3.26l10.03-3.26-10.03-3.26z" stroke="#5e5e5e" stroke-width=".05" fill="#5e5e5e"/><g><use xlink:href="#w" transform="matrix(1,0,0,1,2845.283186451277,2169.3333333333335) translate(0.005000000000000782 14.222222222222223)"/></g><path d="M3178.84 2173.96l.06.82.2.76.3.73.4.67.5.6.6.5.67.4.72.3.72.2 236.98.06v2l-237.22-.07-1.1-.27-1.02-.42-.94-.57-.83-.72-.73-.83-.57-.94-.42-1.02-.26-1.06-.08-1.06.02-120.38h2zm38-487.63h-32.96l-.82.07-.77.18-.73.3-.67.4-.6.52-.5.6-.4.66-.3.73-.2.7-.04 341.83h-2l.05-342.05.28-1.1.42-1.03.57-.93.72-.84.82-.7.94-.6 1-.4 1.08-.26 1.06-.1h33.04z" stroke="#5e5e5e" stroke-width=".05" fill="#5e5e5e"/><path d="M3217.84 1685.33l.1 1h-1.13v-2h1.13z" fill="#5e5e5e"/><path d="M3217.86 1685.33l.1 1.03h-1.17v-2.05h1.16zm-1.02-.97v1.95h1.07l-.1-.97.1-.97z" stroke="#5e5e5e" stroke-width=".05" fill="#5e5e5e"/><path d="M3435.26 2180l-14.26 4.64v-9.28z" fill="#5e5e5e"/><path d="M3438.5 2180l-18.5 6v-12zm-16.5 3.26l10.03-3.26-10.03-3.26z" stroke="#5e5e5e" stroke-width=".05" fill="#5e5e5e"/><g><use xlink:href="#w" transform="matrix(1,0,0,1,3166.0364419673533,2032.3300778172568) translate(0.005000000000000782 14.222222222222223)"/></g><path d="M3521 2120h-2l.04-230.1h2zm63.34-433.67h-58.3l-.82.07-.76.18-.73.3-.67.4-.6.52-.5.6-.4.66-.3.73-.2.7-.02 178.08h-2l.03-178.3.27-1.1.42-1.03.57-.93.72-.84.83-.7.94-.6 1.02-.4 1.06-.26 1.06-.1h58.38z" stroke="#5e5e5e" stroke-width=".05" fill="#5e5e5e"/><path d="M3585.34 1685.33l.1 1h-1.13v-2h1.13z" fill="#5e5e5e"/><path d="M3585.36 1685.33l.1 1.03h-1.17v-2.05h1.16zm-1.02-.97v1.95h1.07l-.1-.97.1-.97z" stroke="#5e5e5e" stroke-width=".05" fill="#5e5e5e"/><path d="M3520 2135.26l-4.64-14.26h9.28z" fill="#5e5e5e"/><path d="M3520 2138.5l-6-18.5h12zm-3.26-16.5l3.26 10.03 3.26-10.03z" stroke="#5e5e5e" stroke-width=".05" fill="#5e5e5e"/><g><use xlink:href="#w" transform="matrix(1,0,0,1,3508.1975308641977,1868.5805444811524) translate(0.005000000000000782 14.222222222222223)"/></g><path d="M3921 2174.04l-.08 1.06-.26 1.06-.42 1.02-.57.94-.72.83-.83.72-.94.57-1.02.42-1.1.27-295.06.07v-2l294.82-.07.72-.18.73-.3.67-.4.6-.52.5-.6.4-.66.3-.73.2-.76.06-.82v-87.8h2zm30.84-487.7h-25.8l-.82.06-.76.18-.73.3-.67.4-.6.52-.5.6-.4.66-.3.73-.2.7-.04 374.33h-2l.05-374.55.27-1.1.42-1.03.57-.93.72-.84.83-.7.94-.6 1.02-.4 1.06-.26 1.06-.1h25.88z" stroke="#5e5e5e" stroke-width=".05" fill="#5e5e5e"/><path d="M3952.84 1685.33l.1 1h-1.13v-2h1.13z" fill="#5e5e5e"/><path d="M3952.86 1685.33l.1 1.03h-1.17v-2.05h1.16zm-1.02-.97v1.95h1.07l-.1-.97.1-.97z" stroke="#5e5e5e" stroke-width=".05" fill="#5e5e5e"/><path d="M3619 2184.64l-14.26-4.64 14.26-4.64z" fill="#5e5e5e"/><path d="M3620 2186l-18.5-6 18.5-6zm-12.03-6l10.03 3.26v-6.52z" stroke="#5e5e5e" stroke-width=".05" fill="#5e5e5e"/><g><use xlink:href="#w" transform="matrix(1,0,0,1,3908.1975308641977,2064.830077817257) translate(0.005000000000000782 14.222222222222223)"/></g><defs><path fill="#333" d="M33 0v-248h34V0H33" id="ac"/><path fill="#333" d="M117-194c89-4 53 116 60 194h-32v-121c0-31-8-49-39-48C34-167 62-67 57 0H25l-1-190h30c1 10-1 24 2 32 11-22 29-35 61-36" id="ad"/><path fill="#333" d="M59-47c-2 24 18 29 38 22v24C64 9 27 4 27-40v-127H5v-23h24l9-43h21v43h35v23H59v120" id="ae"/><path fill="#333" d="M100-194c63 0 86 42 84 106H49c0 40 14 67 53 68 26 1 43-12 49-29l28 8c-11 28-37 45-77 45C44 4 14-33 15-96c1-61 26-98 85-98zm52 81c6-60-76-77-97-28-3 7-6 17-6 28h103" id="af"/><path fill="#333" d="M114-163C36-179 61-72 57 0H25l-1-190h30c1 12-1 29 2 39 6-27 23-49 58-41v29" id="ag"/><path fill="#333" d="M84 4C-5 8 30-112 23-190h32v120c0 31 7 50 39 49 72-2 45-101 50-169h31l1 190h-30c-1-10 1-25-2-33-11 22-28 36-60 37" id="ah"/><path fill="#333" d="M115-194c55 1 70 41 70 98S169 2 115 4C84 4 66-9 55-30l1 105H24l-1-265h31l2 30c10-21 28-34 59-34zm-8 174c40 0 45-34 45-75s-6-73-45-74c-42 0-51 32-51 76 0 43 10 73 51 73" id="ai"/><path fill="#333" d="M96-169c-40 0-48 33-48 73s9 75 48 75c24 0 41-14 43-38l32 2c-6 37-31 61-74 61-59 0-76-41-82-99-10-93 101-131 147-64 4 7 5 14 7 22l-32 3c-4-21-16-35-41-35" id="aj"/><path fill="#333" d="M24-231v-30h32v30H24zM24 0v-190h32V0H24" id="ak"/><path fill="#333" d="M100-194c62-1 85 37 85 99 1 63-27 99-86 99S16-35 15-95c0-66 28-99 85-99zM99-20c44 1 53-31 53-75 0-43-8-75-51-75s-53 32-53 75 10 74 51 75zM76-211c8-23 27-35 38-54h36v5l-58 49H76" id="al"/><g id="a"><use transform="matrix(0.06172839506172839,0,0,0.06172839506172839,0,0)" xlink:href="#ac"/><use transform="matrix(0.06172839506172839,0,0,0.06172839506172839,6.172839506172839,0)" xlink:href="#ad"/><use transform="matrix(0.06172839506172839,0,0,0.06172839506172839,18.51851851851852,0)" xlink:href="#ae"/><use transform="matrix(0.06172839506172839,0,0,0.06172839506172839,24.691358024691358,0)" xlink:href="#af"/><use transform="matrix(0.06172839506172839,0,0,0.06172839506172839,37.03703703703704,0)" xlink:href="#ag"/><use transform="matrix(0.06172839506172839,0,0,0.06172839506172839,44.382716049382715,0)" xlink:href="#ag"/><use transform="matrix(0.06172839506172839,0,0,0.06172839506172839,51.72839506172839,0)" xlink:href="#ah"/><use transform="matrix(0.06172839506172839,0,0,0.06172839506172839,64.07407407407408,0)" xlink:href="#ai"/><use transform="matrix(0.06172839506172839,0,0,0.06172839506172839,76.41975308641976,0)" xlink:href="#aj"/><use transform="matrix(0.06172839506172839,0,0,0.06172839506172839,87.53086419753087,0)" xlink:href="#ak"/><use transform="matrix(0.06172839506172839,0,0,0.06172839506172839,92.40740740740742,0)" xlink:href="#al"/><use transform="matrix(0.06172839506172839,0,0,0.06172839506172839,104.7530864197531,0)" xlink:href="#ad"/></g><path fill="#333" d="M212-179c-10-28-35-45-73-45-59 0-87 40-87 99 0 60 29 101 89 101 43 0 62-24 78-52l27 14C228-24 195 4 139 4 59 4 22-46 18-125c-6-104 99-153 187-111 19 9 31 26 39 46" id="am"/><path fill="#333" d="M100-194c62-1 85 37 85 99 1 63-27 99-86 99S16-35 15-95c0-66 28-99 85-99zM99-20c44 1 53-31 53-75 0-43-8-75-51-75s-53 32-53 75 10 74 51 75" id="an"/><path fill="#333" d="M210-169c-67 3-38 105-44 169h-31v-121c0-29-5-50-35-48C34-165 62-65 56 0H25l-1-190h30c1 10-1 24 2 32 10-44 99-50 107 0 11-21 27-35 58-36 85-2 47 119 55 194h-31v-121c0-29-5-49-35-48" id="ao"/><path fill="#333" d="M141-36C126-15 110 5 73 4 37 3 15-17 15-53c-1-64 63-63 125-63 3-35-9-54-41-54-24 1-41 7-42 31l-33-3c5-37 33-52 76-52 45 0 72 20 72 64v82c-1 20 7 32 28 27v20c-31 9-61-2-59-35zM48-53c0 20 12 33 32 33 41-3 63-29 60-74-43 2-92-5-92 41" id="ap"/><g id="b"><use transform="matrix(0.06172839506172839,0,0,0.06172839506172839,0,0)" xlink:href="#am"/><use transform="matrix(0.06172839506172839,0,0,0.06172839506172839,15.987654320987653,0)" xlink:href="#an"/><use transform="matrix(0.06172839506172839,0,0,0.06172839506172839,28.333333333333332,0)" xlink:href="#ao"/><use transform="matrix(0.06172839506172839,0,0,0.06172839506172839,46.79012345679012,0)" xlink:href="#ai"/><use transform="matrix(0.06172839506172839,0,0,0.06172839506172839,59.1358024691358,0)" xlink:href="#ap"/><use transform="matrix(0.06172839506172839,0,0,0.06172839506172839,71.48148148148148,0)" xlink:href="#ag"/><use transform="matrix(0.06172839506172839,0,0,0.06172839506172839,78.82716049382717,0)" xlink:href="#ap"/></g><path fill="#333" d="M24 0v-261h32V0H24" id="aq"/><g id="c"><use transform="matrix(0.06172839506172839,0,0,0.06172839506172839,0,0)" xlink:href="#aq"/><use transform="matrix(0.06172839506172839,0,0,0.06172839506172839,4.876543209876543,0)" xlink:href="#ap"/></g><path fill="#333" d="M106-169C34-169 62-67 57 0H25v-261h32l-1 103c12-21 28-36 61-36 89 0 53 116 60 194h-32v-121c2-32-8-49-39-48" id="ar"/><g id="d"><use transform="matrix(0.06172839506172839,0,0,0.06172839506172839,0,0)" xlink:href="#ar"/><use transform="matrix(0.06172839506172839,0,0,0.06172839506172839,12.345679012345679,0)" xlink:href="#an"/><use transform="matrix(0.06172839506172839,0,0,0.06172839506172839,24.691358024691358,0)" xlink:href="#ag"/><use transform="matrix(0.06172839506172839,0,0,0.06172839506172839,32.03703703703704,0)" xlink:href="#ap"/></g><path fill="#333" d="M179-190L93 31C79 59 56 82 12 73V49c39 6 53-20 64-50L1-190h34L92-34l54-156h33" id="as"/><use transform="matrix(0.06172839506172839,0,0,0.06172839506172839,0,0)" xlink:href="#as" id="e"/><path fill="#333" d="M135-143c-3-34-86-38-87 0 15 53 115 12 119 90S17 21 10-45l28-5c4 36 97 45 98 0-10-56-113-15-118-90-4-57 82-63 122-42 12 7 21 19 24 35" id="at"/><g id="f"><use transform="matrix(0.06172839506172839,0,0,0.06172839506172839,0,0)" xlink:href="#aq"/><use transform="matrix(0.06172839506172839,0,0,0.06172839506172839,4.876543209876543,0)" xlink:href="#an"/><use transform="matrix(0.06172839506172839,0,0,0.06172839506172839,17.22222222222222,0)" xlink:href="#at"/></g><g id="g"><use transform="matrix(0.06172839506172839,0,0,0.06172839506172839,0,0)" xlink:href="#ao"/><use transform="matrix(0.06172839506172839,0,0,0.06172839506172839,18.456790123456788,0)" xlink:href="#ak"/><use transform="matrix(0.06172839506172839,0,0,0.06172839506172839,23.33333333333333,0)" xlink:href="#ad"/><use transform="matrix(0.06172839506172839,0,0,0.06172839506172839,35.679012345679006,0)" xlink:href="#ah"/><use transform="matrix(0.06172839506172839,0,0,0.06172839506172839,48.02469135802468,0)" xlink:href="#ae"/><use transform="matrix(0.06172839506172839,0,0,0.06172839506172839,54.197530864197525,0)" xlink:href="#an"/><use transform="matrix(0.06172839506172839,0,0,0.06172839506172839,66.5432098765432,0)" xlink:href="#at"/></g><g id="h"><use transform="matrix(0.06172839506172839,0,0,0.06172839506172839,0,0)" xlink:href="#aj"/><use transform="matrix(0.06172839506172839,0,0,0.06172839506172839,11.11111111111111,0)" xlink:href="#an"/><use transform="matrix(0.06172839506172839,0,0,0.06172839506172839,23.45679012345679,0)" xlink:href="#ad"/></g><path fill="#333" d="M108 0H70L1-190h34L89-25l56-165h34" id="au"/><g id="i"><use transform="matrix(0.06172839506172839,0,0,0.06172839506172839,0,0)" xlink:href="#au"/><use transform="matrix(0.06172839506172839,0,0,0.06172839506172839,11.11111111111111,0)" xlink:href="#ap"/><use transform="matrix(0.06172839506172839,0,0,0.06172839506172839,23.45679012345679,0)" xlink:href="#aq"/><use transform="matrix(0.06172839506172839,0,0,0.06172839506172839,28.333333333333336,0)" xlink:href="#an"/><use transform="matrix(0.06172839506172839,0,0,0.06172839506172839,40.67901234567901,0)" xlink:href="#ag"/><use transform="matrix(0.06172839506172839,0,0,0.06172839506172839,48.02469135802469,0)" xlink:href="#af"/><use transform="matrix(0.06172839506172839,0,0,0.06172839506172839,60.37037037037037,0)" xlink:href="#at"/></g><path fill="#333" d="M85-194c31 0 48 13 60 33l-1-100h32l1 261h-30c-2-10 0-23-3-31C134-8 116 4 85 4 32 4 16-35 15-94c0-66 23-100 70-100zm9 24c-40 0-46 34-46 75 0 40 6 74 45 74 42 0 51-32 51-76 0-42-9-74-50-73" id="av"/><g id="j"><use transform="matrix(0.06172839506172839,0,0,0.06172839506172839,0,0)" xlink:href="#av"/><use transform="matrix(0.06172839506172839,0,0,0.06172839506172839,12.345679012345679,0)" xlink:href="#af"/></g><g id="k"><use transform="matrix(0.06172839506172839,0,0,0.06172839506172839,0,0)" xlink:href="#ap"/><use transform="matrix(0.06172839506172839,0,0,0.06172839506172839,12.345679012345679,0)" xlink:href="#aq"/><use transform="matrix(0.06172839506172839,0,0,0.06172839506172839,17.22222222222222,0)" xlink:href="#ap"/><use transform="matrix(0.06172839506172839,0,0,0.06172839506172839,29.5679012345679,0)" xlink:href="#ag"/><use transform="matrix(0.06172839506172839,0,0,0.06172839506172839,36.913580246913575,0)" xlink:href="#ao"/><use transform="matrix(0.06172839506172839,0,0,0.06172839506172839,55.37037037037037,0)" xlink:href="#ap"/></g><use transform="matrix(0.06172839506172839,0,0,0.06172839506172839,0,0)" xlink:href="#as" id="l"/><path fill="#333" d="M101-234c-31-9-42 10-38 44h38v23H63V0H32v-167H5v-23h27c-7-52 17-82 69-68v24" id="aw"/><g id="m"><use transform="matrix(0.06172839506172839,0,0,0.06172839506172839,0,0)" xlink:href="#au"/><use transform="matrix(0.06172839506172839,0,0,0.06172839506172839,11.11111111111111,0)" xlink:href="#af"/><use transform="matrix(0.06172839506172839,0,0,0.06172839506172839,23.45679012345679,0)" xlink:href="#ag"/><use transform="matrix(0.06172839506172839,0,0,0.06172839506172839,30.80246913580247,0)" xlink:href="#ak"/><use transform="matrix(0.06172839506172839,0,0,0.06172839506172839,35.67901234567901,0)" xlink:href="#aw"/><use transform="matrix(0.06172839506172839,0,0,0.06172839506172839,41.851851851851855,0)" xlink:href="#ak"/><use transform="matrix(0.06172839506172839,0,0,0.06172839506172839,46.7283950617284,0)" xlink:href="#aj"/><use transform="matrix(0.06172839506172839,0,0,0.06172839506172839,57.839506172839506,0)" xlink:href="#ap"/></g><g id="n"><use transform="matrix(0.06172839506172839,0,0,0.06172839506172839,0,0)" xlink:href="#at"/><use transform="matrix(0.06172839506172839,0,0,0.06172839506172839,11.11111111111111,0)" xlink:href="#ak"/></g><g id="o"><use transform="matrix(0.06172839506172839,0,0,0.06172839506172839,0,0)" xlink:href="#at"/><use transform="matrix(0.06172839506172839,0,0,0.06172839506172839,11.11111111111111,0)" xlink:href="#an"/><use transform="matrix(0.06172839506172839,0,0,0.06172839506172839,23.45679012345679,0)" xlink:href="#ad"/></g><path fill="#333" d="M177-190C167-65 218 103 67 71c-23-6-38-20-44-43l32-5c15 47 100 32 89-28v-30C133-14 115 1 83 1 29 1 15-40 15-95c0-56 16-97 71-98 29-1 48 16 59 35 1-10 0-23 2-32h30zM94-22c36 0 50-32 50-73 0-42-14-75-50-75-39 0-46 34-46 75s6 73 46 73" id="ax"/><g id="p"><use transform="matrix(0.06172839506172839,0,0,0.06172839506172839,0,0)" xlink:href="#ak"/><use transform="matrix(0.06172839506172839,0,0,0.06172839506172839,4.876543209876543,0)" xlink:href="#ax"/><use transform="matrix(0.06172839506172839,0,0,0.06172839506172839,17.22222222222222,0)" xlink:href="#ah"/><use transform="matrix(0.06172839506172839,0,0,0.06172839506172839,29.5679012345679,0)" xlink:href="#ap"/><use transform="matrix(0.06172839506172839,0,0,0.06172839506172839,41.913580246913575,0)" xlink:href="#aq"/><use transform="matrix(0.06172839506172839,0,0,0.06172839506172839,46.79012345679012,0)" xlink:href="#af"/><use transform="matrix(0.06172839506172839,0,0,0.06172839506172839,59.1358024691358,0)" xlink:href="#at"/></g><path fill="#333" d="M107 61C57 61 25 39 23-9c-2-65 71-58 78-115h30c1 64-76 54-76 114 0 30 21 42 52 43 32 0 53-17 56-46l32 2c-6 46-36 72-88 72zm26-251v35H99v-35h34" id="ay"/><path fill="#333" d="M185-189c-5-48-123-54-124 2 14 75 158 14 163 119 3 78-121 87-175 55-17-10-28-26-33-46l33-7c5 56 141 63 141-1 0-78-155-14-162-118-5-82 145-84 179-34 5 7 8 16 11 25" id="az"/><g id="q"><use transform="matrix(0.06172839506172839,0,0,0.06172839506172839,0,0)" xlink:href="#ay"/><use transform="matrix(0.06172839506172839,0,0,0.06172839506172839,13.518518518518517,0)" xlink:href="#az"/><use transform="matrix(0.06172839506172839,0,0,0.06172839506172839,28.33333333333333,0)" xlink:href="#an"/><use transform="matrix(0.06172839506172839,0,0,0.06172839506172839,40.679012345679006,0)" xlink:href="#ad"/></g><path fill="#333" d="M103-251c84 0 111 97 45 133-19 10-37 24-39 52H78c0-63 77-55 77-114 0-30-21-42-52-43-32 0-53 17-56 46l-32-2c7-45 34-72 88-72zM77 0v-35h34V0H77" id="aA"/><g id="r"><use transform="matrix(0.06172839506172839,0,0,0.06172839506172839,0,0)" xlink:href="#ak"/><use transform="matrix(0.06172839506172839,0,0,0.06172839506172839,4.876543209876543,0)" xlink:href="#ax"/><use transform="matrix(0.06172839506172839,0,0,0.06172839506172839,17.22222222222222,0)" xlink:href="#ah"/><use transform="matrix(0.06172839506172839,0,0,0.06172839506172839,29.5679012345679,0)" xlink:href="#ap"/><use transform="matrix(0.06172839506172839,0,0,0.06172839506172839,41.913580246913575,0)" xlink:href="#aq"/><use transform="matrix(0.06172839506172839,0,0,0.06172839506172839,46.79012345679012,0)" xlink:href="#af"/><use transform="matrix(0.06172839506172839,0,0,0.06172839506172839,59.1358024691358,0)" xlink:href="#at"/><use transform="matrix(0.06172839506172839,0,0,0.06172839506172839,70.24691358024691,0)" xlink:href="#aA"/></g><path fill="#333" d="M30 0v-248h187v28H63v79h144v27H63v87h162V0H30" id="aB"/><g id="s"><use transform="matrix(0.06172839506172839,0,0,0.06172839506172839,0,0)" xlink:href="#aB"/><use transform="matrix(0.06172839506172839,0,0,0.06172839506172839,14.814814814814813,0)" xlink:href="#ad"/><use transform="matrix(0.06172839506172839,0,0,0.06172839506172839,27.160493827160494,0)" xlink:href="#aj"/><use transform="matrix(0.06172839506172839,0,0,0.06172839506172839,38.27160493827161,0)" xlink:href="#af"/><use transform="matrix(0.06172839506172839,0,0,0.06172839506172839,50.617283950617285,0)" xlink:href="#ad"/><use transform="matrix(0.06172839506172839,0,0,0.06172839506172839,62.96296296296296,0)" xlink:href="#av"/><use transform="matrix(0.06172839506172839,0,0,0.06172839506172839,75.30864197530865,0)" xlink:href="#af"/><use transform="matrix(0.06172839506172839,0,0,0.06172839506172839,87.65432098765433,0)" xlink:href="#ag"/></g><g id="t"><use transform="matrix(0.06172839506172839,0,0,0.06172839506172839,0,0)" xlink:href="#ap"/><use transform="matrix(0.06172839506172839,0,0,0.06172839506172839,12.345679012345679,0)" xlink:href="#aq"/><use transform="matrix(0.06172839506172839,0,0,0.06172839506172839,17.22222222222222,0)" xlink:href="#ap"/><use transform="matrix(0.06172839506172839,0,0,0.06172839506172839,29.5679012345679,0)" xlink:href="#ag"/><use transform="matrix(0.06172839506172839,0,0,0.06172839506172839,36.913580246913575,0)" xlink:href="#ao"/><use transform="matrix(0.06172839506172839,0,0,0.06172839506172839,55.37037037037037,0)" xlink:href="#ap"/></g><path fill="#333" d="M169-182c-1-43-94-46-97-3 18 66 151 10 154 114 3 95-165 93-204 36-6-8-10-19-12-30l50-8c3 46 112 56 116 5-17-69-150-10-154-114-4-87 153-88 188-35 5 8 8 18 10 28" id="aC"/><path fill="#333" d="M25 0v-190h50V0H25zm-5-208v-5l45-51h45v8l-60 48H20" id="aD"/><g id="u"><use transform="matrix(0.04938271604938272,0,0,0.04938271604938272,0,0)" xlink:href="#aC"/><use transform="matrix(0.04938271604938272,0,0,0.04938271604938272,11.851851851851853,0)" xlink:href="#aD"/></g><path fill="#333" d="M205 0l-28-72H64L36 0H1l101-248h38L239 0h-34zm-38-99l-47-123c-12 45-31 82-46 123h93" id="aE"/><g id="v"><use transform="matrix(0.06172839506172839,0,0,0.06172839506172839,0,0)" xlink:href="#aE"/><use transform="matrix(0.06172839506172839,0,0,0.06172839506172839,14.814814814814813,0)" xlink:href="#ai"/><use transform="matrix(0.06172839506172839,0,0,0.06172839506172839,27.160493827160494,0)" xlink:href="#ap"/><use transform="matrix(0.06172839506172839,0,0,0.06172839506172839,39.50617283950617,0)" xlink:href="#ax"/><use transform="matrix(0.06172839506172839,0,0,0.06172839506172839,51.85185185185185,0)" xlink:href="#ap"/><use transform="matrix(0.06172839506172839,0,0,0.06172839506172839,64.19753086419753,0)" xlink:href="#ag"/></g><path fill="#333" d="M175 0L67-191c6 58 2 128 3 191H24v-248h59L193-55c-6-58-2-129-3-193h46V0h-61" id="aF"/><path fill="#333" d="M110-194c64 0 96 36 96 99 0 64-35 99-97 99-61 0-95-36-95-99 0-62 34-99 96-99zm-1 164c35 0 45-28 45-65 0-40-10-65-43-65-34 0-45 26-45 65 0 36 10 65 43 65" id="aG"/><g id="w"><use transform="matrix(0.04938271604938272,0,0,0.04938271604938272,0,0)" xlink:href="#aF"/><use transform="matrix(0.04938271604938272,0,0,0.04938271604938272,12.790123456790125,0)" xlink:href="#aG"/></g><g id="x"><use transform="matrix(0.06172839506172839,0,0,0.06172839506172839,0,0)" xlink:href="#aE"/><use transform="matrix(0.06172839506172839,0,0,0.06172839506172839,14.814814814814813,0)" xlink:href="#ah"/><use transform="matrix(0.06172839506172839,0,0,0.06172839506172839,27.160493827160494,0)" xlink:href="#ao"/><use transform="matrix(0.06172839506172839,0,0,0.06172839506172839,45.61728395061728,0)" xlink:href="#af"/><use transform="matrix(0.06172839506172839,0,0,0.06172839506172839,57.962962962962955,0)" xlink:href="#ad"/><use transform="matrix(0.06172839506172839,0,0,0.06172839506172839,70.30864197530863,0)" xlink:href="#ae"/><use transform="matrix(0.06172839506172839,0,0,0.06172839506172839,76.48148148148147,0)" xlink:href="#ap"/></g><g id="y"><use transform="matrix(0.06172839506172839,0,0,0.06172839506172839,0,0)" xlink:href="#aj"/><use transform="matrix(0.06172839506172839,0,0,0.06172839506172839,11.11111111111111,0)" xlink:href="#an"/><use transform="matrix(0.06172839506172839,0,0,0.06172839506172839,23.45679012345679,0)" xlink:href="#ad"/><use transform="matrix(0.06172839506172839,0,0,0.06172839506172839,35.80246913580247,0)" xlink:href="#ae"/><use transform="matrix(0.06172839506172839,0,0,0.06172839506172839,41.97530864197531,0)" xlink:href="#ap"/><use transform="matrix(0.06172839506172839,0,0,0.06172839506172839,54.32098765432099,0)" xlink:href="#av"/><use transform="matrix(0.06172839506172839,0,0,0.06172839506172839,66.66666666666667,0)" xlink:href="#an"/><use transform="matrix(0.06172839506172839,0,0,0.06172839506172839,79.01234567901236,0)" xlink:href="#ag"/></g><path fill="#333" d="M115-194c53 0 69 39 70 98 0 66-23 100-70 100C84 3 66-7 56-30L54 0H23l1-261h32v101c10-23 28-34 59-34zm-8 174c40 0 45-34 45-75 0-40-5-75-45-74-42 0-51 32-51 76 0 43 10 73 51 73" id="aH"/><g id="z"><use transform="matrix(0.06172839506172839,0,0,0.06172839506172839,0,0)" xlink:href="#aH"/><use transform="matrix(0.06172839506172839,0,0,0.06172839506172839,12.345679012345679,0)" xlink:href="#ak"/><use transform="matrix(0.06172839506172839,0,0,0.06172839506172839,17.22222222222222,0)" xlink:href="#ad"/><use transform="matrix(0.06172839506172839,0,0,0.06172839506172839,29.5679012345679,0)" xlink:href="#ap"/><use transform="matrix(0.06172839506172839,0,0,0.06172839506172839,41.913580246913575,0)" xlink:href="#ag"/><use transform="matrix(0.06172839506172839,0,0,0.06172839506172839,49.25925925925925,0)" xlink:href="#ak"/><use transform="matrix(0.06172839506172839,0,0,0.06172839506172839,54.1358024691358,0)" xlink:href="#an"/></g><g id="A"><use transform="matrix(0.06172839506172839,0,0,0.06172839506172839,0,0)" xlink:href="#ai"/><use transform="matrix(0.06172839506172839,0,0,0.06172839506172839,12.345679012345679,0)" xlink:href="#ap"/><use transform="matrix(0.06172839506172839,0,0,0.06172839506172839,24.691358024691358,0)" xlink:href="#ag"/><use transform="matrix(0.06172839506172839,0,0,0.06172839506172839,32.03703703703704,0)" xlink:href="#ap"/></g><path fill="#333" d="M141 0L90-78 38 0H4l68-98-65-92h35l48 74 47-74h35l-64 92 68 98h-35" id="aI"/><g id="B"><use transform="matrix(0.06172839506172839,0,0,0.06172839506172839,0,0)" xlink:href="#ap"/><use transform="matrix(0.06172839506172839,0,0,0.06172839506172839,12.345679012345679,0)" xlink:href="#ai"/><use transform="matrix(0.06172839506172839,0,0,0.06172839506172839,24.691358024691358,0)" xlink:href="#ag"/><use transform="matrix(0.06172839506172839,0,0,0.06172839506172839,32.03703703703704,0)" xlink:href="#an"/><use transform="matrix(0.06172839506172839,0,0,0.06172839506172839,44.382716049382715,0)" xlink:href="#aI"/><use transform="matrix(0.06172839506172839,0,0,0.06172839506172839,55.49382716049382,0)" xlink:href="#ak"/><use transform="matrix(0.06172839506172839,0,0,0.06172839506172839,60.37037037037037,0)" xlink:href="#ao"/><use transform="matrix(0.06172839506172839,0,0,0.06172839506172839,78.82716049382715,0)" xlink:href="#ap"/><use transform="matrix(0.06172839506172839,0,0,0.06172839506172839,91.17283950617283,0)" xlink:href="#ag"/></g><g id="C"><use transform="matrix(0.06172839506172839,0,0,0.06172839506172839,0,0)" xlink:href="#at"/><use transform="matrix(0.06172839506172839,0,0,0.06172839506172839,11.11111111111111,0)" xlink:href="#af"/><use transform="matrix(0.06172839506172839,0,0,0.06172839506172839,23.45679012345679,0)" xlink:href="#ax"/><use transform="matrix(0.06172839506172839,0,0,0.06172839506172839,35.80246913580247,0)" xlink:href="#ah"/><use transform="matrix(0.06172839506172839,0,0,0.06172839506172839,48.148148148148145,0)" xlink:href="#ad"/><use transform="matrix(0.06172839506172839,0,0,0.06172839506172839,60.49382716049382,0)" xlink:href="#av"/><use transform="matrix(0.06172839506172839,0,0,0.06172839506172839,72.8395061728395,0)" xlink:href="#an"/><use transform="matrix(0.06172839506172839,0,0,0.06172839506172839,85.18518518518519,0)" xlink:href="#at"/></g><g id="D"><use transform="matrix(0.06172839506172839,0,0,0.06172839506172839,0,0)" xlink:href="#ay"/><use transform="matrix(0.06172839506172839,0,0,0.06172839506172839,13.518518518518517,0)" xlink:href="#aB"/><use transform="matrix(0.06172839506172839,0,0,0.06172839506172839,28.33333333333333,0)" xlink:href="#aq"/></g><g id="E"><use transform="matrix(0.06172839506172839,0,0,0.06172839506172839,0,0)" xlink:href="#aq"/><use transform="matrix(0.06172839506172839,0,0,0.06172839506172839,4.876543209876543,0)" xlink:href="#aq"/><use transform="matrix(0.06172839506172839,0,0,0.06172839506172839,9.753086419753085,0)" xlink:href="#af"/><use transform="matrix(0.06172839506172839,0,0,0.06172839506172839,22.098765432098766,0)" xlink:href="#ax"/><use transform="matrix(0.06172839506172839,0,0,0.06172839506172839,34.44444444444444,0)" xlink:href="#al"/></g><g id="F"><use transform="matrix(0.06172839506172839,0,0,0.06172839506172839,0,0)" xlink:href="#ap"/><use transform="matrix(0.06172839506172839,0,0,0.06172839506172839,12.345679012345679,0)" xlink:href="#aq"/></g><path fill="#333" d="M34 0v-190h32V0H34zM24-211c8-23 27-35 38-54h36v5l-58 49H24" id="aJ"/><g id="G"><use transform="matrix(0.06172839506172839,0,0,0.06172839506172839,0,0)" xlink:href="#aq"/><use transform="matrix(0.06172839506172839,0,0,0.06172839506172839,4.876543209876543,0)" xlink:href="#aJ"/><use transform="matrix(0.06172839506172839,0,0,0.06172839506172839,11.049382716049383,0)" xlink:href="#ao"/><use transform="matrix(0.06172839506172839,0,0,0.06172839506172839,29.50617283950617,0)" xlink:href="#ak"/><use transform="matrix(0.06172839506172839,0,0,0.06172839506172839,34.382716049382715,0)" xlink:href="#ae"/><use transform="matrix(0.06172839506172839,0,0,0.06172839506172839,40.55555555555556,0)" xlink:href="#af"/></g><g id="H"><use transform="matrix(0.06172839506172839,0,0,0.06172839506172839,0,0)" xlink:href="#ai"/><use transform="matrix(0.06172839506172839,0,0,0.06172839506172839,12.345679012345679,0)" xlink:href="#ag"/><use transform="matrix(0.06172839506172839,0,0,0.06172839506172839,19.691358024691358,0)" xlink:href="#af"/><use transform="matrix(0.06172839506172839,0,0,0.06172839506172839,32.03703703703704,0)" xlink:href="#av"/><use transform="matrix(0.06172839506172839,0,0,0.06172839506172839,44.382716049382715,0)" xlink:href="#af"/><use transform="matrix(0.06172839506172839,0,0,0.06172839506172839,56.72839506172839,0)" xlink:href="#aw"/><use transform="matrix(0.06172839506172839,0,0,0.06172839506172839,62.901234567901234,0)" xlink:href="#ak"/><use transform="matrix(0.06172839506172839,0,0,0.06172839506172839,67.77777777777777,0)" xlink:href="#ad"/><use transform="matrix(0.06172839506172839,0,0,0.06172839506172839,80.12345679012346,0)" xlink:href="#ak"/><use transform="matrix(0.06172839506172839,0,0,0.06172839506172839,85,0)" xlink:href="#av"/><use transform="matrix(0.06172839506172839,0,0,0.06172839506172839,97.34567901234568,0)" xlink:href="#an"/><use transform="matrix(0.06172839506172839,0,0,0.06172839506172839,109.69135802469137,0)" xlink:href="#aA"/></g><g id="I"><use transform="matrix(0.06172839506172839,0,0,0.06172839506172839,0,0)" xlink:href="#aE"/><use transform="matrix(0.06172839506172839,0,0,0.06172839506172839,14.814814814814813,0)" xlink:href="#ah"/><use transform="matrix(0.06172839506172839,0,0,0.06172839506172839,27.160493827160494,0)" xlink:href="#ao"/><use transform="matrix(0.06172839506172839,0,0,0.06172839506172839,45.61728395061728,0)" xlink:href="#af"/><use transform="matrix(0.06172839506172839,0,0,0.06172839506172839,57.962962962962955,0)" xlink:href="#ad"/><use transform="matrix(0.06172839506172839,0,0,0.06172839506172839,70.30864197530863,0)" xlink:href="#ae"/><use transform="matrix(0.06172839506172839,0,0,0.06172839506172839,76.48148148148147,0)" xlink:href="#ap"/><use transform="matrix(0.06172839506172839,0,0,0.06172839506172839,88.82716049382715,0)" xlink:href="#ag"/></g><g id="J"><use transform="matrix(0.06172839506172839,0,0,0.06172839506172839,0,0)" xlink:href="#ah"/><use transform="matrix(0.06172839506172839,0,0,0.06172839506172839,12.345679012345679,0)" xlink:href="#ad"/><use transform="matrix(0.06172839506172839,0,0,0.06172839506172839,24.691358024691358,0)" xlink:href="#ak"/><use transform="matrix(0.06172839506172839,0,0,0.06172839506172839,29.5679012345679,0)" xlink:href="#av"/><use transform="matrix(0.06172839506172839,0,0,0.06172839506172839,41.913580246913575,0)" xlink:href="#ap"/><use transform="matrix(0.06172839506172839,0,0,0.06172839506172839,54.25925925925925,0)" xlink:href="#av"/><use transform="matrix(0.06172839506172839,0,0,0.06172839506172839,66.60493827160494,0)" xlink:href="#af"/><use transform="matrix(0.06172839506172839,0,0,0.06172839506172839,78.95061728395062,0)" xlink:href="#at"/></g><path fill="#333" d="M233-177c-1 41-23 64-60 70L243 0h-38l-65-103H63V0H30v-248c88 3 205-21 203 71zM63-129c60-2 137 13 137-47 0-61-80-42-137-45v92" id="aK"/><g id="K"><use transform="matrix(0.06172839506172839,0,0,0.06172839506172839,0,0)" xlink:href="#aK"/><use transform="matrix(0.06172839506172839,0,0,0.06172839506172839,15.987654320987653,0)" xlink:href="#af"/><use transform="matrix(0.06172839506172839,0,0,0.06172839506172839,28.333333333333332,0)" xlink:href="#ak"/><use transform="matrix(0.06172839506172839,0,0,0.06172839506172839,33.20987654320987,0)" xlink:href="#ad"/><use transform="matrix(0.06172839506172839,0,0,0.06172839506172839,45.55555555555555,0)" xlink:href="#ak"/><use transform="matrix(0.06172839506172839,0,0,0.06172839506172839,50.432098765432094,0)" xlink:href="#aj"/><use transform="matrix(0.06172839506172839,0,0,0.06172839506172839,61.5432098765432,0)" xlink:href="#ak"/><use transform="matrix(0.06172839506172839,0,0,0.06172839506172839,66.41975308641975,0)" xlink:href="#ap"/><use transform="matrix(0.06172839506172839,0,0,0.06172839506172839,78.76543209876543,0)" xlink:href="#ag"/></g><g id="L"><use transform="matrix(0.06172839506172839,0,0,0.06172839506172839,0,0)" xlink:href="#aj"/><use transform="matrix(0.06172839506172839,0,0,0.06172839506172839,11.11111111111111,0)" xlink:href="#an"/><use transform="matrix(0.06172839506172839,0,0,0.06172839506172839,23.45679012345679,0)" xlink:href="#ad"/><use transform="matrix(0.06172839506172839,0,0,0.06172839506172839,35.80246913580247,0)" xlink:href="#ae"/><use transform="matrix(0.06172839506172839,0,0,0.06172839506172839,41.97530864197531,0)" xlink:href="#ap"/><use transform="matrix(0.06172839506172839,0,0,0.06172839506172839,54.32098765432099,0)" xlink:href="#av"/><use transform="matrix(0.06172839506172839,0,0,0.06172839506172839,66.66666666666667,0)" xlink:href="#an"/><use transform="matrix(0.06172839506172839,0,0,0.06172839506172839,79.01234567901236,0)" xlink:href="#ag"/></g><g id="M"><use transform="matrix(0.06172839506172839,0,0,0.06172839506172839,0,0)" xlink:href="#ay"/><use transform="matrix(0.06172839506172839,0,0,0.06172839506172839,13.518518518518517,0)" xlink:href="#az"/><use transform="matrix(0.06172839506172839,0,0,0.06172839506172839,28.33333333333333,0)" xlink:href="#af"/></g><g id="N"><use transform="matrix(0.06172839506172839,0,0,0.06172839506172839,0,0)" xlink:href="#aj"/><use transform="matrix(0.06172839506172839,0,0,0.06172839506172839,11.11111111111111,0)" xlink:href="#an"/><use transform="matrix(0.06172839506172839,0,0,0.06172839506172839,23.45679012345679,0)" xlink:href="#ad"/><use transform="matrix(0.06172839506172839,0,0,0.06172839506172839,35.80246913580247,0)" xlink:href="#ae"/><use transform="matrix(0.06172839506172839,0,0,0.06172839506172839,41.97530864197531,0)" xlink:href="#ap"/><use transform="matrix(0.06172839506172839,0,0,0.06172839506172839,54.32098765432099,0)" xlink:href="#ag"/><use transform="matrix(0.06172839506172839,0,0,0.06172839506172839,61.666666666666664,0)" xlink:href="#an"/><use transform="matrix(0.06172839506172839,0,0,0.06172839506172839,74.01234567901234,0)" xlink:href="#ad"/></g><path fill="#333" d="M110-160c48 1 74 30 74 79 0 53-28 85-80 85-65 0-83-55-86-122-5-90 50-162 133-122 14 7 22 21 27 39l-31 6c-5-40-67-38-82-6-9 19-15 44-15 74 11-20 30-34 60-33zm-7 138c34 0 49-23 49-58s-16-56-50-56c-29 0-50 16-49 49 1 36 15 65 50 65" id="aL"/><path fill="#333" d="M101-251c68 0 85 55 85 127S166 4 100 4C33 4 14-52 14-124c0-73 17-127 87-127zm-1 229c47 0 54-49 54-102s-4-102-53-102c-51 0-55 48-55 102 0 53 5 102 54 102" id="aM"/><g id="O"><use transform="matrix(0.06172839506172839,0,0,0.06172839506172839,0,0)" xlink:href="#aL"/><use transform="matrix(0.06172839506172839,0,0,0.06172839506172839,12.345679012345679,0)" xlink:href="#aM"/></g><g id="P"><use transform="matrix(0.06172839506172839,0,0,0.06172839506172839,0,0)" xlink:href="#ao"/><use transform="matrix(0.06172839506172839,0,0,0.06172839506172839,18.456790123456788,0)" xlink:href="#ak"/><use transform="matrix(0.06172839506172839,0,0,0.06172839506172839,23.33333333333333,0)" xlink:href="#ad"/><use transform="matrix(0.06172839506172839,0,0,0.06172839506172839,35.679012345679006,0)" xlink:href="#ah"/><use transform="matrix(0.06172839506172839,0,0,0.06172839506172839,48.02469135802468,0)" xlink:href="#ae"/><use transform="matrix(0.06172839506172839,0,0,0.06172839506172839,54.197530864197525,0)" xlink:href="#an"/><use transform="matrix(0.06172839506172839,0,0,0.06172839506172839,66.5432098765432,0)" xlink:href="#at"/></g><g id="Q"><use transform="matrix(0.06172839506172839,0,0,0.06172839506172839,0,0)" xlink:href="#aj"/><use transform="matrix(0.06172839506172839,0,0,0.06172839506172839,11.11111111111111,0)" xlink:href="#an"/><use transform="matrix(0.06172839506172839,0,0,0.06172839506172839,23.45679012345679,0)" xlink:href="#ad"/><use transform="matrix(0.06172839506172839,0,0,0.06172839506172839,35.80246913580247,0)" xlink:href="#ae"/><use transform="matrix(0.06172839506172839,0,0,0.06172839506172839,41.97530864197531,0)" xlink:href="#ap"/><use transform="matrix(0.06172839506172839,0,0,0.06172839506172839,54.32098765432099,0)" xlink:href="#av"/><use transform="matrix(0.06172839506172839,0,0,0.06172839506172839,66.66666666666667,0)" xlink:href="#an"/><use transform="matrix(0.06172839506172839,0,0,0.06172839506172839,79.01234567901236,0)" xlink:href="#ag"/><use transform="matrix(0.06172839506172839,0,0,0.06172839506172839,86.35802469135804,0)" xlink:href="#af"/><use transform="matrix(0.06172839506172839,0,0,0.06172839506172839,98.70370370370372,0)" xlink:href="#at"/></g><g id="R"><use transform="matrix(0.06172839506172839,0,0,0.06172839506172839,0,0)" xlink:href="#ao"/><use transform="matrix(0.06172839506172839,0,0,0.06172839506172839,18.456790123456788,0)" xlink:href="#ak"/><use transform="matrix(0.06172839506172839,0,0,0.06172839506172839,23.33333333333333,0)" xlink:href="#ad"/><use transform="matrix(0.06172839506172839,0,0,0.06172839506172839,35.679012345679006,0)" xlink:href="#ah"/><use transform="matrix(0.06172839506172839,0,0,0.06172839506172839,48.02469135802468,0)" xlink:href="#ae"/><use transform="matrix(0.06172839506172839,0,0,0.06172839506172839,54.197530864197525,0)" xlink:href="#an"/><use transform="matrix(0.06172839506172839,0,0,0.06172839506172839,66.5432098765432,0)" xlink:href="#at"/><use transform="matrix(0.06172839506172839,0,0,0.06172839506172839,77.65432098765432,0)" xlink:href="#aA"/></g><g id="S"><use transform="matrix(0.06172839506172839,0,0,0.06172839506172839,0,0)" xlink:href="#ar"/><use transform="matrix(0.06172839506172839,0,0,0.06172839506172839,12.345679012345679,0)" xlink:href="#an"/><use transform="matrix(0.06172839506172839,0,0,0.06172839506172839,24.691358024691358,0)" xlink:href="#ag"/><use transform="matrix(0.06172839506172839,0,0,0.06172839506172839,32.03703703703704,0)" xlink:href="#ap"/><use transform="matrix(0.06172839506172839,0,0,0.06172839506172839,44.382716049382715,0)" xlink:href="#at"/></g><g id="T"><use transform="matrix(0.06172839506172839,0,0,0.06172839506172839,0,0)" xlink:href="#ay"/><use transform="matrix(0.06172839506172839,0,0,0.06172839506172839,13.518518518518517,0)" xlink:href="#az"/><use transform="matrix(0.06172839506172839,0,0,0.06172839506172839,28.33333333333333,0)" xlink:href="#af"/></g><path fill="#333" d="M101-251c82-7 93 87 43 132L82-64C71-53 59-42 53-27h129V0H18c2-99 128-94 128-182 0-28-16-43-45-43s-46 15-49 41l-32-3c6-41 34-60 81-64" id="aN"/><path fill="#333" d="M155-56V0h-30v-56H8v-25l114-167h33v167h35v25h-35zm-30-156c-27 46-58 90-88 131h88v-131" id="aO"/><g id="U"><use transform="matrix(0.06172839506172839,0,0,0.06172839506172839,0,0)" xlink:href="#aN"/><use transform="matrix(0.06172839506172839,0,0,0.06172839506172839,12.345679012345679,0)" xlink:href="#aO"/></g><g id="V"><use transform="matrix(0.06172839506172839,0,0,0.06172839506172839,0,0)" xlink:href="#ar"/><use transform="matrix(0.06172839506172839,0,0,0.06172839506172839,12.345679012345679,0)" xlink:href="#an"/><use transform="matrix(0.06172839506172839,0,0,0.06172839506172839,24.691358024691358,0)" xlink:href="#ag"/><use transform="matrix(0.06172839506172839,0,0,0.06172839506172839,32.03703703703704,0)" xlink:href="#ap"/><use transform="matrix(0.06172839506172839,0,0,0.06172839506172839,44.382716049382715,0)" xlink:href="#at"/><use transform="matrix(0.06172839506172839,0,0,0.06172839506172839,55.49382716049382,0)" xlink:href="#aA"/></g><g id="W"><use transform="matrix(0.06172839506172839,0,0,0.06172839506172839,0,0)" xlink:href="#ae"/><use transform="matrix(0.06172839506172839,0,0,0.06172839506172839,6.172839506172839,0)" xlink:href="#an"/><use transform="matrix(0.06172839506172839,0,0,0.06172839506172839,18.51851851851852,0)" xlink:href="#av"/><use transform="matrix(0.06172839506172839,0,0,0.06172839506172839,30.864197530864196,0)" xlink:href="#an"/><use transform="matrix(0.06172839506172839,0,0,0.06172839506172839,43.20987654320987,0)" xlink:href="#at"/></g><g id="X"><use transform="matrix(0.06172839506172839,0,0,0.06172839506172839,0,0)" xlink:href="#aq"/><use transform="matrix(0.06172839506172839,0,0,0.06172839506172839,4.876543209876543,0)" xlink:href="#an"/><use transform="matrix(0.06172839506172839,0,0,0.06172839506172839,17.22222222222222,0)" xlink:href="#at"/></g><g id="Y"><use transform="matrix(0.06172839506172839,0,0,0.06172839506172839,0,0)" xlink:href="#aj"/><use transform="matrix(0.06172839506172839,0,0,0.06172839506172839,11.11111111111111,0)" xlink:href="#an"/><use transform="matrix(0.06172839506172839,0,0,0.06172839506172839,23.45679012345679,0)" xlink:href="#ad"/><use transform="matrix(0.06172839506172839,0,0,0.06172839506172839,35.80246913580247,0)" xlink:href="#ae"/><use transform="matrix(0.06172839506172839,0,0,0.06172839506172839,41.97530864197531,0)" xlink:href="#ap"/><use transform="matrix(0.06172839506172839,0,0,0.06172839506172839,54.32098765432099,0)" xlink:href="#av"/><use transform="matrix(0.06172839506172839,0,0,0.06172839506172839,66.66666666666667,0)" xlink:href="#an"/><use transform="matrix(0.06172839506172839,0,0,0.06172839506172839,79.01234567901236,0)" xlink:href="#ag"/><use transform="matrix(0.06172839506172839,0,0,0.06172839506172839,86.35802469135804,0)" xlink:href="#af"/><use transform="matrix(0.06172839506172839,0,0,0.06172839506172839,98.70370370370372,0)" xlink:href="#at"/></g><path fill="#333" d="M63-220v92h138v28H63V0H30v-248h175v28H63" id="aP"/><g id="Z"><use transform="matrix(0.06172839506172839,0,0,0.06172839506172839,0,0)" xlink:href="#aP"/><use transform="matrix(0.06172839506172839,0,0,0.06172839506172839,13.518518518518517,0)" xlink:href="#ak"/><use transform="matrix(0.06172839506172839,0,0,0.06172839506172839,18.39506172839506,0)" xlink:href="#ad"/></g><g id="aa"><use transform="matrix(0.06172839506172839,0,0,0.06172839506172839,0,0)" xlink:href="#aq"/><use transform="matrix(0.06172839506172839,0,0,0.06172839506172839,4.876543209876543,0)" xlink:href="#ap"/></g><g id="ab"><use transform="matrix(0.06172839506172839,0,0,0.06172839506172839,0,0)" xlink:href="#ak"/><use transform="matrix(0.06172839506172839,0,0,0.06172839506172839,4.876543209876543,0)" xlink:href="#ad"/><use transform="matrix(0.06172839506172839,0,0,0.06172839506172839,17.22222222222222,0)" xlink:href="#ae"/><use transform="matrix(0.06172839506172839,0,0,0.06172839506172839,23.39506172839506,0)" xlink:href="#af"/><use transform="matrix(0.06172839506172839,0,0,0.06172839506172839,35.74074074074074,0)" xlink:href="#ag"/><use transform="matrix(0.06172839506172839,0,0,0.06172839506172839,43.08641975308642,0)" xlink:href="#ag"/><use transform="matrix(0.06172839506172839,0,0,0.06172839506172839,50.432098765432094,0)" xlink:href="#ah"/><use transform="matrix(0.06172839506172839,0,0,0.06172839506172839,62.77777777777777,0)" xlink:href="#ai"/><use transform="matrix(0.06172839506172839,0,0,0.06172839506172839,75.12345679012346,0)" xlink:href="#aj"/><use transform="matrix(0.06172839506172839,0,0,0.06172839506172839,86.23456790123457,0)" xlink:href="#ak"/><use transform="matrix(0.06172839506172839,0,0,0.06172839506172839,91.11111111111111,0)" xlink:href="#al"/><use transform="matrix(0.06172839506172839,0,0,0.06172839506172839,103.4567901234568,0)" xlink:href="#ad"/></g></defs></g></svg>