<svg xmlns="http://www.w3.org/2000/svg" xmlns:xlink="http://www.w3.org/1999/xlink" xmlns:lucid="lucid" width="1351.74" height="1160"><g transform="translate(-120 -100)" lucid:page-tab-id="0_0"><path d="M864.5 120c22.08 0 40 13.43 40 30s-17.92 30-40 30h-120c-22.1 0-40-13.43-40-30s17.9-30 40-30z" stroke="#5e5e5e" stroke-width="3" fill="#fff"/><use xlink:href="#a" transform="matrix(1,0,0,1,709.4935691104815,125) translate(69.1358024691358 30.27777777777778)"/><path d="M864.5 1180c22.08 0 40 13.43 40 30s-17.92 30-40 30h-120c-22.1 0-40-13.43-40-30s17.9-30 40-30z" stroke="#5e5e5e" stroke-width="3" fill="#fff"/><use xlink:href="#b" transform="matrix(1,0,0,1,709.4935691104815,1185) translate(79.62962962962963 30.27777777777778)"/><path d="M674.5 246a6 6 0 0 1 6-6h248a6 6 0 0 1 6 6v48a6 6 0 0 1-6 6h-248a6 6 0 0 1-6-6z" stroke="#5e5e5e" stroke-width="3" fill="#fff"/><path d="M700.5 240v60m208-60v60" stroke="#5e5e5e" stroke-width="3" fill="none"/><use xlink:href="#c" transform="matrix(1,0,0,1,711.9935691104815,245) translate(6.234567901234556 17.77777777777778)"/><use xlink:href="#d" transform="matrix(1,0,0,1,711.9935691104815,245) translate(149.19753086419755 17.77777777777778)"/><use xlink:href="#e" transform="matrix(1,0,0,1,711.9935691104815,245) translate(9.96913580246914 44.44444444444444)"/><path d="M804.5 182.5v37.53" stroke="#5e5e5e" stroke-width="2" fill="none"/><path d="M805.5 182.53h-2v-1.03h2z" stroke="#5e5e5e" stroke-width=".05" fill="#5e5e5e"/><path d="M804.5 235.3l-4.64-14.27h9.27z" stroke="#5e5e5e" stroke-width="2" fill="#5e5e5e"/><path d="M680 506a6 6 0 0 1 6-6h237a6 6 0 0 1 6 6v68a6 6 0 0 1-6 6H686a6 6 0 0 1-6-6z" stroke="#5e5e5e" stroke-width="3" fill="#fff"/><use xlink:href="#f" transform="matrix(1,0,0,1,692,512) translate(11.975308641975317 21.34027777777778)"/><use xlink:href="#g" transform="matrix(1,0,0,1,692,512) translate(88.45679012345678 21.34027777777778)"/><use xlink:href="#h" transform="matrix(1,0,0,1,692,512) translate(119.32098765432099 21.34027777777778)"/><use xlink:href="#g" transform="matrix(1,0,0,1,692,512) translate(53.858024691358025 48.00694444444444)"/><use xlink:href="#i" transform="matrix(1,0,0,1,692,512) translate(84.72222222222223 48.00694444444444)"/><use xlink:href="#j" transform="matrix(1,0,0,1,692,512) translate(115.58641975308642 48.00694444444444)"/><path d="M255.2 743.6a8 8 0 0 1 9.6 0l110.4 82.8a4.5 4.5 0 0 1 0 7.2l-110.4 82.8a8 8 0 0 1-9.6 0l-110.4-82.8a4.5 4.5 0 0 1 0-7.2z" stroke="#5e5e5e" stroke-width="3" fill="#fff"/><use xlink:href="#k" transform="matrix(1,0,0,1,145,745) translate(79.2333950617284 60.27777777777778)"/><use xlink:href="#l" transform="matrix(1,0,0,1,145,745) translate(126.08524691358025 60.27777777777778)"/><use xlink:href="#m" transform="matrix(1,0,0,1,145,745) translate(29.85067901234569 86.94444444444446)"/><use xlink:href="#i" transform="matrix(1,0,0,1,145,745) translate(113.73956790123458 86.94444444444446)"/><use xlink:href="#n" transform="matrix(1,0,0,1,145,745) translate(144.60376543209878 86.94444444444446)"/><use xlink:href="#g" transform="matrix(1,0,0,1,145,745) translate(50.22104938271605 113.61111111111111)"/><use xlink:href="#o" transform="matrix(1,0,0,1,145,745) translate(81.08524691358025 113.61111111111111)"/><path d="M140 986a6 6 0 0 1 6-6h228a6 6 0 0 1 6 6v68a6 6 0 0 1-6 6H146a6 6 0 0 1-6-6z" stroke="#5e5e5e" stroke-width="3" fill="#fff"/><use xlink:href="#p" transform="matrix(1,0,0,1,152,992) translate(1.9506172839506064 21.27777777777778)"/><use xlink:href="#q" transform="matrix(1,0,0,1,152,992) translate(104.29629629629628 21.27777777777778)"/><use xlink:href="#r" transform="matrix(1,0,0,1,152,992) translate(127.69135802469134 21.27777777777778)"/><use xlink:href="#s" transform="matrix(1,0,0,1,152,992) translate(45.74691358024691 47.94444444444444)"/><path d="M261 960.03h-2v-.34h2zm0-21.68h-2V920.5h2z" stroke="#5e5e5e" stroke-width=".05" fill="#5e5e5e"/><path d="M260 919.5l1-.06v1.1h-2v-1.1z" fill="#5e5e5e"/><path d="M260 919.48l1.02-.07v1.15h-2.04v-1.14zm-.98 1.02h1.96v-1.03l-.98.06-.98-.06z" stroke="#5e5e5e" stroke-width=".05" fill="#5e5e5e"/><path d="M260 975.3l-4.64-14.27h9.28z" fill="#5e5e5e"/><path d="M260 978.54l-6-18.5h12zm-3.26-16.5l3.26 10.02 3.26-10.03z" stroke="#5e5e5e" stroke-width=".05" fill="#5e5e5e"/><use xlink:href="#t" transform="matrix(1,0,0,1,251.60493827160494,938.3532917052099) translate(0.005000000000000782 14.222222222222223)"/><path d="M607.38 743.5a8.33 8.33 0 0 1 9.74 0l115.26 83a4.32 4.32 0 0 1 0 7l-115.26 83a8.33 8.33 0 0 1-9.74 0l-115.26-83a4.32 4.32 0 0 1 0-7z" stroke="#5e5e5e" stroke-width="3" fill="#fff"/><use xlink:href="#k" transform="matrix(1,0,0,1,492.24678455524077,745) translate(84.2333950617284 60.27777777777778)"/><use xlink:href="#l" transform="matrix(1,0,0,1,492.24678455524077,745) translate(131.08524691358025 60.27777777777778)"/><use xlink:href="#m" transform="matrix(1,0,0,1,492.24678455524077,745) translate(19.41858024691359 86.94444444444446)"/><use xlink:href="#i" transform="matrix(1,0,0,1,492.24678455524077,745) translate(103.30746913580248 86.94444444444446)"/><use xlink:href="#u" transform="matrix(1,0,0,1,492.24678455524077,745) translate(134.17166666666668 86.94444444444446)"/><use xlink:href="#v" transform="matrix(1,0,0,1,492.24678455524077,745) translate(195.90006172839503 86.94444444444446)"/><use xlink:href="#w" transform="matrix(1,0,0,1,492.24678455524077,745) translate(55.251913580246914 113.61111111111111)"/><path d="M489 986a6 6 0 0 1 6-6h238a6 6 0 0 1 6 6v68a6 6 0 0 1-6 6H495a6 6 0 0 1-6-6z" stroke="#5e5e5e" stroke-width="3" fill="#fff"/><use xlink:href="#x" transform="matrix(1,0,0,1,500.98713836280467,992) translate(37.22839506172839 21.27777777777778)"/><use xlink:href="#y" transform="matrix(1,0,0,1,500.98713836280467,992) translate(171.54938271604937 21.27777777777778)"/><use xlink:href="#z" transform="matrix(1,0,0,1,500.98713836280467,992) translate(4.481481481481467 47.94444444444444)"/><use xlink:href="#s" transform="matrix(1,0,0,1,500.98713836280467,992) translate(97.01234567901234 47.94444444444444)"/><path d="M615 960.03h-2v-.3h2zm-1.75-21.64h-2v-17.83h2z" stroke="#5e5e5e" stroke-width=".05" fill="#5e5e5e"/><path d="M612.25 919.57l1-.06v1.1h-2v-1.1z" fill="#5e5e5e"/><path d="M612.25 919.54l1.02-.06v1.14h-2.05v-1.14zm-.98 1.03h1.95v-1.04l-.97.06-.98-.07z" stroke="#5e5e5e" stroke-width=".05" fill="#5e5e5e"/><path d="M614 975.3l-4.65-14.27h9.27z" fill="#5e5e5e"/><path d="M614 978.54l-6.02-18.5H620zm-3.27-16.5l3.26 10.02 3.25-10.03z" stroke="#5e5e5e" stroke-width=".05" fill="#5e5e5e"/><use xlink:href="#t" transform="matrix(1,0,0,1,604.7218997306278,938.3855620167559) translate(0.005000000000000782 14.222222222222223)"/><path d="M959.7 743.6a8 8 0 0 1 9.6 0l110.4 82.8a4.5 4.5 0 0 1 0 7.2l-110.4 82.8a8 8 0 0 1-9.6 0l-110.4-82.8a4.5 4.5 0 0 1 0-7.2z" stroke="#5e5e5e" stroke-width="3" fill="#fff"/><use xlink:href="#A" transform="matrix(1,0,0,1,849.4935691814024,745) translate(79.2333950617284 60.27777777777778)"/><use xlink:href="#B" transform="matrix(1,0,0,1,849.4935691814024,745) translate(126.08524691358025 60.27777777777778)"/><use xlink:href="#C" transform="matrix(1,0,0,1,849.4935691814024,745) translate(18.153148148148144 86.94444444444446)"/><use xlink:href="#q" transform="matrix(1,0,0,1,849.4935691814024,745) translate(102.04203703703703 86.94444444444446)"/><use xlink:href="#D" transform="matrix(1,0,0,1,849.4935691814024,745) translate(125.4370987654321 86.94444444444446)"/><use xlink:href="#E" transform="matrix(1,0,0,1,849.4935691814024,745) translate(187.1654938271605 86.94444444444446)"/><use xlink:href="#F" transform="matrix(1,0,0,1,849.4935691814024,745) translate(61.94944444444443 113.61111111111111)"/><path d="M824.5 986a6 6 0 0 1 6-6h268a6 6 0 0 1 6 6v68a6 6 0 0 1-6 6h-268a6 6 0 0 1-6-6z" stroke="#5e5e5e" stroke-width="3" fill="#fff"/><use xlink:href="#G" transform="matrix(1,0,0,1,836.4935691814024,992) translate(42.35185185185185 21.27777777777778)"/><use xlink:href="#H" transform="matrix(1,0,0,1,836.4935691814024,992) translate(129.8827160493827 21.27777777777778)"/><use xlink:href="#I" transform="matrix(1,0,0,1,836.4935691814024,992) translate(184.08024691358025 21.27777777777778)"/><use xlink:href="#z" transform="matrix(1,0,0,1,836.4935691814024,992) translate(6.518518518518519 47.94444444444444)"/><use xlink:href="#J" transform="matrix(1,0,0,1,836.4935691814024,992) translate(99.0493827160494 47.94444444444444)"/><use xlink:href="#K" transform="matrix(1,0,0,1,836.4935691814024,992) translate(129.91358024691357 47.94444444444444)"/><use xlink:href="#L" transform="matrix(1,0,0,1,836.4935691814024,992) translate(153.30864197530866 47.94444444444444)"/><path d="M965.5 960.03h-2v-.34h2zm0-21.68h-2V920.5h2z" stroke="#5e5e5e" stroke-width=".05" fill="#5e5e5e"/><path d="M964.5 919.5l1-.06v1.1h-2v-1.1z" fill="#5e5e5e"/><path d="M964.5 919.48l1.02-.07v1.15h-2.05v-1.14zm-.98 1.02h1.95v-1.03l-.98.06-.98-.06z" stroke="#5e5e5e" stroke-width=".05" fill="#5e5e5e"/><path d="M964.5 975.3l-4.64-14.27h9.27z" fill="#5e5e5e"/><path d="M964.5 978.54l-6.02-18.5h12.03zm-3.27-16.5l3.26 10.02 3.25-10.03z" stroke="#5e5e5e" stroke-width=".05" fill="#5e5e5e"/><use xlink:href="#t" transform="matrix(1,0,0,1,956.0985074530074,938.3533029899539) translate(0.005000000000000782 14.222222222222223)"/><path d="M804.5 582.46v72.5a6 6 0 0 1-6 6H618.24a6 6 0 0 0-6 6v54.97" stroke="#5e5e5e" stroke-width="2" fill="none"/><path d="M805.5 582.5h-2v-1.04h2z" stroke="#5e5e5e" stroke-width=".05" fill="#5e5e5e"/><path d="M612.25 737.2l-4.64-14.27h9.28z" stroke="#5e5e5e" stroke-width="2" fill="#5e5e5e"/><path d="M805.5 655.02l-.1 1.06-.25 1.06-.42 1.02-.57.94-.7.83-.85.72-.93.57-1 .42-1.12.27-533.5.08-.83.06-.76.2-.73.3-.67.4-.6.5-.5.6-.4.67-.3.74-.2.72L261 722h-2l.07-56.08.27-1.1.42-1.02.57-.94.72-.83.83-.72.94-.56 1.02-.42 1.06-.26 1.06-.08 533.35-.07.74-.17.72-.3.67-.4.6-.52.5-.58.42-.67.3-.73.18-.76.06-.82v-72.48h2z" stroke="#5e5e5e" stroke-width=".05" fill="#5e5e5e"/><path d="M805.5 582.5h-2v-1.04h2z" fill="#5e5e5e"/><path d="M805.52 582.5h-2.05v-1.06h2.05zm-2-1v.96h1.95v-.97z" stroke="#5e5e5e" stroke-width=".05" fill="#5e5e5e"/><path d="M260 737.26L255.36 723h9.28z" fill="#5e5e5e"/><path d="M260 740.5l-6-18.5h12zm-3.26-16.5l3.26 10.02 3.26-10.02z" stroke="#5e5e5e" stroke-width=".05" fill="#5e5e5e"/><path d="M804.5 582.46v72.52a6 6 0 0 0 6 6h148a6 6 0 0 1 6 6v55" stroke="#5e5e5e" stroke-width="2" fill="none"/><path d="M805.5 582.5h-2v-1.04h2z" stroke="#5e5e5e" stroke-width=".05" fill="#5e5e5e"/><path d="M964.5 737.26L959.85 723h9.27z" stroke="#5e5e5e" stroke-width="2" fill="#5e5e5e"/><path d="M614 1062.46v51.52a6 6 0 0 0 6 6h178.5a6 6 0 0 1 6 6V1160" stroke="#5e5e5e" stroke-width="2" fill="none"/><path d="M615 1062.5h-2v-1.04h2z" stroke="#5e5e5e" stroke-width=".05" fill="#5e5e5e"/><path d="M804.5 1175.26l-4.64-14.26h9.27z" stroke="#5e5e5e" stroke-width="2" fill="#5e5e5e"/><path d="M260 1062.46v51.52a6 6 0 0 0 6 6h532.5a6 6 0 0 1 6 6V1160" stroke="#5e5e5e" stroke-width="2" fill="none"/><path d="M261 1062.5h-2v-1.04h2z" stroke="#5e5e5e" stroke-width=".05" fill="#5e5e5e"/><path d="M804.5 1175.26l-4.64-14.26h9.27z" stroke="#5e5e5e" stroke-width="2" fill="#5e5e5e"/><path d="M964.5 1062.46v51.52a6 6 0 0 1-6 6h-148a6 6 0 0 0-6 6V1160" stroke="#5e5e5e" stroke-width="2" fill="none"/><path d="M965.5 1062.5h-2v-1.04h2z" stroke="#5e5e5e" stroke-width=".05" fill="#5e5e5e"/><path d="M804.5 1175.26l-4.64-14.26h9.27z" stroke="#5e5e5e" stroke-width="2" fill="#5e5e5e"/><path d="M1306.94 743.6a8 8 0 0 1 9.6 0l110.4 82.8a4.5 4.5 0 0 1 0 7.2l-110.4 82.8a8 8 0 0 1-9.6 0l-110.4-82.8a4.5 4.5 0 0 1 0-7.2z" stroke="#5e5e5e" stroke-width="3" fill="#fff"/><use xlink:href="#A" transform="matrix(1,0,0,1,1196.740353736643,745) translate(79.2333950617284 60.27777777777778)"/><use xlink:href="#B" transform="matrix(1,0,0,1,1196.740353736643,745) translate(126.08524691358025 60.27777777777778)"/><use xlink:href="#C" transform="matrix(1,0,0,1,1196.740353736643,745) translate(18.153148148148144 86.94444444444446)"/><use xlink:href="#q" transform="matrix(1,0,0,1,1196.740353736643,745) translate(102.04203703703703 86.94444444444446)"/><use xlink:href="#D" transform="matrix(1,0,0,1,1196.740353736643,745) translate(125.4370987654321 86.94444444444446)"/><use xlink:href="#E" transform="matrix(1,0,0,1,1196.740353736643,745) translate(187.1654938271605 86.94444444444446)"/><use xlink:href="#M" transform="matrix(1,0,0,1,1196.740353736643,745) translate(68.73956790123455 113.61111111111111)"/><path d="M1171.74 986a6 6 0 0 1 6-6h268a6 6 0 0 1 6 6v68a6 6 0 0 1-6 6h-268a6 6 0 0 1-6-6z" stroke="#5e5e5e" stroke-width="3" fill="#fff"/><use xlink:href="#N" transform="matrix(1,0,0,1,1183.740353736643,992) translate(1.6419753086419604 21.27777777777778)"/><use xlink:href="#H" transform="matrix(1,0,0,1,1183.740353736643,992) translate(75.53086419753085 21.27777777777778)"/><use xlink:href="#O" transform="matrix(1,0,0,1,1183.740353736643,992) translate(129.7283950617284 21.27777777777778)"/><use xlink:href="#E" transform="matrix(1,0,0,1,1183.740353736643,992) translate(229.66666666666669 21.27777777777778)"/><use xlink:href="#K" transform="matrix(1,0,0,1,1183.740353736643,992) translate(68.21604938271605 47.94444444444444)"/><use xlink:href="#L" transform="matrix(1,0,0,1,1183.740353736643,992) translate(91.61111111111111 47.94444444444444)"/><path d="M1311.74 1062.46v51.52a6 6 0 0 1-6 6H810.5a6 6 0 0 0-6 6V1160" stroke="#5e5e5e" stroke-width="2" fill="none"/><path d="M1312.74 1062.5h-2v-1.04h2z" stroke="#5e5e5e" stroke-width=".05" fill="#5e5e5e"/><path d="M804.5 1175.26l-4.64-14.26h9.27z" stroke="#5e5e5e" stroke-width="2" fill="#5e5e5e"/><path d="M1312.74 960.03h-2v-.34h2zm0-21.68h-2V920.5h2z" stroke="#5e5e5e" stroke-width=".05" fill="#5e5e5e"/><path d="M1311.74 919.5l1-.06v1.1h-2v-1.1z" fill="#5e5e5e"/><path d="M1311.74 919.48l1.03-.07v1.15h-2.05v-1.14zm-.97 1.02h1.95v-1.03l-.98.06-.97-.06z" stroke="#5e5e5e" stroke-width=".05" fill="#5e5e5e"/><path d="M1311.74 975.3l-4.63-14.27h9.28z" fill="#5e5e5e"/><path d="M1311.74 978.54l-6-18.5h12zm-3.26-16.5l3.26 10.02 3.26-10.03z" stroke="#5e5e5e" stroke-width=".05" fill="#5e5e5e"/><g><use xlink:href="#P" transform="matrix(1,0,0,1,1303.345292008248,938.3533029899539) translate(0.005000000000000782 14.222222222222223)"/></g><path d="M805.5 654.94l.06.82.18.76.3.73.4.67.52.6.6.5.67.4.72.3.72.2 496.1.06 1.07.08 1.06.26 1.02.42.94.57.83.73.7.83.58.94.42 1.02.27 1.1.07 56.07h-2l-.07-55.84-.18-.72-.3-.73-.42-.66-.5-.6-.6-.5-.67-.4-.72-.3-.76-.2-.82-.06-496.26-.07-1.1-.26-1.03-.42-.92-.57-.84-.72-.7-.83-.6-.94-.4-1.02-.26-1.06-.1-1.06v-72.56h2z" stroke="#5e5e5e" stroke-width=".05" fill="#5e5e5e"/><path d="M805.5 582.5h-2v-1.04h2z" fill="#5e5e5e"/><path d="M805.52 582.5h-2.05v-1.06h2.05zm-2-1v.96h1.95v-.97z" stroke="#5e5e5e" stroke-width=".05" fill="#5e5e5e"/><path d="M1311.74 737.26L1307.1 723h9.28z" fill="#5e5e5e"/><path d="M1311.74 740.5l-6-18.5h12zm-3.26-16.5l3.26 10.02L1315 724z" stroke="#5e5e5e" stroke-width=".05" fill="#5e5e5e"/><path d="M680 366a6 6 0 0 1 6-6h237a6 6 0 0 1 6 6v68a6 6 0 0 1-6 6H686a6 6 0 0 1-6-6z" stroke="#5e5e5e" stroke-width="3" fill="#fff"/><g><use xlink:href="#Q" transform="matrix(1,0,0,1,692,372) translate(3.456790123456784 21.34027777777778)"/><use xlink:href="#q" transform="matrix(1,0,0,1,692,372) translate(84.75308641975309 21.34027777777778)"/><use xlink:href="#H" transform="matrix(1,0,0,1,692,372) translate(108.14814814814815 21.34027777777778)"/><use xlink:href="#R" transform="matrix(1,0,0,1,692,372) translate(162.3456790123457 21.34027777777778)"/><use xlink:href="#S" transform="matrix(1,0,0,1,692,372) translate(51.450617283950606 48.00694444444444)"/><use xlink:href="#T" transform="matrix(1,0,0,1,692,372) translate(87.19135802469134 48.00694444444444)"/></g><path d="M804.5 302.46v37.57" stroke="#5e5e5e" stroke-width="2" fill="none"/><path d="M805.5 302.5h-2v-1.04h2z" stroke="#5e5e5e" stroke-width=".05" fill="#5e5e5e"/><path d="M804.5 355.3l-4.64-14.27h9.27z" stroke="#5e5e5e" stroke-width="2" fill="#5e5e5e"/><path d="M804.5 442.46v37.57" stroke="#5e5e5e" stroke-width="2" fill="none"/><path d="M805.5 442.5h-2v-1.04h2z" stroke="#5e5e5e" stroke-width=".05" fill="#5e5e5e"/><path d="M804.5 495.3l-4.64-14.27h9.27z" stroke="#5e5e5e" stroke-width="2" fill="#5e5e5e"/><path d="M430.93 825.06l-.27 1.1-.42 1.02-.57.94-.72.83-.83.72-.94.57-1.02.42-1.06.26-1.06.08H379.5v-2h44.46l.82-.06.76-.2.73-.3.67-.4.6-.5.5-.6.4-.67.3-.73.2-.72v-84.15h2zM660.03 541l-224.85.07-.72.18-.73.3-.67.4-.6.52-.5.6-.4.66-.3.73-.2.76-.06.82-.05 173.3h-2l.05-173.38.08-1.06.26-1.06.42-1.02.57-.94.72-.83.83-.72.94-.57 1.02-.42 1.1-.27 225.1-.07z" stroke="#5e5e5e" stroke-width=".05" fill="#5e5e5e"/><path d="M379.53 831h-1.12l.1-1-.1-1h1.13z" fill="#5e5e5e"/><path d="M379.56 831.02h-1.17l.08-1.02-.1-1.02h1.18zm-1.12-2l.1.98-.1.98h1.07V829z" stroke="#5e5e5e" stroke-width=".05" fill="#5e5e5e"/><path d="M675.3 540l-14.27 4.64v-9.28z" fill="#5e5e5e"/><path d="M678.54 540l-18.5 6v-12zm-16.5 3.26l10.02-3.26-10.03-3.26z" stroke="#5e5e5e" stroke-width=".05" fill="#5e5e5e"/><g><use xlink:href="#U" transform="matrix(1,0,0,1,418.1975308641975,719.3333333333334) translate(0.005000000000000782 14.222222222222223)"/></g><path d="M431.07 824.82l.18.72.3.73.4.67.52.6.6.5.66.4.73.3.76.2.82.06h51.77v2h-51.84l-1.06-.08-1.06-.26-1.02-.42-.94-.57-.83-.72-.72-.83-.57-.94-.42-1.02-.27-1.1-.02-84.4h2zM660.03 541l-224.85.07-.72.18-.73.3-.67.4-.6.52-.5.6-.4.66-.3.73-.2.76-.06.82.05 173.3h-2L429 545.95l.08-1.06.26-1.06.42-1.02.57-.94.72-.83.83-.72.94-.57 1.02-.42 1.1-.27 225.1-.07z" stroke="#5e5e5e" stroke-width=".05" fill="#5e5e5e"/><path d="M488.8 830l.1 1h-1.1v-2h1.1z" fill="#5e5e5e"/><path d="M488.84 830l.1 1.02h-1.18V829h1.18zm-1.03-.98V831h1.08l-.1-.98.1-.98z" stroke="#5e5e5e" stroke-width=".05" fill="#5e5e5e"/><path d="M675.3 540l-14.27 4.64v-9.28z" fill="#5e5e5e"/><path d="M678.54 540l-18.5 6v-12zm-16.5 3.26l10.02-3.26-10.03-3.26zM1130.93 825.06l-.27 1.1-.42 1.02-.57.94-.72.83-.83.72-.94.57-1.02.42-1.06.26-1.06.08H1084v-2h39.96l.82-.06.76-.2.73-.3.67-.4.6-.5.5-.6.4-.67.3-.73.2-.72v-81.15h2zm-5.87-286l1.1.28 1.02.42.94.57.83.72.72.83.57.94.42 1.02.26 1.06.08 1.06-.05 176.37h-2l.05-176.3-.06-.8-.2-.77-.3-.73-.4-.67-.5-.6-.6-.5-.67-.4-.73-.3-.72-.2-175.87-.06v-2z" stroke="#5e5e5e" stroke-width=".05" fill="#5e5e5e"/><path d="M1084.03 831h-1.12l.1-1-.1-1h1.13z" fill="#5e5e5e"/><path d="M1084.05 831.02h-1.17l.1-1.02-.1-1.02h1.17zm-1.12-2l.1.98-.1.98h1.07V829z" stroke="#5e5e5e" stroke-width=".05" fill="#5e5e5e"/><path d="M947.95 544.64L933.7 540l14.25-4.64z" fill="#5e5e5e"/><path d="M948.95 546l-18.5-6 18.5-6zm-12.03-6l10.03 3.26v-6.52z" stroke="#5e5e5e" stroke-width=".05" fill="#5e5e5e"/><g><use xlink:href="#U" transform="matrix(1,0,0,1,1118.1975308641975,722.3333333333334) translate(0.005000000000000782 14.222222222222223)"/></g><path d="M1131.07 824.82l.18.72.3.73.4.67.52.6.6.5.66.4.73.3.76.2.82.06h56.2v2h-56.28l-1.06-.08-1.06-.26-1.02-.42-.94-.57-.83-.72-.72-.83-.57-.94-.42-1.02-.27-1.1-.02-81.4h2zm-6-285.75l1.1.27 1 .42.95.57.83.72.72.83.57.94.42 1.02.26 1.06.08 1.06.05 176.37h-2l-.05-176.3-.06-.8-.2-.77-.3-.73-.4-.67-.5-.6-.6-.5-.67-.4-.73-.3-.72-.2-175.87-.06v-2z" stroke="#5e5e5e" stroke-width=".05" fill="#5e5e5e"/><path d="M1193.23 830l.1 1h-1.12v-2h1.13z" fill="#5e5e5e"/><path d="M1193.26 830l.1 1.02h-1.18V829h1.17zm-1.03-.98V831h1.07l-.1-.98.1-.98z" stroke="#5e5e5e" stroke-width=".05" fill="#5e5e5e"/><path d="M947.95 544.64L933.7 540l14.25-4.64z" fill="#5e5e5e"/><path d="M948.95 546l-18.5-6 18.5-6zm-12.03-6l10.03 3.26v-6.52z" stroke="#5e5e5e" stroke-width=".05" fill="#5e5e5e"/><defs><path fill="#333" d="M33 0v-248h34V0H33" id="V"/><path fill="#333" d="M117-194c89-4 53 116 60 194h-32v-121c0-31-8-49-39-48C34-167 62-67 57 0H25l-1-190h30c1 10-1 24 2 32 11-22 29-35 61-36" id="W"/><path fill="#333" d="M24-231v-30h32v30H24zM24 0v-190h32V0H24" id="X"/><path fill="#333" d="M96-169c-40 0-48 33-48 73s9 75 48 75c24 0 41-14 43-38l32 2c-6 37-31 61-74 61-59 0-76-41-82-99-10-93 101-131 147-64 4 7 5 14 7 22l-32 3c-4-21-16-35-41-35" id="Y"/><path fill="#333" d="M100-194c62-1 85 37 85 99 1 63-27 99-86 99S16-35 15-95c0-66 28-99 85-99zM99-20c44 1 53-31 53-75 0-43-8-75-51-75s-53 32-53 75 10 74 51 75" id="Z"/><g id="a"><use transform="matrix(0.06172839506172839,0,0,0.06172839506172839,0,0)" xlink:href="#V"/><use transform="matrix(0.06172839506172839,0,0,0.06172839506172839,6.172839506172839,0)" xlink:href="#W"/><use transform="matrix(0.06172839506172839,0,0,0.06172839506172839,18.51851851851852,0)" xlink:href="#X"/><use transform="matrix(0.06172839506172839,0,0,0.06172839506172839,23.395061728395063,0)" xlink:href="#Y"/><use transform="matrix(0.06172839506172839,0,0,0.06172839506172839,34.50617283950618,0)" xlink:href="#X"/><use transform="matrix(0.06172839506172839,0,0,0.06172839506172839,39.38271604938272,0)" xlink:href="#Z"/></g><path fill="#333" d="M63-220v92h138v28H63V0H30v-248h175v28H63" id="aa"/><g id="b"><use transform="matrix(0.06172839506172839,0,0,0.06172839506172839,0,0)" xlink:href="#aa"/><use transform="matrix(0.06172839506172839,0,0,0.06172839506172839,13.518518518518517,0)" xlink:href="#X"/><use transform="matrix(0.06172839506172839,0,0,0.06172839506172839,18.39506172839506,0)" xlink:href="#W"/></g><path fill="#333" d="M212-179c-10-28-35-45-73-45-59 0-87 40-87 99 0 60 29 101 89 101 43 0 62-24 78-52l27 14C228-24 195 4 139 4 59 4 22-46 18-125c-6-104 99-153 187-111 19 9 31 26 39 46" id="ab"/><path fill="#333" d="M101-234c-31-9-42 10-38 44h38v23H63V0H32v-167H5v-23h27c-7-52 17-82 69-68v24" id="ac"/><path fill="#333" d="M177-190C167-65 218 103 67 71c-23-6-38-20-44-43l32-5c15 47 100 32 89-28v-30C133-14 115 1 83 1 29 1 15-40 15-95c0-56 16-97 71-98 29-1 48 16 59 35 1-10 0-23 2-32h30zM94-22c36 0 50-32 50-73 0-42-14-75-50-75-39 0-46 34-46 75s6 73 46 73" id="ad"/><path fill="#333" d="M84 4C-5 8 30-112 23-190h32v120c0 31 7 50 39 49 72-2 45-101 50-169h31l1 190h-30c-1-10 1-25-2-33-11 22-28 36-60 37" id="ae"/><path fill="#333" d="M114-163C36-179 61-72 57 0H25l-1-190h30c1 12-1 29 2 39 6-27 23-49 58-41v29" id="af"/><path fill="#333" d="M141-36C126-15 110 5 73 4 37 3 15-17 15-53c-1-64 63-63 125-63 3-35-9-54-41-54-24 1-41 7-42 31l-33-3c5-37 33-52 76-52 45 0 72 20 72 64v82c-1 20 7 32 28 27v20c-31 9-61-2-59-35zM48-53c0 20 12 33 32 33 41-3 63-29 60-74-43 2-92-5-92 41" id="ag"/><path fill="#333" d="M100-194c62-1 85 37 85 99 1 63-27 99-86 99S16-35 15-95c0-66 28-99 85-99zM99-20c44 1 53-31 53-75 0-43-8-75-51-75s-53 32-53 75 10 74 51 75zM76-211c8-23 27-35 38-54h36v5l-58 49H76" id="ah"/><g id="c"><use transform="matrix(0.06172839506172839,0,0,0.06172839506172839,0,0)" xlink:href="#ab"/><use transform="matrix(0.06172839506172839,0,0,0.06172839506172839,15.987654320987653,0)" xlink:href="#Z"/><use transform="matrix(0.06172839506172839,0,0,0.06172839506172839,28.333333333333332,0)" xlink:href="#W"/><use transform="matrix(0.06172839506172839,0,0,0.06172839506172839,40.67901234567901,0)" xlink:href="#ac"/><use transform="matrix(0.06172839506172839,0,0,0.06172839506172839,46.851851851851855,0)" xlink:href="#X"/><use transform="matrix(0.06172839506172839,0,0,0.06172839506172839,51.7283950617284,0)" xlink:href="#ad"/><use transform="matrix(0.06172839506172839,0,0,0.06172839506172839,64.07407407407408,0)" xlink:href="#ae"/><use transform="matrix(0.06172839506172839,0,0,0.06172839506172839,76.41975308641976,0)" xlink:href="#af"/><use transform="matrix(0.06172839506172839,0,0,0.06172839506172839,83.76543209876544,0)" xlink:href="#ag"/><use transform="matrix(0.06172839506172839,0,0,0.06172839506172839,96.11111111111113,0)" xlink:href="#Y"/><use transform="matrix(0.06172839506172839,0,0,0.06172839506172839,107.22222222222224,0)" xlink:href="#X"/><use transform="matrix(0.06172839506172839,0,0,0.06172839506172839,112.09876543209879,0)" xlink:href="#ah"/><use transform="matrix(0.06172839506172839,0,0,0.06172839506172839,124.44444444444447,0)" xlink:href="#W"/></g><path fill="#333" d="M85-194c31 0 48 13 60 33l-1-100h32l1 261h-30c-2-10 0-23-3-31C134-8 116 4 85 4 32 4 16-35 15-94c0-66 23-100 70-100zm9 24c-40 0-46 34-46 75 0 40 6 74 45 74 42 0 51-32 51-76 0-42-9-74-50-73" id="ai"/><path fill="#333" d="M100-194c63 0 86 42 84 106H49c0 40 14 67 53 68 26 1 43-12 49-29l28 8c-11 28-37 45-77 45C44 4 14-33 15-96c1-61 26-98 85-98zm52 81c6-60-76-77-97-28-3 7-6 17-6 28h103" id="aj"/><path fill="#333" d="M24 0v-261h32V0H24" id="ak"/><g id="d"><use transform="matrix(0.06172839506172839,0,0,0.06172839506172839,0,0)" xlink:href="#ai"/><use transform="matrix(0.06172839506172839,0,0,0.06172839506172839,12.345679012345679,0)" xlink:href="#aj"/><use transform="matrix(0.06172839506172839,0,0,0.06172839506172839,24.691358024691358,0)" xlink:href="#ak"/></g><path fill="#333" d="M210-169c-67 3-38 105-44 169h-31v-121c0-29-5-50-35-48C34-165 62-65 56 0H25l-1-190h30c1 10-1 24 2 32 10-44 99-50 107 0 11-21 27-35 58-36 85-2 47 119 55 194h-31v-121c0-29-5-49-35-48" id="al"/><path fill="#333" d="M59-47c-2 24 18 29 38 22v24C64 9 27 4 27-40v-127H5v-23h24l9-43h21v43h35v23H59v120" id="am"/><g id="e"><use transform="matrix(0.06172839506172839,0,0,0.06172839506172839,0,0)" xlink:href="#al"/><use transform="matrix(0.06172839506172839,0,0,0.06172839506172839,18.456790123456788,0)" xlink:href="#X"/><use transform="matrix(0.06172839506172839,0,0,0.06172839506172839,23.33333333333333,0)" xlink:href="#Y"/><use transform="matrix(0.06172839506172839,0,0,0.06172839506172839,34.44444444444444,0)" xlink:href="#af"/><use transform="matrix(0.06172839506172839,0,0,0.06172839506172839,41.79012345679012,0)" xlink:href="#Z"/><use transform="matrix(0.06172839506172839,0,0,0.06172839506172839,54.1358024691358,0)" xlink:href="#Y"/><use transform="matrix(0.06172839506172839,0,0,0.06172839506172839,65.24691358024691,0)" xlink:href="#Z"/><use transform="matrix(0.06172839506172839,0,0,0.06172839506172839,77.5925925925926,0)" xlink:href="#W"/><use transform="matrix(0.06172839506172839,0,0,0.06172839506172839,89.93827160493828,0)" xlink:href="#am"/><use transform="matrix(0.06172839506172839,0,0,0.06172839506172839,96.11111111111111,0)" xlink:href="#af"/><use transform="matrix(0.06172839506172839,0,0,0.06172839506172839,103.4567901234568,0)" xlink:href="#Z"/><use transform="matrix(0.06172839506172839,0,0,0.06172839506172839,115.80246913580248,0)" xlink:href="#ak"/><use transform="matrix(0.06172839506172839,0,0,0.06172839506172839,120.67901234567903,0)" xlink:href="#ag"/><use transform="matrix(0.06172839506172839,0,0,0.06172839506172839,133.0246913580247,0)" xlink:href="#ai"/><use transform="matrix(0.06172839506172839,0,0,0.06172839506172839,145.37037037037038,0)" xlink:href="#Z"/><use transform="matrix(0.06172839506172839,0,0,0.06172839506172839,157.71604938271605,0)" xlink:href="#af"/></g><path fill="#333" d="M30 0v-248h187v28H63v79h144v27H63v87h162V0H30" id="an"/><path fill="#333" d="M135-143c-3-34-86-38-87 0 15 53 115 12 119 90S17 21 10-45l28-5c4 36 97 45 98 0-10-56-113-15-118-90-4-57 82-63 122-42 12 7 21 19 24 35" id="ao"/><path fill="#333" d="M115-194c55 1 70 41 70 98S169 2 115 4C84 4 66-9 55-30l1 105H24l-1-265h31l2 30c10-21 28-34 59-34zm-8 174c40 0 45-34 45-75s-6-73-45-74c-42 0-51 32-51 76 0 43 10 73 51 73" id="ap"/><g id="f"><use transform="matrix(0.06172839506172839,0,0,0.06172839506172839,0,0)" xlink:href="#an"/><use transform="matrix(0.06172839506172839,0,0,0.06172839506172839,14.814814814814813,0)" xlink:href="#ao"/><use transform="matrix(0.06172839506172839,0,0,0.06172839506172839,25.925925925925924,0)" xlink:href="#ap"/><use transform="matrix(0.06172839506172839,0,0,0.06172839506172839,38.2716049382716,0)" xlink:href="#aj"/><use transform="matrix(0.06172839506172839,0,0,0.06172839506172839,50.61728395061728,0)" xlink:href="#af"/><use transform="matrix(0.06172839506172839,0,0,0.06172839506172839,57.962962962962955,0)" xlink:href="#ag"/></g><g id="g"><use transform="matrix(0.06172839506172839,0,0,0.06172839506172839,0,0)" xlink:href="#ai"/><use transform="matrix(0.06172839506172839,0,0,0.06172839506172839,12.345679012345679,0)" xlink:href="#aj"/></g><g id="h"><use transform="matrix(0.06172839506172839,0,0,0.06172839506172839,0,0)" xlink:href="#ap"/><use transform="matrix(0.06172839506172839,0,0,0.06172839506172839,12.345679012345679,0)" xlink:href="#ae"/><use transform="matrix(0.06172839506172839,0,0,0.06172839506172839,24.691358024691358,0)" xlink:href="#ak"/><use transform="matrix(0.06172839506172839,0,0,0.06172839506172839,29.5679012345679,0)" xlink:href="#ao"/><use transform="matrix(0.06172839506172839,0,0,0.06172839506172839,40.67901234567901,0)" xlink:href="#ag"/><use transform="matrix(0.06172839506172839,0,0,0.06172839506172839,53.02469135802469,0)" xlink:href="#Y"/><use transform="matrix(0.06172839506172839,0,0,0.06172839506172839,64.1358024691358,0)" xlink:href="#X"/><use transform="matrix(0.06172839506172839,0,0,0.06172839506172839,69.01234567901234,0)" xlink:href="#ah"/><use transform="matrix(0.06172839506172839,0,0,0.06172839506172839,81.35802469135803,0)" xlink:href="#W"/></g><g id="i"><use transform="matrix(0.06172839506172839,0,0,0.06172839506172839,0,0)" xlink:href="#ae"/><use transform="matrix(0.06172839506172839,0,0,0.06172839506172839,12.345679012345679,0)" xlink:href="#W"/></g><path fill="#333" d="M115-194c53 0 69 39 70 98 0 66-23 100-70 100C84 3 66-7 56-30L54 0H23l1-261h32v101c10-23 28-34 59-34zm-8 174c40 0 45-34 45-75 0-40-5-75-45-74-42 0-51 32-51 76 0 43 10 73 51 73" id="aq"/><g id="j"><use transform="matrix(0.06172839506172839,0,0,0.06172839506172839,0,0)" xlink:href="#aq"/><use transform="matrix(0.06172839506172839,0,0,0.06172839506172839,12.345679012345679,0)" xlink:href="#Z"/><use transform="matrix(0.06172839506172839,0,0,0.06172839506172839,24.691358024691358,0)" xlink:href="#am"/><use transform="matrix(0.06172839506172839,0,0,0.06172839506172839,30.864197530864196,0)" xlink:href="#ah"/><use transform="matrix(0.06172839506172839,0,0,0.06172839506172839,43.20987654320987,0)" xlink:href="#W"/></g><path fill="#333" d="M107 61C57 61 25 39 23-9c-2-65 71-58 78-115h30c1 64-76 54-76 114 0 30 21 42 52 43 32 0 53-17 56-46l32 2c-6 46-36 72-88 72zm26-251v35H99v-35h34" id="ar"/><path fill="#333" d="M185-189c-5-48-123-54-124 2 14 75 158 14 163 119 3 78-121 87-175 55-17-10-28-26-33-46l33-7c5 56 141 63 141-1 0-78-155-14-162-118-5-82 145-84 179-34 5 7 8 16 11 25" id="as"/><g id="k"><use transform="matrix(0.06172839506172839,0,0,0.06172839506172839,0,0)" xlink:href="#ar"/><use transform="matrix(0.06172839506172839,0,0,0.06172839506172839,13.518518518518517,0)" xlink:href="#as"/><use transform="matrix(0.06172839506172839,0,0,0.06172839506172839,28.33333333333333,0)" xlink:href="#aj"/></g><path fill="#333" d="M106-169C34-169 62-67 57 0H25v-261h32l-1 103c12-21 28-36 61-36 89 0 53 116 60 194h-32v-121c2-32-8-49-39-48" id="at"/><g id="l"><use transform="matrix(0.06172839506172839,0,0,0.06172839506172839,0,0)" xlink:href="#at"/><use transform="matrix(0.06172839506172839,0,0,0.06172839506172839,12.345679012345679,0)" xlink:href="#ag"/></g><g id="m"><use transform="matrix(0.06172839506172839,0,0,0.06172839506172839,0,0)" xlink:href="#ap"/><use transform="matrix(0.06172839506172839,0,0,0.06172839506172839,12.345679012345679,0)" xlink:href="#ae"/><use transform="matrix(0.06172839506172839,0,0,0.06172839506172839,24.691358024691358,0)" xlink:href="#ak"/><use transform="matrix(0.06172839506172839,0,0,0.06172839506172839,29.5679012345679,0)" xlink:href="#ao"/><use transform="matrix(0.06172839506172839,0,0,0.06172839506172839,40.67901234567901,0)" xlink:href="#ag"/><use transform="matrix(0.06172839506172839,0,0,0.06172839506172839,53.02469135802469,0)" xlink:href="#ai"/><use transform="matrix(0.06172839506172839,0,0,0.06172839506172839,65.37037037037037,0)" xlink:href="#Z"/></g><g id="n"><use transform="matrix(0.06172839506172839,0,0,0.06172839506172839,0,0)" xlink:href="#aq"/><use transform="matrix(0.06172839506172839,0,0,0.06172839506172839,12.345679012345679,0)" xlink:href="#Z"/><use transform="matrix(0.06172839506172839,0,0,0.06172839506172839,24.691358024691358,0)" xlink:href="#am"/><use transform="matrix(0.06172839506172839,0,0,0.06172839506172839,30.864197530864196,0)" xlink:href="#ah"/><use transform="matrix(0.06172839506172839,0,0,0.06172839506172839,43.20987654320987,0)" xlink:href="#W"/></g><path fill="#333" d="M103-251c84 0 111 97 45 133-19 10-37 24-39 52H78c0-63 77-55 77-114 0-30-21-42-52-43-32 0-53 17-56 46l-32-2c7-45 34-72 88-72zM77 0v-35h34V0H77" id="au"/><g id="o"><use transform="matrix(0.06172839506172839,0,0,0.06172839506172839,0,0)" xlink:href="#ag"/><use transform="matrix(0.06172839506172839,0,0,0.06172839506172839,12.345679012345679,0)" xlink:href="#ae"/><use transform="matrix(0.06172839506172839,0,0,0.06172839506172839,24.691358024691358,0)" xlink:href="#al"/><use transform="matrix(0.06172839506172839,0,0,0.06172839506172839,43.148148148148145,0)" xlink:href="#aj"/><use transform="matrix(0.06172839506172839,0,0,0.06172839506172839,55.49382716049382,0)" xlink:href="#W"/><use transform="matrix(0.06172839506172839,0,0,0.06172839506172839,67.8395061728395,0)" xlink:href="#am"/><use transform="matrix(0.06172839506172839,0,0,0.06172839506172839,74.01234567901234,0)" xlink:href="#Z"/><use transform="matrix(0.06172839506172839,0,0,0.06172839506172839,86.35802469135803,0)" xlink:href="#au"/></g><path fill="#333" d="M205 0l-28-72H64L36 0H1l101-248h38L239 0h-34zm-38-99l-47-123c-12 45-31 82-46 123h93" id="av"/><g id="p"><use transform="matrix(0.06172839506172839,0,0,0.06172839506172839,0,0)" xlink:href="#av"/><use transform="matrix(0.06172839506172839,0,0,0.06172839506172839,14.814814814814813,0)" xlink:href="#ae"/><use transform="matrix(0.06172839506172839,0,0,0.06172839506172839,27.160493827160494,0)" xlink:href="#al"/><use transform="matrix(0.06172839506172839,0,0,0.06172839506172839,45.61728395061728,0)" xlink:href="#aj"/><use transform="matrix(0.06172839506172839,0,0,0.06172839506172839,57.962962962962955,0)" xlink:href="#W"/><use transform="matrix(0.06172839506172839,0,0,0.06172839506172839,70.30864197530863,0)" xlink:href="#am"/><use transform="matrix(0.06172839506172839,0,0,0.06172839506172839,76.48148148148147,0)" xlink:href="#ag"/><use transform="matrix(0.06172839506172839,0,0,0.06172839506172839,88.82716049382715,0)" xlink:href="#af"/></g><g id="q"><use transform="matrix(0.06172839506172839,0,0,0.06172839506172839,0,0)" xlink:href="#aj"/><use transform="matrix(0.06172839506172839,0,0,0.06172839506172839,12.345679012345679,0)" xlink:href="#ak"/></g><g id="r"><use transform="matrix(0.06172839506172839,0,0,0.06172839506172839,0,0)" xlink:href="#Y"/><use transform="matrix(0.06172839506172839,0,0,0.06172839506172839,11.11111111111111,0)" xlink:href="#Z"/><use transform="matrix(0.06172839506172839,0,0,0.06172839506172839,23.45679012345679,0)" xlink:href="#W"/><use transform="matrix(0.06172839506172839,0,0,0.06172839506172839,35.80246913580247,0)" xlink:href="#am"/><use transform="matrix(0.06172839506172839,0,0,0.06172839506172839,41.97530864197531,0)" xlink:href="#ag"/><use transform="matrix(0.06172839506172839,0,0,0.06172839506172839,54.32098765432099,0)" xlink:href="#ai"/><use transform="matrix(0.06172839506172839,0,0,0.06172839506172839,66.66666666666667,0)" xlink:href="#Z"/><use transform="matrix(0.06172839506172839,0,0,0.06172839506172839,79.01234567901236,0)" xlink:href="#af"/></g><path fill="#333" d="M141 0L90-78 38 0H4l68-98-65-92h35l48 74 47-74h35l-64 92 68 98h-35" id="aw"/><g id="s"><use transform="matrix(0.06172839506172839,0,0,0.06172839506172839,0,0)" xlink:href="#at"/><use transform="matrix(0.06172839506172839,0,0,0.06172839506172839,12.345679012345679,0)" xlink:href="#aj"/><use transform="matrix(0.06172839506172839,0,0,0.06172839506172839,24.691358024691358,0)" xlink:href="#aw"/><use transform="matrix(0.06172839506172839,0,0,0.06172839506172839,35.80246913580247,0)" xlink:href="#ag"/><use transform="matrix(0.06172839506172839,0,0,0.06172839506172839,48.148148148148145,0)" xlink:href="#ai"/><use transform="matrix(0.06172839506172839,0,0,0.06172839506172839,60.49382716049382,0)" xlink:href="#aj"/><use transform="matrix(0.06172839506172839,0,0,0.06172839506172839,72.8395061728395,0)" xlink:href="#Y"/><use transform="matrix(0.06172839506172839,0,0,0.06172839506172839,83.95061728395062,0)" xlink:href="#X"/><use transform="matrix(0.06172839506172839,0,0,0.06172839506172839,88.82716049382717,0)" xlink:href="#al"/><use transform="matrix(0.06172839506172839,0,0,0.06172839506172839,107.28395061728395,0)" xlink:href="#ag"/><use transform="matrix(0.06172839506172839,0,0,0.06172839506172839,119.62962962962963,0)" xlink:href="#ak"/></g><path fill="#333" d="M169-182c-1-43-94-46-97-3 18 66 151 10 154 114 3 95-165 93-204 36-6-8-10-19-12-30l50-8c3 46 112 56 116 5-17-69-150-10-154-114-4-87 153-88 188-35 5 8 8 18 10 28" id="ax"/><path fill="#333" d="M25-224v-37h50v37H25zM25 0v-190h50V0H25" id="ay"/><g id="t"><use transform="matrix(0.04938271604938272,0,0,0.04938271604938272,0,0)" xlink:href="#ax"/><use transform="matrix(0.04938271604938272,0,0,0.04938271604938272,11.851851851851853,0)" xlink:href="#ay"/></g><g id="u"><use transform="matrix(0.06172839506172839,0,0,0.06172839506172839,0,0)" xlink:href="#aq"/><use transform="matrix(0.06172839506172839,0,0,0.06172839506172839,12.345679012345679,0)" xlink:href="#Z"/><use transform="matrix(0.06172839506172839,0,0,0.06172839506172839,24.691358024691358,0)" xlink:href="#am"/><use transform="matrix(0.06172839506172839,0,0,0.06172839506172839,30.864197530864196,0)" xlink:href="#ah"/><use transform="matrix(0.06172839506172839,0,0,0.06172839506172839,43.20987654320987,0)" xlink:href="#W"/></g><g id="v"><use transform="matrix(0.06172839506172839,0,0,0.06172839506172839,0,0)" xlink:href="#ai"/><use transform="matrix(0.06172839506172839,0,0,0.06172839506172839,12.345679012345679,0)" xlink:href="#aj"/></g><g id="w"><use transform="matrix(0.06172839506172839,0,0,0.06172839506172839,0,0)" xlink:href="#ai"/><use transform="matrix(0.06172839506172839,0,0,0.06172839506172839,12.345679012345679,0)" xlink:href="#aj"/><use transform="matrix(0.06172839506172839,0,0,0.06172839506172839,24.691358024691358,0)" xlink:href="#Y"/><use transform="matrix(0.06172839506172839,0,0,0.06172839506172839,35.80246913580247,0)" xlink:href="#af"/><use transform="matrix(0.06172839506172839,0,0,0.06172839506172839,43.148148148148145,0)" xlink:href="#aj"/><use transform="matrix(0.06172839506172839,0,0,0.06172839506172839,55.49382716049382,0)" xlink:href="#al"/><use transform="matrix(0.06172839506172839,0,0,0.06172839506172839,73.9506172839506,0)" xlink:href="#aj"/><use transform="matrix(0.06172839506172839,0,0,0.06172839506172839,86.29629629629629,0)" xlink:href="#W"/><use transform="matrix(0.06172839506172839,0,0,0.06172839506172839,98.64197530864197,0)" xlink:href="#am"/><use transform="matrix(0.06172839506172839,0,0,0.06172839506172839,104.81481481481481,0)" xlink:href="#Z"/><use transform="matrix(0.06172839506172839,0,0,0.06172839506172839,117.1604938271605,0)" xlink:href="#au"/></g><path fill="#333" d="M30-248c118-7 216 8 213 122C240-48 200 0 122 0H30v-248zM63-27c89 8 146-16 146-99s-60-101-146-95v194" id="az"/><g id="x"><use transform="matrix(0.06172839506172839,0,0,0.06172839506172839,0,0)" xlink:href="#az"/><use transform="matrix(0.06172839506172839,0,0,0.06172839506172839,15.987654320987653,0)" xlink:href="#aj"/><use transform="matrix(0.06172839506172839,0,0,0.06172839506172839,28.333333333333332,0)" xlink:href="#Y"/><use transform="matrix(0.06172839506172839,0,0,0.06172839506172839,39.44444444444444,0)" xlink:href="#af"/><use transform="matrix(0.06172839506172839,0,0,0.06172839506172839,46.79012345679012,0)" xlink:href="#aj"/><use transform="matrix(0.06172839506172839,0,0,0.06172839506172839,59.1358024691358,0)" xlink:href="#al"/><use transform="matrix(0.06172839506172839,0,0,0.06172839506172839,77.59259259259258,0)" xlink:href="#aj"/><use transform="matrix(0.06172839506172839,0,0,0.06172839506172839,89.93827160493827,0)" xlink:href="#W"/><use transform="matrix(0.06172839506172839,0,0,0.06172839506172839,102.28395061728395,0)" xlink:href="#am"/><use transform="matrix(0.06172839506172839,0,0,0.06172839506172839,108.45679012345678,0)" xlink:href="#ag"/><use transform="matrix(0.06172839506172839,0,0,0.06172839506172839,120.80246913580247,0)" xlink:href="#af"/></g><g id="y"><use transform="matrix(0.06172839506172839,0,0,0.06172839506172839,0,0)" xlink:href="#aj"/><use transform="matrix(0.06172839506172839,0,0,0.06172839506172839,12.345679012345679,0)" xlink:href="#ak"/></g><g id="z"><use transform="matrix(0.06172839506172839,0,0,0.06172839506172839,0,0)" xlink:href="#Y"/><use transform="matrix(0.06172839506172839,0,0,0.06172839506172839,11.11111111111111,0)" xlink:href="#Z"/><use transform="matrix(0.06172839506172839,0,0,0.06172839506172839,23.45679012345679,0)" xlink:href="#W"/><use transform="matrix(0.06172839506172839,0,0,0.06172839506172839,35.80246913580247,0)" xlink:href="#am"/><use transform="matrix(0.06172839506172839,0,0,0.06172839506172839,41.97530864197531,0)" xlink:href="#ag"/><use transform="matrix(0.06172839506172839,0,0,0.06172839506172839,54.32098765432099,0)" xlink:href="#ai"/><use transform="matrix(0.06172839506172839,0,0,0.06172839506172839,66.66666666666667,0)" xlink:href="#Z"/><use transform="matrix(0.06172839506172839,0,0,0.06172839506172839,79.01234567901236,0)" xlink:href="#af"/></g><g id="A"><use transform="matrix(0.06172839506172839,0,0,0.06172839506172839,0,0)" xlink:href="#ar"/><use transform="matrix(0.06172839506172839,0,0,0.06172839506172839,13.518518518518517,0)" xlink:href="#as"/><use transform="matrix(0.06172839506172839,0,0,0.06172839506172839,28.33333333333333,0)" xlink:href="#aj"/></g><g id="B"><use transform="matrix(0.06172839506172839,0,0,0.06172839506172839,0,0)" xlink:href="#at"/><use transform="matrix(0.06172839506172839,0,0,0.06172839506172839,12.345679012345679,0)" xlink:href="#ag"/></g><g id="C"><use transform="matrix(0.06172839506172839,0,0,0.06172839506172839,0,0)" xlink:href="#ap"/><use transform="matrix(0.06172839506172839,0,0,0.06172839506172839,12.345679012345679,0)" xlink:href="#ae"/><use transform="matrix(0.06172839506172839,0,0,0.06172839506172839,24.691358024691358,0)" xlink:href="#ak"/><use transform="matrix(0.06172839506172839,0,0,0.06172839506172839,29.5679012345679,0)" xlink:href="#ao"/><use transform="matrix(0.06172839506172839,0,0,0.06172839506172839,40.67901234567901,0)" xlink:href="#ag"/><use transform="matrix(0.06172839506172839,0,0,0.06172839506172839,53.02469135802469,0)" xlink:href="#ai"/><use transform="matrix(0.06172839506172839,0,0,0.06172839506172839,65.37037037037037,0)" xlink:href="#Z"/></g><g id="D"><use transform="matrix(0.06172839506172839,0,0,0.06172839506172839,0,0)" xlink:href="#aq"/><use transform="matrix(0.06172839506172839,0,0,0.06172839506172839,12.345679012345679,0)" xlink:href="#Z"/><use transform="matrix(0.06172839506172839,0,0,0.06172839506172839,24.691358024691358,0)" xlink:href="#am"/><use transform="matrix(0.06172839506172839,0,0,0.06172839506172839,30.864197530864196,0)" xlink:href="#ah"/><use transform="matrix(0.06172839506172839,0,0,0.06172839506172839,43.20987654320987,0)" xlink:href="#W"/></g><g id="E"><use transform="matrix(0.06172839506172839,0,0,0.06172839506172839,0,0)" xlink:href="#ai"/><use transform="matrix(0.06172839506172839,0,0,0.06172839506172839,12.345679012345679,0)" xlink:href="#aj"/></g><g id="F"><use transform="matrix(0.06172839506172839,0,0,0.06172839506172839,0,0)" xlink:href="#ad"/><use transform="matrix(0.06172839506172839,0,0,0.06172839506172839,12.345679012345679,0)" xlink:href="#ae"/><use transform="matrix(0.06172839506172839,0,0,0.06172839506172839,24.691358024691358,0)" xlink:href="#ag"/><use transform="matrix(0.06172839506172839,0,0,0.06172839506172839,37.03703703703704,0)" xlink:href="#af"/><use transform="matrix(0.06172839506172839,0,0,0.06172839506172839,44.382716049382715,0)" xlink:href="#ai"/><use transform="matrix(0.06172839506172839,0,0,0.06172839506172839,56.72839506172839,0)" xlink:href="#ag"/><use transform="matrix(0.06172839506172839,0,0,0.06172839506172839,69.07407407407408,0)" xlink:href="#ai"/><use transform="matrix(0.06172839506172839,0,0,0.06172839506172839,81.41975308641976,0)" xlink:href="#Z"/><use transform="matrix(0.06172839506172839,0,0,0.06172839506172839,93.76543209876544,0)" xlink:href="#au"/></g><path fill="#333" d="M143 4C61 4 22-44 18-125c-5-107 100-154 193-111 17 8 29 25 37 43l-32 9c-13-25-37-40-76-40-61 0-88 39-88 99 0 61 29 100 91 101 35 0 62-11 79-27v-45h-74v-28h105v86C228-13 192 4 143 4" id="aA"/><g id="G"><use transform="matrix(0.06172839506172839,0,0,0.06172839506172839,0,0)" xlink:href="#aA"/><use transform="matrix(0.06172839506172839,0,0,0.06172839506172839,17.28395061728395,0)" xlink:href="#ae"/><use transform="matrix(0.06172839506172839,0,0,0.06172839506172839,29.629629629629626,0)" xlink:href="#ag"/><use transform="matrix(0.06172839506172839,0,0,0.06172839506172839,41.9753086419753,0)" xlink:href="#af"/><use transform="matrix(0.06172839506172839,0,0,0.06172839506172839,49.32098765432098,0)" xlink:href="#ai"/><use transform="matrix(0.06172839506172839,0,0,0.06172839506172839,61.66666666666666,0)" xlink:href="#ag"/><use transform="matrix(0.06172839506172839,0,0,0.06172839506172839,74.01234567901234,0)" xlink:href="#af"/></g><path fill="#333" d="M108 0H70L1-190h34L89-25l56-165h34" id="aB"/><g id="H"><use transform="matrix(0.06172839506172839,0,0,0.06172839506172839,0,0)" xlink:href="#aB"/><use transform="matrix(0.06172839506172839,0,0,0.06172839506172839,11.11111111111111,0)" xlink:href="#ag"/><use transform="matrix(0.06172839506172839,0,0,0.06172839506172839,23.45679012345679,0)" xlink:href="#ak"/><use transform="matrix(0.06172839506172839,0,0,0.06172839506172839,28.333333333333336,0)" xlink:href="#Z"/><use transform="matrix(0.06172839506172839,0,0,0.06172839506172839,40.67901234567901,0)" xlink:href="#af"/></g><g id="I"><use transform="matrix(0.06172839506172839,0,0,0.06172839506172839,0,0)" xlink:href="#ai"/><use transform="matrix(0.06172839506172839,0,0,0.06172839506172839,12.345679012345679,0)" xlink:href="#aj"/><use transform="matrix(0.06172839506172839,0,0,0.06172839506172839,24.691358024691358,0)" xlink:href="#ak"/></g><g id="J"><use transform="matrix(0.06172839506172839,0,0,0.06172839506172839,0,0)" xlink:href="#aj"/><use transform="matrix(0.06172839506172839,0,0,0.06172839506172839,12.345679012345679,0)" xlink:href="#W"/></g><g id="K"><use transform="matrix(0.06172839506172839,0,0,0.06172839506172839,0,0)" xlink:href="#ak"/><use transform="matrix(0.06172839506172839,0,0,0.06172839506172839,4.876543209876543,0)" xlink:href="#ag"/></g><path fill="#333" d="M30-248c87 1 191-15 191 75 0 78-77 80-158 76V0H30v-248zm33 125c57 0 124 11 124-50 0-59-68-47-124-48v98" id="aC"/><path fill="#333" d="M233-177c-1 41-23 64-60 70L243 0h-38l-65-103H63V0H30v-248c88 3 205-21 203 71zM63-129c60-2 137 13 137-47 0-61-80-42-137-45v92" id="aD"/><path fill="#333" d="M140-251c81 0 123 46 123 126C263-46 219 4 140 4 59 4 17-45 17-125s42-126 123-126zm0 227c63 0 89-41 89-101s-29-99-89-99c-61 0-89 39-89 99S79-25 140-24" id="aE"/><path fill="#333" d="M240 0l2-218c-23 76-54 145-80 218h-23L58-218 59 0H30v-248h44l77 211c21-75 51-140 76-211h43V0h-30" id="aF"/><g id="L"><use transform="matrix(0.06172839506172839,0,0,0.06172839506172839,0,0)" xlink:href="#an"/><use transform="matrix(0.06172839506172839,0,0,0.06172839506172839,14.814814814814813,0)" xlink:href="#an"/><use transform="matrix(0.06172839506172839,0,0,0.06172839506172839,29.629629629629626,0)" xlink:href="#aC"/><use transform="matrix(0.06172839506172839,0,0,0.06172839506172839,44.44444444444444,0)" xlink:href="#aD"/><use transform="matrix(0.06172839506172839,0,0,0.06172839506172839,60.432098765432094,0)" xlink:href="#aE"/><use transform="matrix(0.06172839506172839,0,0,0.06172839506172839,77.71604938271605,0)" xlink:href="#aF"/></g><g id="M"><use transform="matrix(0.06172839506172839,0,0,0.06172839506172839,0,0)" xlink:href="#Y"/><use transform="matrix(0.06172839506172839,0,0,0.06172839506172839,11.11111111111111,0)" xlink:href="#ag"/><use transform="matrix(0.06172839506172839,0,0,0.06172839506172839,23.45679012345679,0)" xlink:href="#af"/><use transform="matrix(0.06172839506172839,0,0,0.06172839506172839,30.80246913580247,0)" xlink:href="#ad"/><use transform="matrix(0.06172839506172839,0,0,0.06172839506172839,43.148148148148145,0)" xlink:href="#ag"/><use transform="matrix(0.06172839506172839,0,0,0.06172839506172839,55.49382716049382,0)" xlink:href="#ai"/><use transform="matrix(0.06172839506172839,0,0,0.06172839506172839,67.8395061728395,0)" xlink:href="#Z"/><use transform="matrix(0.06172839506172839,0,0,0.06172839506172839,80.18518518518519,0)" xlink:href="#au"/></g><g id="N"><use transform="matrix(0.06172839506172839,0,0,0.06172839506172839,0,0)" xlink:href="#ab"/><use transform="matrix(0.06172839506172839,0,0,0.06172839506172839,15.987654320987653,0)" xlink:href="#ag"/><use transform="matrix(0.06172839506172839,0,0,0.06172839506172839,28.333333333333332,0)" xlink:href="#af"/><use transform="matrix(0.06172839506172839,0,0,0.06172839506172839,35.67901234567901,0)" xlink:href="#ad"/><use transform="matrix(0.06172839506172839,0,0,0.06172839506172839,48.02469135802469,0)" xlink:href="#ag"/><use transform="matrix(0.06172839506172839,0,0,0.06172839506172839,60.37037037037037,0)" xlink:href="#af"/></g><g id="O"><use transform="matrix(0.06172839506172839,0,0,0.06172839506172839,0,0)" xlink:href="#ad"/><use transform="matrix(0.06172839506172839,0,0,0.06172839506172839,12.345679012345679,0)" xlink:href="#ae"/><use transform="matrix(0.06172839506172839,0,0,0.06172839506172839,24.691358024691358,0)" xlink:href="#ag"/><use transform="matrix(0.06172839506172839,0,0,0.06172839506172839,37.03703703703704,0)" xlink:href="#af"/><use transform="matrix(0.06172839506172839,0,0,0.06172839506172839,44.382716049382715,0)" xlink:href="#ai"/><use transform="matrix(0.06172839506172839,0,0,0.06172839506172839,56.72839506172839,0)" xlink:href="#ag"/><use transform="matrix(0.06172839506172839,0,0,0.06172839506172839,69.07407407407408,0)" xlink:href="#ai"/><use transform="matrix(0.06172839506172839,0,0,0.06172839506172839,81.41975308641976,0)" xlink:href="#Z"/></g><path fill="#333" d="M25 0v-190h50V0H25zm-5-208v-5l45-51h45v8l-60 48H20" id="aG"/><g id="P"><use transform="matrix(0.04938271604938272,0,0,0.04938271604938272,0,0)" xlink:href="#ax"/><use transform="matrix(0.04938271604938272,0,0,0.04938271604938272,11.851851851851853,0)" xlink:href="#aG"/></g><g id="Q"><use transform="matrix(0.06172839506172839,0,0,0.06172839506172839,0,0)" xlink:href="#aF"/><use transform="matrix(0.06172839506172839,0,0,0.06172839506172839,18.456790123456788,0)" xlink:href="#Z"/><use transform="matrix(0.06172839506172839,0,0,0.06172839506172839,30.80246913580247,0)" xlink:href="#ao"/><use transform="matrix(0.06172839506172839,0,0,0.06172839506172839,41.91358024691358,0)" xlink:href="#am"/><use transform="matrix(0.06172839506172839,0,0,0.06172839506172839,48.086419753086425,0)" xlink:href="#af"/><use transform="matrix(0.06172839506172839,0,0,0.06172839506172839,55.4320987654321,0)" xlink:href="#ag"/><use transform="matrix(0.06172839506172839,0,0,0.06172839506172839,67.77777777777779,0)" xlink:href="#af"/></g><g id="R"><use transform="matrix(0.06172839506172839,0,0,0.06172839506172839,0,0)" xlink:href="#ag"/><use transform="matrix(0.06172839506172839,0,0,0.06172839506172839,12.345679012345679,0)" xlink:href="#Y"/><use transform="matrix(0.06172839506172839,0,0,0.06172839506172839,23.45679012345679,0)" xlink:href="#am"/><use transform="matrix(0.06172839506172839,0,0,0.06172839506172839,29.62962962962963,0)" xlink:href="#ae"/><use transform="matrix(0.06172839506172839,0,0,0.06172839506172839,41.97530864197531,0)" xlink:href="#ag"/><use transform="matrix(0.06172839506172839,0,0,0.06172839506172839,54.32098765432099,0)" xlink:href="#ak"/></g><g id="S"><use transform="matrix(0.06172839506172839,0,0,0.06172839506172839,0,0)" xlink:href="#ai"/><use transform="matrix(0.06172839506172839,0,0,0.06172839506172839,12.345679012345679,0)" xlink:href="#aj"/><use transform="matrix(0.06172839506172839,0,0,0.06172839506172839,24.691358024691358,0)" xlink:href="#ak"/></g><g id="T"><use transform="matrix(0.06172839506172839,0,0,0.06172839506172839,0,0)" xlink:href="#Y"/><use transform="matrix(0.06172839506172839,0,0,0.06172839506172839,11.11111111111111,0)" xlink:href="#Z"/><use transform="matrix(0.06172839506172839,0,0,0.06172839506172839,23.45679012345679,0)" xlink:href="#W"/><use transform="matrix(0.06172839506172839,0,0,0.06172839506172839,35.80246913580247,0)" xlink:href="#am"/><use transform="matrix(0.06172839506172839,0,0,0.06172839506172839,41.97530864197531,0)" xlink:href="#ag"/><use transform="matrix(0.06172839506172839,0,0,0.06172839506172839,54.32098765432099,0)" xlink:href="#ai"/><use transform="matrix(0.06172839506172839,0,0,0.06172839506172839,66.66666666666667,0)" xlink:href="#Z"/><use transform="matrix(0.06172839506172839,0,0,0.06172839506172839,79.01234567901236,0)" xlink:href="#af"/></g><path fill="#333" d="M175 0L67-191c6 58 2 128 3 191H24v-248h59L193-55c-6-58-2-129-3-193h46V0h-61" id="aH"/><path fill="#333" d="M110-194c64 0 96 36 96 99 0 64-35 99-97 99-61 0-95-36-95-99 0-62 34-99 96-99zm-1 164c35 0 45-28 45-65 0-40-10-65-43-65-34 0-45 26-45 65 0 36 10 65 43 65" id="aI"/><g id="U"><use transform="matrix(0.04938271604938272,0,0,0.04938271604938272,0,0)" xlink:href="#aH"/><use transform="matrix(0.04938271604938272,0,0,0.04938271604938272,12.790123456790125,0)" xlink:href="#aI"/></g></defs></g></svg>