<svg xmlns="http://www.w3.org/2000/svg" xmlns:xlink="http://www.w3.org/1999/xlink" xmlns:lucid="lucid" width="718.46" height="1102.93"><g transform="translate(711 -937.0735438277031)" lucid:page-tab-id="0_0"><path d="M-437.5 1960c22.1 0 40 13.43 40 30s-17.9 30-40 30h-120c-22.1 0-40-13.43-40-30s17.9-30 40-30z" stroke="#5e5e5e" stroke-width="3" fill="#fff"/><use xlink:href="#a" transform="matrix(1,0,0,1,-592.5,1965) translate(79.62962962962963 30.27777777777778)"/><path d="M-585 963.07a6 6 0 0 1 6-6h168a6 6 0 0 1 6 6v68a6 6 0 0 1-6 6h-168a6 6 0 0 1-6-6z" stroke="#5e5e5e" stroke-width="3" fill="#fff"/><use xlink:href="#b" transform="matrix(1,0,0,1,-573,969.0735438277031) translate(34.17283950617284 21.27777777777778)"/><use xlink:href="#c" transform="matrix(1,0,0,1,-573,969.0735438277031) translate(109.48148148148147 21.27777777777778)"/><use xlink:href="#d" transform="matrix(1,0,0,1,-573,969.0735438277031) translate(15.160493827160494 47.94444444444444)"/><use xlink:href="#e" transform="matrix(1,0,0,1,-573,969.0735438277031) translate(96.4567901234568 47.94444444444444)"/><path d="M-660 1103.07a6 6 0 0 1 6-6h318a6 6 0 0 1 6 6v86.67a6 6 0 0 1-6 6h-318a6 6 0 0 1-6-6z" stroke="#5e5e5e" stroke-width="3" fill="#fff"/><use xlink:href="#f" transform="matrix(1,0,0,1,-648,1109.0735438277031) translate(41.42592592592594 17.77777777777778)"/><use xlink:href="#g" transform="matrix(1,0,0,1,-648,1109.0735438277031) translate(127.72222222222223 17.77777777777778)"/><use xlink:href="#h" transform="matrix(1,0,0,1,-648,1109.0735438277031) translate(162.2283950617284 17.77777777777778)"/><use xlink:href="#i" transform="matrix(1,0,0,1,-648,1109.0735438277031) translate(239.88271604938268 17.77777777777778)"/><use xlink:href="#j" transform="matrix(1,0,0,1,-648,1109.0735438277031) translate(32.75308641975309 44.44444444444444)"/><use xlink:href="#k" transform="matrix(1,0,0,1,-648,1109.0735438277031) translate(116.58024691358024 44.44444444444444)"/><use xlink:href="#l" transform="matrix(1,0,0,1,-648,1109.0735438277031) translate(133.8641975308642 44.44444444444444)"/><use xlink:href="#m" transform="matrix(1,0,0,1,-648,1109.0735438277031) translate(195.53086419753086 44.44444444444444)"/><use xlink:href="#g" transform="matrix(1,0,0,1,-648,1109.0735438277031) translate(226.39506172839506 44.44444444444444)"/><use xlink:href="#n" transform="matrix(1,0,0,1,-648,1109.0735438277031) translate(260.90123456790127 44.44444444444444)"/><use xlink:href="#o" transform="matrix(1,0,0,1,-648,1109.0735438277031) translate(98.70987654320987 71.11111111111111)"/><path d="M-495 1039.54v37.57" stroke="#5e5e5e" stroke-width="2" fill="none"/><path d="M-494 1039.56h-2v-1.02h2z" stroke="#5e5e5e" stroke-width=".05" fill="#5e5e5e"/><path d="M-495 1092.37l-4.64-14.26h9.28z" stroke="#5e5e5e" stroke-width="2" fill="#5e5e5e"/><path d="M-499.8 1259.34a8 8 0 0 1 9.6 0l110.4 82.8a4.5 4.5 0 0 1 0 7.2l-110.4 82.8a8 8 0 0 1-9.6 0l-110.4-82.8a4.5 4.5 0 0 1 0-7.2z" stroke="#5e5e5e" stroke-width="3" fill="#fff"/><use xlink:href="#p" transform="matrix(1,0,0,1,-610,1260.7402104943699) translate(79.2333950617284 60.27777777777778)"/><use xlink:href="#q" transform="matrix(1,0,0,1,-610,1260.7402104943699) translate(126.08524691358025 60.27777777777778)"/><use xlink:href="#r" transform="matrix(1,0,0,1,-610,1260.7402104943699) translate(18.153148148148144 86.94444444444446)"/><use xlink:href="#s" transform="matrix(1,0,0,1,-610,1260.7402104943699) translate(102.04203703703703 86.94444444444446)"/><use xlink:href="#t" transform="matrix(1,0,0,1,-610,1260.7402104943699) translate(125.4370987654321 86.94444444444446)"/><use xlink:href="#i" transform="matrix(1,0,0,1,-610,1260.7402104943699) translate(187.1654938271605 86.94444444444446)"/><use xlink:href="#u" transform="matrix(1,0,0,1,-610,1260.7402104943699) translate(61.94944444444443 113.61111111111111)"/><path d="M-499.8 1540.67a8 8 0 0 1 9.6 0l110.4 82.8a4.5 4.5 0 0 1 0 7.2l-110.4 82.8a8 8 0 0 1-9.6 0l-110.4-82.8a4.5 4.5 0 0 1 0-7.2z" stroke="#5e5e5e" stroke-width="3" fill="#fff"/><use xlink:href="#p" transform="matrix(1,0,0,1,-610,1542.0735438277034) translate(79.2333950617284 60.27777777777778)"/><use xlink:href="#q" transform="matrix(1,0,0,1,-610,1542.0735438277034) translate(126.08524691358025 60.27777777777778)"/><use xlink:href="#r" transform="matrix(1,0,0,1,-610,1542.0735438277034) translate(18.153148148148144 86.94444444444446)"/><use xlink:href="#s" transform="matrix(1,0,0,1,-610,1542.0735438277034) translate(102.04203703703703 86.94444444444446)"/><use xlink:href="#t" transform="matrix(1,0,0,1,-610,1542.0735438277034) translate(125.4370987654321 86.94444444444446)"/><use xlink:href="#i" transform="matrix(1,0,0,1,-610,1542.0735438277034) translate(187.1654938271605 86.94444444444446)"/><use xlink:href="#v" transform="matrix(1,0,0,1,-610,1542.0735438277034) translate(68.73956790123455 113.61111111111111)"/><path d="M-495 1198.2v39.54" stroke="#5e5e5e" stroke-width="2" fill="none"/><path d="M-494 1198.23h-2v-1.03h2z" stroke="#5e5e5e" stroke-width=".05" fill="#5e5e5e"/><path d="M-495 1253l-4.64-14.26h9.28z" stroke="#5e5e5e" stroke-width="2" fill="#5e5e5e"/><path d="M-305 1314.74a6 6 0 0 1 6-6h228a6 6 0 0 1 6 6v62a6 6 0 0 1-6 6h-228a6 6 0 0 1-6-6z" stroke="#5e5e5e" stroke-width="3" fill="#fff"/><use xlink:href="#w" transform="matrix(1,0,0,1,-293,1320.7402104943699) translate(14.913580246913597 17.77777777777778)"/><use xlink:href="#g" transform="matrix(1,0,0,1,-293,1320.7402104943699) translate(95.09876543209877 17.77777777777778)"/><use xlink:href="#x" transform="matrix(1,0,0,1,-293,1320.7402104943699) translate(129.60493827160494 17.77777777777778)"/><use xlink:href="#y" transform="matrix(1,0,0,1,-293,1320.7402104943699) translate(2.5987654320987588 44.44444444444444)"/><use xlink:href="#z" transform="matrix(1,0,0,1,-293,1320.7402104943699) translate(91.42592592592592 44.44444444444444)"/><use xlink:href="#A" transform="matrix(1,0,0,1,-293,1320.7402104943699) translate(122.29012345679013 44.44444444444444)"/><use xlink:href="#B" transform="matrix(1,0,0,1,-293,1320.7402104943699) translate(145.6851851851852 44.44444444444444)"/><path d="M-357.4 1346.74h-18.1v-2h18.1zm32.43 0h-15.63v-2h15.63z" stroke="#5e5e5e" stroke-width=".05" fill="#5e5e5e"/><path d="M-375.47 1346.74h-1.12l.1-1-.1-1h1.13z" fill="#5e5e5e"/><path d="M-375.44 1346.77h-1.17l.08-1.03-.1-1.02h1.18zm-1.12-2l.1.97-.1.98h1.07v-1.95z" stroke="#5e5e5e" stroke-width=".05" fill="#5e5e5e"/><path d="M-309.7 1345.74l-14.27 4.64v-9.28z" fill="#5e5e5e"/><path d="M-306.46 1345.74l-18.5 6v-12zm-16.5 3.26l10.02-3.26-10.03-3.26z" stroke="#5e5e5e" stroke-width=".05" fill="#5e5e5e"/><use xlink:href="#C" transform="matrix(1,0,0,1,-357.39506172839504,1335.0735438277031) translate(0.005000000000000782 14.222222222222223)"/><path d="M-305 1596.07a6 6 0 0 1 6-6h248a6 6 0 0 1 6 6v62a6 6 0 0 1-6 6h-248a6 6 0 0 1-6-6z" stroke="#5e5e5e" stroke-width="3" fill="#fff"/><use xlink:href="#D" transform="matrix(1,0,0,1,-293,1602.0735438277034) translate(31.734567901234584 17.77777777777778)"/><use xlink:href="#g" transform="matrix(1,0,0,1,-293,1602.0735438277034) translate(98.27777777777779 17.77777777777778)"/><use xlink:href="#x" transform="matrix(1,0,0,1,-293,1602.0735438277034) translate(132.78395061728395 17.77777777777778)"/><use xlink:href="#E" transform="matrix(1,0,0,1,-293,1602.0735438277034) translate(1.4876543209876445 44.44444444444444)"/><use xlink:href="#z" transform="matrix(1,0,0,1,-293,1602.0735438277034) translate(112.53703703703704 44.44444444444444)"/><use xlink:href="#A" transform="matrix(1,0,0,1,-293,1602.0735438277034) translate(143.40123456790124 44.44444444444444)"/><use xlink:href="#B" transform="matrix(1,0,0,1,-293,1602.0735438277034) translate(166.7962962962963 44.44444444444444)"/><path d="M-349.87 1628.07h-25.62v-2h25.63zm24.9 0h-8.1v-2h8.1z" stroke="#5e5e5e" stroke-width=".05" fill="#5e5e5e"/><path d="M-375.47 1628.07h-1.12l.1-1-.1-1h1.13z" fill="#5e5e5e"/><path d="M-375.44 1628.1h-1.17l.08-1.03-.1-1.02h1.18zm-1.12-2l.1.97-.1.98h1.07v-1.95z" stroke="#5e5e5e" stroke-width=".05" fill="#5e5e5e"/><path d="M-309.7 1627.07l-14.27 4.64v-9.26z" fill="#5e5e5e"/><path d="M-306.46 1627.07l-18.5 6.02v-12.04zm-16.5 3.26l10.02-3.26-10.03-3.26z" stroke="#5e5e5e" stroke-width=".05" fill="#5e5e5e"/><g><use xlink:href="#C" transform="matrix(1,0,0,1,-349.8736337737258,1616.4068771610366) translate(0.005000000000000782 14.222222222222223)"/></g><path d="M-592.5 1824.4a6 6 0 0 1 6-6h183a6 6 0 0 1 6 6v69.6a6 6 0 0 1-6 6h-183a6 6 0 0 1-6-6z" stroke="#5e5e5e" stroke-width="3" fill="#fff"/><g><use xlink:href="#F" transform="matrix(1,0,0,1,-580.5,1830.4068771610368) translate(9.08024691358024 21.40277777777778)"/><use xlink:href="#G" transform="matrix(1,0,0,1,-580.5,1830.4068771610368) translate(95.25308641975309 21.40277777777778)"/><use xlink:href="#H" transform="matrix(1,0,0,1,-580.5,1830.4068771610368) translate(14.04938271604938 48.06944444444444)"/><use xlink:href="#I" transform="matrix(1,0,0,1,-580.5,1830.4068771610368) translate(79.41975308641975 48.06944444444444)"/><use xlink:href="#J" transform="matrix(1,0,0,1,-580.5,1830.4068771610368) translate(115.1604938271605 48.06944444444444)"/></g><path d="M-563.8 1458.22l-35.16.02-.82.07-.76.2-.73.3-.67.4-.6.5-.5.6-.4.67-.3.73-.2.72-.06 28.62.06.82.2.76.3.72.4.67.5.6.6.52.67.4.73.3.72.18 98.86.07 1.06.1 1.06.24 1.02.43.94.58.83.72.72.84.57.93.42 1 .27 1.1.07 17.06h-2l-.07-16.8-.18-.73-.3-.73-.4-.66-.52-.6-.6-.5-.66-.42-.73-.3-.76-.18-.82-.07-99.02-.07-1.1-.27-1.02-.42-.94-.56-.83-.7-.72-.85-.57-.95-.42-1-.26-1.08-.08-1.06.07-28.9.27-1.12.42-1.02.57-.93.72-.84.83-.72.94-.58 1.02-.42 1.06-.25 1.06-.1h35.24zm69.8-6.94l-.08 1.06-.26 1.07-.42 1.02-.57.94-.72.84-.83.7-.94.58-1.02.42-1.1.27-40.26.03v-2l40.02-.03.72-.17.73-.3.67-.4.6-.52.5-.6.4-.67.3-.7.2-.78.06-.82v-14.96h2z" stroke="#5e5e5e" stroke-width=".05" fill="#5e5e5e"/><path d="M-495 1435.24l1-.06v1.1h-2v-1.1z" fill="#5e5e5e"/><path d="M-495 1435.22l1.02-.07v1.14h-2.04v-1.15zm-.98 1.02h1.96v-1.03l-.98.07-.98-.06z" stroke="#5e5e5e" stroke-width=".05" fill="#5e5e5e"/><path d="M-495 1534.33l-4.64-14.26h9.28z" fill="#5e5e5e"/><path d="M-495 1537.57l-6-18.5h12zm-3.26-16.5l3.26 10.03 3.26-10.03z" stroke="#5e5e5e" stroke-width=".05" fill="#5e5e5e"/><g><use xlink:href="#K" transform="matrix(1,0,0,1,-563.8024691358024,1446.5766347499964) translate(0.005000000000000782 14.222222222222223)"/></g><path d="M-28.44 1344.82l1.07.26 1 .42.95.57.84.72.7.82.58.94.42 1.02.27 1.1.06 140.93-.08 1.07-.26 1.06-.42 1.02-.57.94-.7.82-.85.72-.94.57-1 .43-1.12.27-460.48.07-.82.07-.76.18-.73.3-.67.4-.6.52-.5.6-.4.66-.3.73-.2.72-.06 16.32h-2l.07-16.56.27-1.1.42-1 .57-.95.72-.83.83-.72.94-.57 1.02-.42 1.06-.25 1.06-.08 460.32-.07.73-.18.73-.3.67-.4.6-.52.5-.6.42-.66.3-.73.18-.75.06-.82-.07-140.6-.18-.73-.3-.73-.4-.67-.52-.6-.6-.5-.67-.4-.72-.3-.75-.2-.83-.06h-32.96v-2h33.04z" stroke="#5e5e5e" stroke-width=".05" fill="#5e5e5e"/><path d="M-62.5 1346.74h-1.04v-2h1.03z" fill="#5e5e5e"/><path d="M-62.5 1346.77h-1.06v-2.05h1.07zm-1-2v1.95h.96v-1.95z" stroke="#5e5e5e" stroke-width=".05" fill="#5e5e5e"/><path d="M-495 1534.33l-4.64-14.26h9.28z" fill="#5e5e5e"/><path d="M-495 1537.57l-6-18.5h12zm-3.26-16.5l3.26 10.03 3.26-10.03zM-569.06 1739.55l-29.9.03-.82.06-.76.18-.73.3-.67.4-.6.52-.5.6-.4.67-.3.73-.2.73-.06 27.28.06.82.2.76.3.72.4.67.5.6.6.52.67.4.73.3.72.18 98.86.07 1.06.1 1.06.24 1.02.43.94.58.83.72.72.84.57.93.42 1 .27 1.1.07 16.44h-2l-.07-16.18-.18-.73-.3-.73-.4-.66-.52-.6-.6-.5-.66-.42-.73-.3-.76-.18-.82-.07-99.02-.07-1.1-.27-1.02-.42-.94-.56-.83-.7-.72-.85-.57-.95-.42-1-.26-1.08-.08-1.06.07-27.58.27-1.1.42-1.02.57-.94.72-.84.83-.7.94-.58 1.02-.42 1.06-.26 1.06-.08 29.98-.03zm75.06-6.93l-.08 1.05-.26 1.07-.42 1.02-.57.93-.72.83-.83.7-.94.6-1.02.4-1.1.27-45.52.04v-2l45.28-.04.72-.17.73-.3.67-.4.6-.52.5-.6.4-.65.3-.73.2-.76.06-.82v-14.96h2z" stroke="#5e5e5e" stroke-width=".05" fill="#5e5e5e"/><path d="M-495 1716.58l1-.07v1.1h-2v-1.1z" fill="#5e5e5e"/><path d="M-495 1716.55l1.02-.06v1.13h-2.04v-1.14zm-.98 1.03h1.96v-1.04l-.98.06-.98-.06z" stroke="#5e5e5e" stroke-width=".05" fill="#5e5e5e"/><path d="M-495 1813.7l-4.64-14.26h9.28z" fill="#5e5e5e"/><path d="M-495 1816.94l-6-18.5h12zm-3.26-16.5l3.26 10.03 3.26-10.03z" stroke="#5e5e5e" stroke-width=".05" fill="#5e5e5e"/><g><use xlink:href="#K" transform="matrix(1,0,0,1,-569.0627126977198,1727.9099680833299) translate(0.005000000000000782 14.222222222222223)"/></g><path d="M-8.44 1626.16l1.07.25 1 .43.95.58.84.72.7.84.58.93.42 1 .27 1.12.06 138.96-.08 1.06-.26 1.07-.42 1.02-.57.94-.7.84-.85.7-.94.58-1 .42-1.12.27-480.48.07-.82.07-.76.2-.73.3-.67.4-.6.5-.5.6-.4.68-.3.72-.2.73-.06 16.32h-2l.07-16.57.27-1.1.42-1.02.57-.93.72-.84.83-.72.94-.58 1.02-.42 1.06-.25 1.06-.1 480.32-.06.73-.17.73-.3.67-.4.6-.52.5-.6.42-.67.3-.7.18-.77.06-.83-.07-138.65-.18-.72-.3-.73-.4-.66-.52-.6-.6-.5-.67-.42-.72-.3-.75-.18-.83-.07h-32.96v-2H-9.5z" stroke="#5e5e5e" stroke-width=".05" fill="#5e5e5e"/><path d="M-42.5 1628.07h-1.04v-2h1.03z" fill="#5e5e5e"/><path d="M-42.5 1628.1h-1.06v-2.05h1.07zm-1-2v1.95h.96v-1.95z" stroke="#5e5e5e" stroke-width=".05" fill="#5e5e5e"/><path d="M-495 1813.7l-4.64-14.26h9.28z" fill="#5e5e5e"/><path d="M-495 1816.94l-6-18.5h12zm-3.26-16.5l3.26 10.03 3.26-10.03zM-604.96 998.07l-89.86.08-.72.17-.73.3-.67.4-.6.52-.5.6-.4.66-.3.73-.2.76-.06.8.07 850.92.18.73.3.72.4.67.52.6.6.5.66.42.73.3.76.18.82.06h99v2h-99.08l-1.06-.08-1.06-.26-1.02-.42-.94-.57-.83-.7-.72-.85-.57-.94-.42-1-.27-1.12-.07-851.23.08-1.05.26-1.07.42-1 .57-.94.72-.84.83-.7.94-.6 1.02-.4 1.1-.27 90.1-.08z" stroke="#5e5e5e" stroke-width=".05" fill="#5e5e5e"/><path d="M-593.96 1860.2H-595v-2h1.04z" fill="#5e5e5e"/><path d="M-593.94 1860.23H-595v-2.05h1.06zm-1.02-2v1.95h.97v-1.95z" stroke="#5e5e5e" stroke-width=".05" fill="#5e5e5e"/><path d="M-589.7 997.07l-14.27 4.64v-9.26z" fill="#5e5e5e"/><path d="M-586.46 997.07l-18.5 6.02v-12.04zm-16.5 3.26l10.02-3.26-10.03-3.26z" stroke="#5e5e5e" stroke-width=".05" fill="#5e5e5e"/><path d="M-495 1902.46V1940" stroke="#5e5e5e" stroke-width="2" fill="none"/><path d="M-494 1902.5h-2v-1.04h2z" stroke="#5e5e5e" stroke-width=".05" fill="#5e5e5e"/><path d="M-495 1955.26l-4.64-14.26h9.28z" stroke="#5e5e5e" stroke-width="2" fill="#5e5e5e"/><defs><path fill="#333" d="M63-220v92h138v28H63V0H30v-248h175v28H63" id="L"/><path fill="#333" d="M24-231v-30h32v30H24zM24 0v-190h32V0H24" id="M"/><path fill="#333" d="M117-194c89-4 53 116 60 194h-32v-121c0-31-8-49-39-48C34-167 62-67 57 0H25l-1-190h30c1 10-1 24 2 32 11-22 29-35 61-36" id="N"/><g id="a"><use transform="matrix(0.06172839506172839,0,0,0.06172839506172839,0,0)" xlink:href="#L"/><use transform="matrix(0.06172839506172839,0,0,0.06172839506172839,13.518518518518517,0)" xlink:href="#M"/><use transform="matrix(0.06172839506172839,0,0,0.06172839506172839,18.39506172839506,0)" xlink:href="#N"/></g><path fill="#333" d="M30 0v-248h187v28H63v79h144v27H63v87h162V0H30" id="O"/><path fill="#333" d="M135-143c-3-34-86-38-87 0 15 53 115 12 119 90S17 21 10-45l28-5c4 36 97 45 98 0-10-56-113-15-118-90-4-57 82-63 122-42 12 7 21 19 24 35" id="P"/><path fill="#333" d="M59-47c-2 24 18 29 38 22v24C64 9 27 4 27-40v-127H5v-23h24l9-43h21v43h35v23H59v120" id="Q"/><path fill="#333" d="M141-36C126-15 110 5 73 4 37 3 15-17 15-53c-1-64 63-63 125-63 3-35-9-54-41-54-24 1-41 7-42 31l-33-3c5-37 33-52 76-52 45 0 72 20 72 64v82c-1 20 7 32 28 27v20c-31 9-61-2-59-35zM48-53c0 20 12 33 32 33 41-3 63-29 60-74-43 2-92-5-92 41" id="R"/><path fill="#333" d="M85-194c31 0 48 13 60 33l-1-100h32l1 261h-30c-2-10 0-23-3-31C134-8 116 4 85 4 32 4 16-35 15-94c0-66 23-100 70-100zm9 24c-40 0-46 34-46 75 0 40 6 74 45 74 42 0 51-32 51-76 0-42-9-74-50-73" id="S"/><path fill="#333" d="M100-194c62-1 85 37 85 99 1 63-27 99-86 99S16-35 15-95c0-66 28-99 85-99zM99-20c44 1 53-31 53-75 0-43-8-75-51-75s-53 32-53 75 10 74 51 75" id="T"/><g id="b"><use transform="matrix(0.06172839506172839,0,0,0.06172839506172839,0,0)" xlink:href="#O"/><use transform="matrix(0.06172839506172839,0,0,0.06172839506172839,14.814814814814813,0)" xlink:href="#P"/><use transform="matrix(0.06172839506172839,0,0,0.06172839506172839,25.925925925925924,0)" xlink:href="#Q"/><use transform="matrix(0.06172839506172839,0,0,0.06172839506172839,32.098765432098766,0)" xlink:href="#R"/><use transform="matrix(0.06172839506172839,0,0,0.06172839506172839,44.44444444444444,0)" xlink:href="#S"/><use transform="matrix(0.06172839506172839,0,0,0.06172839506172839,56.79012345679012,0)" xlink:href="#T"/></g><path fill="#333" d="M101-251c68 0 85 55 85 127S166 4 100 4C33 4 14-52 14-124c0-73 17-127 87-127zm-1 229c47 0 54-49 54-102s-4-102-53-102c-51 0-55 48-55 102 0 53 5 102 54 102" id="U"/><use transform="matrix(0.06172839506172839,0,0,0.06172839506172839,0,0)" xlink:href="#U" id="c"/><path fill="#333" d="M240 0l2-218c-23 76-54 145-80 218h-23L58-218 59 0H30v-248h44l77 211c21-75 51-140 76-211h43V0h-30" id="V"/><path fill="#333" d="M114-163C36-179 61-72 57 0H25l-1-190h30c1 12-1 29 2 39 6-27 23-49 58-41v29" id="W"/><g id="d"><use transform="matrix(0.06172839506172839,0,0,0.06172839506172839,0,0)" xlink:href="#V"/><use transform="matrix(0.06172839506172839,0,0,0.06172839506172839,18.456790123456788,0)" xlink:href="#T"/><use transform="matrix(0.06172839506172839,0,0,0.06172839506172839,30.80246913580247,0)" xlink:href="#P"/><use transform="matrix(0.06172839506172839,0,0,0.06172839506172839,41.91358024691358,0)" xlink:href="#Q"/><use transform="matrix(0.06172839506172839,0,0,0.06172839506172839,48.086419753086425,0)" xlink:href="#W"/><use transform="matrix(0.06172839506172839,0,0,0.06172839506172839,55.4320987654321,0)" xlink:href="#R"/><use transform="matrix(0.06172839506172839,0,0,0.06172839506172839,67.77777777777779,0)" xlink:href="#W"/></g><path fill="#333" d="M106-169C34-169 62-67 57 0H25v-261h32l-1 103c12-21 28-36 61-36 89 0 53 116 60 194h-32v-121c2-32-8-49-39-48" id="X"/><g id="e"><use transform="matrix(0.06172839506172839,0,0,0.06172839506172839,0,0)" xlink:href="#X"/><use transform="matrix(0.06172839506172839,0,0,0.06172839506172839,12.345679012345679,0)" xlink:href="#T"/><use transform="matrix(0.06172839506172839,0,0,0.06172839506172839,24.691358024691358,0)" xlink:href="#W"/><use transform="matrix(0.06172839506172839,0,0,0.06172839506172839,32.03703703703704,0)" xlink:href="#R"/></g><path fill="#333" d="M84 4C-5 8 30-112 23-190h32v120c0 31 7 50 39 49 72-2 45-101 50-169h31l1 190h-30c-1-10 1-25-2-33-11 22-28 36-60 37" id="Y"/><path fill="#333" d="M100-194c63 0 86 42 84 106H49c0 40 14 67 53 68 26 1 43-12 49-29l28 8c-11 28-37 45-77 45C44 4 14-33 15-96c1-61 26-98 85-98zm52 81c6-60-76-77-97-28-3 7-6 17-6 28h103" id="Z"/><g id="f"><use transform="matrix(0.06172839506172839,0,0,0.06172839506172839,0,0)" xlink:href="#V"/><use transform="matrix(0.06172839506172839,0,0,0.06172839506172839,18.456790123456788,0)" xlink:href="#Y"/><use transform="matrix(0.06172839506172839,0,0,0.06172839506172839,30.80246913580247,0)" xlink:href="#Z"/><use transform="matrix(0.06172839506172839,0,0,0.06172839506172839,43.148148148148145,0)" xlink:href="#P"/><use transform="matrix(0.06172839506172839,0,0,0.06172839506172839,54.25925925925925,0)" xlink:href="#Q"/><use transform="matrix(0.06172839506172839,0,0,0.06172839506172839,60.432098765432094,0)" xlink:href="#W"/><use transform="matrix(0.06172839506172839,0,0,0.06172839506172839,67.77777777777777,0)" xlink:href="#R"/></g><path fill="#333" d="M24 0v-261h32V0H24" id="aa"/><g id="g"><use transform="matrix(0.06172839506172839,0,0,0.06172839506172839,0,0)" xlink:href="#aa"/><use transform="matrix(0.06172839506172839,0,0,0.06172839506172839,4.876543209876543,0)" xlink:href="#T"/><use transform="matrix(0.06172839506172839,0,0,0.06172839506172839,17.22222222222222,0)" xlink:href="#P"/></g><path fill="#333" d="M108 0H70L1-190h34L89-25l56-165h34" id="ab"/><g id="h"><use transform="matrix(0.06172839506172839,0,0,0.06172839506172839,0,0)" xlink:href="#ab"/><use transform="matrix(0.06172839506172839,0,0,0.06172839506172839,11.11111111111111,0)" xlink:href="#R"/><use transform="matrix(0.06172839506172839,0,0,0.06172839506172839,23.45679012345679,0)" xlink:href="#aa"/><use transform="matrix(0.06172839506172839,0,0,0.06172839506172839,28.333333333333336,0)" xlink:href="#T"/><use transform="matrix(0.06172839506172839,0,0,0.06172839506172839,40.67901234567901,0)" xlink:href="#W"/><use transform="matrix(0.06172839506172839,0,0,0.06172839506172839,48.02469135802469,0)" xlink:href="#Z"/><use transform="matrix(0.06172839506172839,0,0,0.06172839506172839,60.37037037037037,0)" xlink:href="#P"/></g><g id="i"><use transform="matrix(0.06172839506172839,0,0,0.06172839506172839,0,0)" xlink:href="#S"/><use transform="matrix(0.06172839506172839,0,0,0.06172839506172839,12.345679012345679,0)" xlink:href="#Z"/></g><path fill="#333" d="M210-169c-67 3-38 105-44 169h-31v-121c0-29-5-50-35-48C34-165 62-65 56 0H25l-1-190h30c1 10-1 24 2 32 10-44 99-50 107 0 11-21 27-35 58-36 85-2 47 119 55 194h-31v-121c0-29-5-49-35-48" id="ac"/><g id="j"><use transform="matrix(0.06172839506172839,0,0,0.06172839506172839,0,0)" xlink:href="#ac"/><use transform="matrix(0.06172839506172839,0,0,0.06172839506172839,18.456790123456788,0)" xlink:href="#M"/><use transform="matrix(0.06172839506172839,0,0,0.06172839506172839,23.33333333333333,0)" xlink:href="#N"/><use transform="matrix(0.06172839506172839,0,0,0.06172839506172839,35.679012345679006,0)" xlink:href="#Y"/><use transform="matrix(0.06172839506172839,0,0,0.06172839506172839,48.02469135802468,0)" xlink:href="#Q"/><use transform="matrix(0.06172839506172839,0,0,0.06172839506172839,54.197530864197525,0)" xlink:href="#T"/><use transform="matrix(0.06172839506172839,0,0,0.06172839506172839,66.5432098765432,0)" xlink:href="#P"/></g><path fill="#333" d="M179-190L93 31C79 59 56 82 12 73V49c39 6 53-20 64-50L1-190h34L92-34l54-156h33" id="ad"/><use transform="matrix(0.06172839506172839,0,0,0.06172839506172839,0,0)" xlink:href="#ad" id="k"/><g id="l"><use transform="matrix(0.06172839506172839,0,0,0.06172839506172839,0,0)" xlink:href="#X"/><use transform="matrix(0.06172839506172839,0,0,0.06172839506172839,12.345679012345679,0)" xlink:href="#T"/><use transform="matrix(0.06172839506172839,0,0,0.06172839506172839,24.691358024691358,0)" xlink:href="#W"/><use transform="matrix(0.06172839506172839,0,0,0.06172839506172839,32.03703703703704,0)" xlink:href="#R"/><use transform="matrix(0.06172839506172839,0,0,0.06172839506172839,44.382716049382715,0)" xlink:href="#P"/></g><g id="m"><use transform="matrix(0.06172839506172839,0,0,0.06172839506172839,0,0)" xlink:href="#Z"/><use transform="matrix(0.06172839506172839,0,0,0.06172839506172839,12.345679012345679,0)" xlink:href="#N"/></g><path fill="#333" d="M64 0c3-98 48-159 88-221H18v-27h164v26C143-157 98-101 97 0H64" id="ae"/><use transform="matrix(0.06172839506172839,0,0,0.06172839506172839,0,0)" xlink:href="#ae" id="n"/><path fill="#333" d="M177-190C167-65 218 103 67 71c-23-6-38-20-44-43l32-5c15 47 100 32 89-28v-30C133-14 115 1 83 1 29 1 15-40 15-95c0-56 16-97 71-98 29-1 48 16 59 35 1-10 0-23 2-32h30zM94-22c36 0 50-32 50-73 0-42-14-75-50-75-39 0-46 34-46 75s6 73 46 73" id="af"/><g id="o"><use transform="matrix(0.06172839506172839,0,0,0.06172839506172839,0,0)" xlink:href="#P"/><use transform="matrix(0.06172839506172839,0,0,0.06172839506172839,11.11111111111111,0)" xlink:href="#Z"/><use transform="matrix(0.06172839506172839,0,0,0.06172839506172839,23.45679012345679,0)" xlink:href="#af"/><use transform="matrix(0.06172839506172839,0,0,0.06172839506172839,35.80246913580247,0)" xlink:href="#ac"/><use transform="matrix(0.06172839506172839,0,0,0.06172839506172839,54.25925925925925,0)" xlink:href="#Z"/><use transform="matrix(0.06172839506172839,0,0,0.06172839506172839,66.60493827160494,0)" xlink:href="#N"/><use transform="matrix(0.06172839506172839,0,0,0.06172839506172839,78.95061728395062,0)" xlink:href="#Q"/><use transform="matrix(0.06172839506172839,0,0,0.06172839506172839,85.12345679012346,0)" xlink:href="#T"/><use transform="matrix(0.06172839506172839,0,0,0.06172839506172839,97.46913580246914,0)" xlink:href="#P"/></g><path fill="#333" d="M107 61C57 61 25 39 23-9c-2-65 71-58 78-115h30c1 64-76 54-76 114 0 30 21 42 52 43 32 0 53-17 56-46l32 2c-6 46-36 72-88 72zm26-251v35H99v-35h34" id="ag"/><path fill="#333" d="M185-189c-5-48-123-54-124 2 14 75 158 14 163 119 3 78-121 87-175 55-17-10-28-26-33-46l33-7c5 56 141 63 141-1 0-78-155-14-162-118-5-82 145-84 179-34 5 7 8 16 11 25" id="ah"/><g id="p"><use transform="matrix(0.06172839506172839,0,0,0.06172839506172839,0,0)" xlink:href="#ag"/><use transform="matrix(0.06172839506172839,0,0,0.06172839506172839,13.518518518518517,0)" xlink:href="#ah"/><use transform="matrix(0.06172839506172839,0,0,0.06172839506172839,28.33333333333333,0)" xlink:href="#Z"/></g><g id="q"><use transform="matrix(0.06172839506172839,0,0,0.06172839506172839,0,0)" xlink:href="#X"/><use transform="matrix(0.06172839506172839,0,0,0.06172839506172839,12.345679012345679,0)" xlink:href="#R"/></g><path fill="#333" d="M115-194c55 1 70 41 70 98S169 2 115 4C84 4 66-9 55-30l1 105H24l-1-265h31l2 30c10-21 28-34 59-34zm-8 174c40 0 45-34 45-75s-6-73-45-74c-42 0-51 32-51 76 0 43 10 73 51 73" id="ai"/><g id="r"><use transform="matrix(0.06172839506172839,0,0,0.06172839506172839,0,0)" xlink:href="#ai"/><use transform="matrix(0.06172839506172839,0,0,0.06172839506172839,12.345679012345679,0)" xlink:href="#Y"/><use transform="matrix(0.06172839506172839,0,0,0.06172839506172839,24.691358024691358,0)" xlink:href="#aa"/><use transform="matrix(0.06172839506172839,0,0,0.06172839506172839,29.5679012345679,0)" xlink:href="#P"/><use transform="matrix(0.06172839506172839,0,0,0.06172839506172839,40.67901234567901,0)" xlink:href="#R"/><use transform="matrix(0.06172839506172839,0,0,0.06172839506172839,53.02469135802469,0)" xlink:href="#S"/><use transform="matrix(0.06172839506172839,0,0,0.06172839506172839,65.37037037037037,0)" xlink:href="#T"/></g><g id="s"><use transform="matrix(0.06172839506172839,0,0,0.06172839506172839,0,0)" xlink:href="#Z"/><use transform="matrix(0.06172839506172839,0,0,0.06172839506172839,12.345679012345679,0)" xlink:href="#aa"/></g><path fill="#333" d="M115-194c53 0 69 39 70 98 0 66-23 100-70 100C84 3 66-7 56-30L54 0H23l1-261h32v101c10-23 28-34 59-34zm-8 174c40 0 45-34 45-75 0-40-5-75-45-74-42 0-51 32-51 76 0 43 10 73 51 73" id="aj"/><path fill="#333" d="M100-194c62-1 85 37 85 99 1 63-27 99-86 99S16-35 15-95c0-66 28-99 85-99zM99-20c44 1 53-31 53-75 0-43-8-75-51-75s-53 32-53 75 10 74 51 75zM76-211c8-23 27-35 38-54h36v5l-58 49H76" id="ak"/><g id="t"><use transform="matrix(0.06172839506172839,0,0,0.06172839506172839,0,0)" xlink:href="#aj"/><use transform="matrix(0.06172839506172839,0,0,0.06172839506172839,12.345679012345679,0)" xlink:href="#T"/><use transform="matrix(0.06172839506172839,0,0,0.06172839506172839,24.691358024691358,0)" xlink:href="#Q"/><use transform="matrix(0.06172839506172839,0,0,0.06172839506172839,30.864197530864196,0)" xlink:href="#ak"/><use transform="matrix(0.06172839506172839,0,0,0.06172839506172839,43.20987654320987,0)" xlink:href="#N"/></g><path fill="#333" d="M103-251c84 0 111 97 45 133-19 10-37 24-39 52H78c0-63 77-55 77-114 0-30-21-42-52-43-32 0-53 17-56 46l-32-2c7-45 34-72 88-72zM77 0v-35h34V0H77" id="al"/><g id="u"><use transform="matrix(0.06172839506172839,0,0,0.06172839506172839,0,0)" xlink:href="#af"/><use transform="matrix(0.06172839506172839,0,0,0.06172839506172839,12.345679012345679,0)" xlink:href="#Y"/><use transform="matrix(0.06172839506172839,0,0,0.06172839506172839,24.691358024691358,0)" xlink:href="#R"/><use transform="matrix(0.06172839506172839,0,0,0.06172839506172839,37.03703703703704,0)" xlink:href="#W"/><use transform="matrix(0.06172839506172839,0,0,0.06172839506172839,44.382716049382715,0)" xlink:href="#S"/><use transform="matrix(0.06172839506172839,0,0,0.06172839506172839,56.72839506172839,0)" xlink:href="#R"/><use transform="matrix(0.06172839506172839,0,0,0.06172839506172839,69.07407407407408,0)" xlink:href="#S"/><use transform="matrix(0.06172839506172839,0,0,0.06172839506172839,81.41975308641976,0)" xlink:href="#T"/><use transform="matrix(0.06172839506172839,0,0,0.06172839506172839,93.76543209876544,0)" xlink:href="#al"/></g><path fill="#333" d="M96-169c-40 0-48 33-48 73s9 75 48 75c24 0 41-14 43-38l32 2c-6 37-31 61-74 61-59 0-76-41-82-99-10-93 101-131 147-64 4 7 5 14 7 22l-32 3c-4-21-16-35-41-35" id="am"/><g id="v"><use transform="matrix(0.06172839506172839,0,0,0.06172839506172839,0,0)" xlink:href="#am"/><use transform="matrix(0.06172839506172839,0,0,0.06172839506172839,11.11111111111111,0)" xlink:href="#R"/><use transform="matrix(0.06172839506172839,0,0,0.06172839506172839,23.45679012345679,0)" xlink:href="#W"/><use transform="matrix(0.06172839506172839,0,0,0.06172839506172839,30.80246913580247,0)" xlink:href="#af"/><use transform="matrix(0.06172839506172839,0,0,0.06172839506172839,43.148148148148145,0)" xlink:href="#R"/><use transform="matrix(0.06172839506172839,0,0,0.06172839506172839,55.49382716049382,0)" xlink:href="#S"/><use transform="matrix(0.06172839506172839,0,0,0.06172839506172839,67.8395061728395,0)" xlink:href="#T"/><use transform="matrix(0.06172839506172839,0,0,0.06172839506172839,80.18518518518519,0)" xlink:href="#al"/></g><path fill="#333" d="M143 4C61 4 22-44 18-125c-5-107 100-154 193-111 17 8 29 25 37 43l-32 9c-13-25-37-40-76-40-61 0-88 39-88 99 0 61 29 100 91 101 35 0 62-11 79-27v-45h-74v-28h105v86C228-13 192 4 143 4" id="an"/><g id="w"><use transform="matrix(0.06172839506172839,0,0,0.06172839506172839,0,0)" xlink:href="#an"/><use transform="matrix(0.06172839506172839,0,0,0.06172839506172839,17.28395061728395,0)" xlink:href="#Y"/><use transform="matrix(0.06172839506172839,0,0,0.06172839506172839,29.629629629629626,0)" xlink:href="#R"/><use transform="matrix(0.06172839506172839,0,0,0.06172839506172839,41.9753086419753,0)" xlink:href="#W"/><use transform="matrix(0.06172839506172839,0,0,0.06172839506172839,49.32098765432098,0)" xlink:href="#S"/><use transform="matrix(0.06172839506172839,0,0,0.06172839506172839,61.66666666666666,0)" xlink:href="#R"/></g><g id="x"><use transform="matrix(0.06172839506172839,0,0,0.06172839506172839,0,0)" xlink:href="#ab"/><use transform="matrix(0.06172839506172839,0,0,0.06172839506172839,11.11111111111111,0)" xlink:href="#R"/><use transform="matrix(0.06172839506172839,0,0,0.06172839506172839,23.45679012345679,0)" xlink:href="#aa"/><use transform="matrix(0.06172839506172839,0,0,0.06172839506172839,28.333333333333336,0)" xlink:href="#T"/><use transform="matrix(0.06172839506172839,0,0,0.06172839506172839,40.67901234567901,0)" xlink:href="#W"/><use transform="matrix(0.06172839506172839,0,0,0.06172839506172839,48.02469135802469,0)" xlink:href="#Z"/><use transform="matrix(0.06172839506172839,0,0,0.06172839506172839,60.37037037037037,0)" xlink:href="#P"/></g><g id="y"><use transform="matrix(0.06172839506172839,0,0,0.06172839506172839,0,0)" xlink:href="#R"/><use transform="matrix(0.06172839506172839,0,0,0.06172839506172839,12.345679012345679,0)" xlink:href="#am"/><use transform="matrix(0.06172839506172839,0,0,0.06172839506172839,23.45679012345679,0)" xlink:href="#Q"/><use transform="matrix(0.06172839506172839,0,0,0.06172839506172839,29.62962962962963,0)" xlink:href="#Y"/><use transform="matrix(0.06172839506172839,0,0,0.06172839506172839,41.97530864197531,0)" xlink:href="#R"/><use transform="matrix(0.06172839506172839,0,0,0.06172839506172839,54.32098765432099,0)" xlink:href="#aa"/><use transform="matrix(0.06172839506172839,0,0,0.06172839506172839,59.19753086419753,0)" xlink:href="#Z"/><use transform="matrix(0.06172839506172839,0,0,0.06172839506172839,71.54320987654322,0)" xlink:href="#P"/></g><g id="z"><use transform="matrix(0.06172839506172839,0,0,0.06172839506172839,0,0)" xlink:href="#S"/><use transform="matrix(0.06172839506172839,0,0,0.06172839506172839,12.345679012345679,0)" xlink:href="#Z"/></g><g id="A"><use transform="matrix(0.06172839506172839,0,0,0.06172839506172839,0,0)" xlink:href="#aa"/><use transform="matrix(0.06172839506172839,0,0,0.06172839506172839,4.876543209876543,0)" xlink:href="#R"/></g><g id="B"><use transform="matrix(0.06172839506172839,0,0,0.06172839506172839,0,0)" xlink:href="#R"/><use transform="matrix(0.06172839506172839,0,0,0.06172839506172839,12.345679012345679,0)" xlink:href="#aa"/><use transform="matrix(0.06172839506172839,0,0,0.06172839506172839,17.22222222222222,0)" xlink:href="#R"/><use transform="matrix(0.06172839506172839,0,0,0.06172839506172839,29.5679012345679,0)" xlink:href="#W"/><use transform="matrix(0.06172839506172839,0,0,0.06172839506172839,36.913580246913575,0)" xlink:href="#ac"/><use transform="matrix(0.06172839506172839,0,0,0.06172839506172839,55.37037037037037,0)" xlink:href="#R"/></g><path fill="#333" d="M169-182c-1-43-94-46-97-3 18 66 151 10 154 114 3 95-165 93-204 36-6-8-10-19-12-30l50-8c3 46 112 56 116 5-17-69-150-10-154-114-4-87 153-88 188-35 5 8 8 18 10 28" id="ao"/><path fill="#333" d="M25 0v-190h50V0H25zm-5-208v-5l45-51h45v8l-60 48H20" id="ap"/><g id="C"><use transform="matrix(0.04938271604938272,0,0,0.04938271604938272,0,0)" xlink:href="#ao"/><use transform="matrix(0.04938271604938272,0,0,0.04938271604938272,11.851851851851853,0)" xlink:href="#ap"/></g><path fill="#333" d="M212-179c-10-28-35-45-73-45-59 0-87 40-87 99 0 60 29 101 89 101 43 0 62-24 78-52l27 14C228-24 195 4 139 4 59 4 22-46 18-125c-6-104 99-153 187-111 19 9 31 26 39 46" id="aq"/><g id="D"><use transform="matrix(0.06172839506172839,0,0,0.06172839506172839,0,0)" xlink:href="#aq"/><use transform="matrix(0.06172839506172839,0,0,0.06172839506172839,15.987654320987653,0)" xlink:href="#R"/><use transform="matrix(0.06172839506172839,0,0,0.06172839506172839,28.333333333333332,0)" xlink:href="#W"/><use transform="matrix(0.06172839506172839,0,0,0.06172839506172839,35.67901234567901,0)" xlink:href="#af"/><use transform="matrix(0.06172839506172839,0,0,0.06172839506172839,48.02469135802469,0)" xlink:href="#R"/></g><g id="E"><use transform="matrix(0.06172839506172839,0,0,0.06172839506172839,0,0)" xlink:href="#af"/><use transform="matrix(0.06172839506172839,0,0,0.06172839506172839,12.345679012345679,0)" xlink:href="#Y"/><use transform="matrix(0.06172839506172839,0,0,0.06172839506172839,24.691358024691358,0)" xlink:href="#R"/><use transform="matrix(0.06172839506172839,0,0,0.06172839506172839,37.03703703703704,0)" xlink:href="#W"/><use transform="matrix(0.06172839506172839,0,0,0.06172839506172839,44.382716049382715,0)" xlink:href="#S"/><use transform="matrix(0.06172839506172839,0,0,0.06172839506172839,56.72839506172839,0)" xlink:href="#R"/><use transform="matrix(0.06172839506172839,0,0,0.06172839506172839,69.07407407407408,0)" xlink:href="#S"/><use transform="matrix(0.06172839506172839,0,0,0.06172839506172839,81.41975308641976,0)" xlink:href="#T"/><use transform="matrix(0.06172839506172839,0,0,0.06172839506172839,93.76543209876544,0)" xlink:href="#P"/></g><path fill="#333" d="M137 0h-34L2-248h35l83 218 83-218h36" id="ar"/><path fill="#333" d="M101-234c-31-9-42 10-38 44h38v23H63V0H32v-167H5v-23h27c-7-52 17-82 69-68v24" id="as"/><g id="F"><use transform="matrix(0.06172839506172839,0,0,0.06172839506172839,0,0)" xlink:href="#ar"/><use transform="matrix(0.06172839506172839,0,0,0.06172839506172839,13.580246913580245,0)" xlink:href="#Z"/><use transform="matrix(0.06172839506172839,0,0,0.06172839506172839,25.925925925925924,0)" xlink:href="#W"/><use transform="matrix(0.06172839506172839,0,0,0.06172839506172839,33.2716049382716,0)" xlink:href="#M"/><use transform="matrix(0.06172839506172839,0,0,0.06172839506172839,38.148148148148145,0)" xlink:href="#as"/><use transform="matrix(0.06172839506172839,0,0,0.06172839506172839,44.32098765432099,0)" xlink:href="#M"/><use transform="matrix(0.06172839506172839,0,0,0.06172839506172839,49.19753086419753,0)" xlink:href="#am"/><use transform="matrix(0.06172839506172839,0,0,0.06172839506172839,60.308641975308646,0)" xlink:href="#R"/><use transform="matrix(0.06172839506172839,0,0,0.06172839506172839,72.65432098765433,0)" xlink:href="#W"/></g><g id="G"><use transform="matrix(0.06172839506172839,0,0,0.06172839506172839,0,0)" xlink:href="#Z"/><use transform="matrix(0.06172839506172839,0,0,0.06172839506172839,12.345679012345679,0)" xlink:href="#P"/><use transform="matrix(0.06172839506172839,0,0,0.06172839506172839,23.45679012345679,0)" xlink:href="#Q"/><use transform="matrix(0.06172839506172839,0,0,0.06172839506172839,29.62962962962963,0)" xlink:href="#R"/><use transform="matrix(0.06172839506172839,0,0,0.06172839506172839,41.97530864197531,0)" xlink:href="#S"/><use transform="matrix(0.06172839506172839,0,0,0.06172839506172839,54.32098765432099,0)" xlink:href="#T"/></g><g id="H"><use transform="matrix(0.06172839506172839,0,0,0.06172839506172839,0,0)" xlink:href="#R"/><use transform="matrix(0.06172839506172839,0,0,0.06172839506172839,12.345679012345679,0)" xlink:href="#am"/><use transform="matrix(0.06172839506172839,0,0,0.06172839506172839,23.45679012345679,0)" xlink:href="#Q"/><use transform="matrix(0.06172839506172839,0,0,0.06172839506172839,29.62962962962963,0)" xlink:href="#Y"/><use transform="matrix(0.06172839506172839,0,0,0.06172839506172839,41.97530864197531,0)" xlink:href="#R"/><use transform="matrix(0.06172839506172839,0,0,0.06172839506172839,54.32098765432099,0)" xlink:href="#aa"/></g><g id="I"><use transform="matrix(0.06172839506172839,0,0,0.06172839506172839,0,0)" xlink:href="#S"/><use transform="matrix(0.06172839506172839,0,0,0.06172839506172839,12.345679012345679,0)" xlink:href="#Z"/><use transform="matrix(0.06172839506172839,0,0,0.06172839506172839,24.691358024691358,0)" xlink:href="#aa"/></g><path fill="#333" d="M24-231v-30h32v30H24zM-9 49c24 4 33-6 33-30v-209h32V24c2 40-23 58-65 49V49" id="at"/><g id="J"><use transform="matrix(0.06172839506172839,0,0,0.06172839506172839,0,0)" xlink:href="#W"/><use transform="matrix(0.06172839506172839,0,0,0.06172839506172839,7.345679012345679,0)" xlink:href="#Z"/><use transform="matrix(0.06172839506172839,0,0,0.06172839506172839,19.691358024691358,0)" xlink:href="#aa"/><use transform="matrix(0.06172839506172839,0,0,0.06172839506172839,24.5679012345679,0)" xlink:href="#T"/><use transform="matrix(0.06172839506172839,0,0,0.06172839506172839,36.913580246913575,0)" xlink:href="#at"/></g><path fill="#333" d="M175 0L67-191c6 58 2 128 3 191H24v-248h59L193-55c-6-58-2-129-3-193h46V0h-61" id="au"/><path fill="#333" d="M110-194c64 0 96 36 96 99 0 64-35 99-97 99-61 0-95-36-95-99 0-62 34-99 96-99zm-1 164c35 0 45-28 45-65 0-40-10-65-43-65-34 0-45 26-45 65 0 36 10 65 43 65" id="av"/><g id="K"><use transform="matrix(0.04938271604938272,0,0,0.04938271604938272,0,0)" xlink:href="#au"/><use transform="matrix(0.04938271604938272,0,0,0.04938271604938272,12.790123456790125,0)" xlink:href="#av"/></g></defs></g></svg>