<svg xmlns="http://www.w3.org/2000/svg" xmlns:xlink="http://www.w3.org/1999/xlink" xmlns:lucid="lucid" width="803.46" height="1716"><g transform="translate(-589 -940)" lucid:page-tab-id="0_0"><path d="M814.5 966a6 6 0 0 1 6-6h168a6 6 0 0 1 6 6v68a6 6 0 0 1-6 6h-168a6 6 0 0 1-6-6z" stroke="#5e5e5e" stroke-width="3" fill="#fff"/><use xlink:href="#a" transform="matrix(1,0,0,1,826.4935691104815,972) translate(34.17283950617284 21.27777777777778)"/><use xlink:href="#b" transform="matrix(1,0,0,1,826.4935691104815,972) translate(109.48148148148147 21.27777777777778)"/><use xlink:href="#c" transform="matrix(1,0,0,1,826.4935691104815,972) translate(0.9938271604938222 47.94444444444444)"/><use xlink:href="#d" transform="matrix(1,0,0,1,826.4935691104815,972) translate(110.62345679012347 47.94444444444444)"/><path d="M742.25 1103.07a6 6 0 0 1 6-6h318a6 6 0 0 1 6 6v86.67a6 6 0 0 1-6 6h-318a6 6 0 0 1-6-6z" stroke="#5e5e5e" stroke-width="3" fill="#fff"/><use xlink:href="#e" transform="matrix(1,0,0,1,754.2467845552408,1109.0735438277031) translate(41.42592592592594 17.77777777777778)"/><use xlink:href="#f" transform="matrix(1,0,0,1,754.2467845552408,1109.0735438277031) translate(127.72222222222223 17.77777777777778)"/><use xlink:href="#g" transform="matrix(1,0,0,1,754.2467845552408,1109.0735438277031) translate(162.2283950617284 17.77777777777778)"/><use xlink:href="#h" transform="matrix(1,0,0,1,754.2467845552408,1109.0735438277031) translate(239.88271604938268 17.77777777777778)"/><use xlink:href="#i" transform="matrix(1,0,0,1,754.2467845552408,1109.0735438277031) translate(32.75308641975309 44.44444444444444)"/><use xlink:href="#j" transform="matrix(1,0,0,1,754.2467845552408,1109.0735438277031) translate(116.58024691358024 44.44444444444444)"/><use xlink:href="#k" transform="matrix(1,0,0,1,754.2467845552408,1109.0735438277031) translate(133.8641975308642 44.44444444444444)"/><use xlink:href="#l" transform="matrix(1,0,0,1,754.2467845552408,1109.0735438277031) translate(195.53086419753086 44.44444444444444)"/><use xlink:href="#f" transform="matrix(1,0,0,1,754.2467845552408,1109.0735438277031) translate(226.39506172839506 44.44444444444444)"/><use xlink:href="#m" transform="matrix(1,0,0,1,754.2467845552408,1109.0735438277031) translate(260.90123456790127 44.44444444444444)"/><use xlink:href="#n" transform="matrix(1,0,0,1,754.2467845552408,1109.0735438277031) translate(98.70987654320987 71.11111111111111)"/><path d="M904.5 1042.46v34.65" stroke="#5e5e5e" stroke-width="2" fill="none"/><path d="M905.5 1042.5h-2v-1.04h2z" stroke="#5e5e5e" stroke-width=".05" fill="#5e5e5e"/><path d="M904.5 1092.37l-4.64-14.26h9.27z" stroke="#5e5e5e" stroke-width="2" fill="#5e5e5e"/><path d="M902.45 1259.34a8 8 0 0 1 9.6 0l110.4 82.8a4.5 4.5 0 0 1 0 7.2l-110.4 82.8a8 8 0 0 1-9.6 0l-110.4-82.8a4.5 4.5 0 0 1 0-7.2z" stroke="#5e5e5e" stroke-width="3" fill="#fff"/><use xlink:href="#o" transform="matrix(1,0,0,1,792.2467845552408,1260.7402104943699) translate(79.2333950617284 49.65277777777778)"/><use xlink:href="#p" transform="matrix(1,0,0,1,792.2467845552408,1260.7402104943699) translate(126.08524691358025 49.65277777777778)"/><use xlink:href="#q" transform="matrix(1,0,0,1,792.2467845552408,1260.7402104943699) translate(33.585246913580264 76.31944444444446)"/><use xlink:href="#r" transform="matrix(1,0,0,1,792.2467845552408,1260.7402104943699) translate(117.47413580246915 76.31944444444446)"/><use xlink:href="#s" transform="matrix(1,0,0,1,792.2467845552408,1260.7402104943699) translate(140.8691975308642 76.31944444444446)"/><use xlink:href="#t" transform="matrix(1,0,0,1,792.2467845552408,1260.7402104943699) translate(40.961790123456794 102.98611111111111)"/><use xlink:href="#u" transform="matrix(1,0,0,1,792.2467845552408,1260.7402104943699) translate(71.82598765432098 102.98611111111111)"/><use xlink:href="#h" transform="matrix(1,0,0,1,792.2467845552408,1260.7402104943699) translate(164.35685185185184 102.98611111111111)"/><use xlink:href="#v" transform="matrix(1,0,0,1,792.2467845552408,1260.7402104943699) translate(70.00500000000001 129.6527777777778)"/><path d="M902.56 1540.82a7.5 7.5 0 0 1 9.37 0l110.63 88.5a4.8 4.8 0 0 1 0 7.5l-110.63 88.5a7.5 7.5 0 0 1-9.37 0l-110.63-88.5a4.8 4.8 0 0 1 0-7.5z" stroke="#5e5e5e" stroke-width="3" fill="#fff"/><use xlink:href="#w" transform="matrix(1,0,0,1,792.2467845552408,1542.0735438277034) translate(94.6654938271605 29.787777777777777)"/><use xlink:href="#x" transform="matrix(1,0,0,1,792.2467845552408,1542.0735438277034) translate(60.714876543209876 56.45444444444445)"/><use xlink:href="#y" transform="matrix(1,0,0,1,792.2467845552408,1542.0735438277034) translate(91.57907407407407 56.45444444444445)"/><use xlink:href="#r" transform="matrix(1,0,0,1,792.2467845552408,1542.0735438277034) translate(60.09759259259259 83.1211111111111)"/><use xlink:href="#z" transform="matrix(1,0,0,1,792.2467845552408,1542.0735438277034) translate(83.49265432098764 83.1211111111111)"/><use xlink:href="#h" transform="matrix(1,0,0,1,792.2467845552408,1542.0735438277034) translate(145.22104938271605 83.1211111111111)"/><use xlink:href="#A" transform="matrix(1,0,0,1,792.2467845552408,1542.0735438277034) translate(40.992654320987654 109.78777777777779)"/><use xlink:href="#h" transform="matrix(1,0,0,1,792.2467845552408,1542.0735438277034) translate(164.32598765432098 109.78777777777779)"/><use xlink:href="#v" transform="matrix(1,0,0,1,792.2467845552408,1542.0735438277034) translate(70.005 136.45444444444445)"/><path d="M902.45 1834a8 8 0 0 1 9.6 0l110.4 82.8a4.5 4.5 0 0 1 0 7.2l-110.4 82.8a8 8 0 0 1-9.6 0l-110.4-82.8a4.5 4.5 0 0 1 0-7.2z" stroke="#5e5e5e" stroke-width="3" fill="#fff"/><use xlink:href="#o" transform="matrix(1,0,0,1,792.2467845552408,1835.4068771610368) translate(79.2333950617284 49.65277777777778)"/><use xlink:href="#p" transform="matrix(1,0,0,1,792.2467845552408,1835.4068771610368) translate(126.08524691358025 49.65277777777778)"/><use xlink:href="#q" transform="matrix(1,0,0,1,792.2467845552408,1835.4068771610368) translate(33.585246913580264 76.31944444444446)"/><use xlink:href="#r" transform="matrix(1,0,0,1,792.2467845552408,1835.4068771610368) translate(117.47413580246915 76.31944444444446)"/><use xlink:href="#s" transform="matrix(1,0,0,1,792.2467845552408,1835.4068771610368) translate(140.8691975308642 76.31944444444446)"/><use xlink:href="#t" transform="matrix(1,0,0,1,792.2467845552408,1835.4068771610368) translate(40.961790123456794 102.98611111111111)"/><use xlink:href="#u" transform="matrix(1,0,0,1,792.2467845552408,1835.4068771610368) translate(71.82598765432098 102.98611111111111)"/><use xlink:href="#h" transform="matrix(1,0,0,1,792.2467845552408,1835.4068771610368) translate(164.35685185185184 102.98611111111111)"/><use xlink:href="#B" transform="matrix(1,0,0,1,792.2467845552408,1835.4068771610368) translate(81.08524691358025 129.6527777777778)"/><path d="M902.45 2115.34a8 8 0 0 1 9.6 0l110.4 82.8a4.5 4.5 0 0 1 0 7.2l-110.4 82.8a8 8 0 0 1-9.6 0l-110.4-82.8a4.5 4.5 0 0 1 0-7.2z" stroke="#5e5e5e" stroke-width="3" fill="#fff"/><use xlink:href="#w" transform="matrix(1,0,0,1,792.2467845552408,2116.7402104943703) translate(94.6654938271605 28.40277777777778)"/><use xlink:href="#x" transform="matrix(1,0,0,1,792.2467845552408,2116.7402104943703) translate(60.714876543209876 55.06944444444445)"/><use xlink:href="#y" transform="matrix(1,0,0,1,792.2467845552408,2116.7402104943703) translate(91.57907407407407 55.06944444444445)"/><use xlink:href="#r" transform="matrix(1,0,0,1,792.2467845552408,2116.7402104943703) translate(60.09759259259259 81.73611111111111)"/><use xlink:href="#z" transform="matrix(1,0,0,1,792.2467845552408,2116.7402104943703) translate(83.49265432098764 81.73611111111111)"/><use xlink:href="#h" transform="matrix(1,0,0,1,792.2467845552408,2116.7402104943703) translate(145.22104938271605 81.73611111111111)"/><use xlink:href="#A" transform="matrix(1,0,0,1,792.2467845552408,2116.7402104943703) translate(40.99265432098765 108.4027777777778)"/><use xlink:href="#h" transform="matrix(1,0,0,1,792.2467845552408,2116.7402104943703) translate(164.32598765432098 108.4027777777778)"/><use xlink:href="#B" transform="matrix(1,0,0,1,792.2467845552408,2116.7402104943703) translate(81.08524691358025 135.06944444444446)"/><path d="M1053.75 1346.74h-27v-2h27zm26.3-2.93l-9.5.02v-2h9.48z" stroke="#5e5e5e" stroke-width=".05" fill="#5e5e5e"/><path d="M1026.78 1346.74h-1.12l.1-1-.1-1h1.12z" fill="#5e5e5e"/><path d="M1026.8 1346.77h-1.17l.1-1.03-.1-1.02h1.17zm-1.1-2l.08.97-.1.98h1.07v-1.95z" stroke="#5e5e5e" stroke-width=".05" fill="#5e5e5e"/><path d="M1095.3 1342.8l-14.27 4.65v-9.27z" fill="#5e5e5e"/><path d="M1098.54 1342.8l-18.5 6.03v-12.03zm-16.5 3.27l10.02-3.26-10.03-3.25z" stroke="#5e5e5e" stroke-width=".05" fill="#5e5e5e"/><use xlink:href="#C" transform="matrix(1,0,0,1,1053.7497825873063,1333.6103157415546) translate(0.005000000000000782 14.222222222222223)"/><path d="M1100 1308.8a6 6 0 0 1 6-6h208a6 6 0 0 1 6 6v68a6 6 0 0 1-6 6h-208a6 6 0 0 1-6-6z" stroke="#5e5e5e" stroke-width="3" fill="#fff"/><use xlink:href="#D" transform="matrix(1,0,0,1,1112,1314.8137543220728) translate(1.7962962962963047 21.27777777777778)"/><use xlink:href="#E" transform="matrix(1,0,0,1,1112,1314.8137543220728) translate(104.14197530864197 21.27777777777778)"/><use xlink:href="#t" transform="matrix(1,0,0,1,1112,1314.8137543220728) translate(43.74074074074075 47.94444444444444)"/><use xlink:href="#F" transform="matrix(1,0,0,1,1112,1314.8137543220728) translate(74.60493827160494 47.94444444444444)"/><path d="M1356.56 1341.9l1.07.25 1 .42.95.58.84.7.7.85.58.93.42 1.02.27 1.1.06 143.96-.08 1.07-.26 1.07-.42 1-.57.95-.7.83-.85.7-.94.58-1 .44-1.12.26-443.23.07-.83.07-.77.18-.72.3-.67.4-.6.52-.5.6-.4.67-.3.73-.18.73-.07 16.32h-2l.07-16.56.27-1.1.4-1.02.58-.94.7-.84.85-.7.94-.58 1-.43 1.08-.24 1.06-.1 443.08-.06.73-.17.73-.3.67-.4.6-.52.5-.6.42-.66.3-.72.18-.76.06-.82-.07-143.65-.18-.73-.3-.72-.4-.67-.52-.6-.6-.5-.67-.42-.72-.3-.75-.18-.83-.07h-32.96v-2h33.04z" stroke="#5e5e5e" stroke-width=".05" fill="#5e5e5e"/><path d="M1322.5 1343.8h-1.04v-2h1.03z" fill="#5e5e5e"/><path d="M1322.5 1343.84h-1.06v-2.05h1.07zm-1-2v1.95h.96v-1.96z" stroke="#5e5e5e" stroke-width=".05" fill="#5e5e5e"/><path d="M907.25 1534.44l-4.64-14.27h9.28z" fill="#5e5e5e"/><path d="M907.25 1537.67l-6-18.5h12zm-3.26-16.5l3.25 10.03 3.26-10.03zM908.25 1519.17h-2V1480h2zm0-60.5h-2v-22.43h2z" stroke="#5e5e5e" stroke-width=".05" fill="#5e5e5e"/><path d="M907.25 1435.24l1-.06v1.1h-2v-1.1z" fill="#5e5e5e"/><path d="M907.25 1435.22l1.02-.07v1.14h-2.05v-1.15zm-.98 1.02h1.95v-1.03l-.97.07-.98-.06z" stroke="#5e5e5e" stroke-width=".05" fill="#5e5e5e"/><path d="M907.25 1534.44l-4.64-14.27h9.28z" fill="#5e5e5e"/><path d="M907.25 1537.67l-6-18.5h12zm-3.26-16.5l3.25 10.03 3.26-10.03z" stroke="#5e5e5e" stroke-width=".05" fill="#5e5e5e"/><use xlink:href="#G" transform="matrix(1,0,0,1,895.4443154194383,1458.6666666666665) translate(0.005000000000000782 14.222222222222223)"/><path d="M1100 1599.54a6 6 0 0 1 6-6h228a6 6 0 0 1 6 6v67.07a6 6 0 0 1-6 6h-228a6 6 0 0 1-6-6z" stroke="#5e5e5e" stroke-width="3" fill="#fff"/><use xlink:href="#H" transform="matrix(1,0,0,1,1112,1605.5367719138517) translate(43.925925925925924 21.27777777777778)"/><use xlink:href="#I" transform="matrix(1,0,0,1,1112,1605.5367719138517) translate(5.62345679012347 47.94444444444444)"/><use xlink:href="#t" transform="matrix(1,0,0,1,1112,1605.5367719138517) translate(101.85802469135804 47.94444444444444)"/><use xlink:href="#F" transform="matrix(1,0,0,1,1112,1605.5367719138517) translate(132.72222222222223 47.94444444444444)"/><path d="M1053.8 1634.07h-26.93v-2h26.94zm26.23 0h-9.43v-2h9.43z" stroke="#5e5e5e" stroke-width=".05" fill="#5e5e5e"/><path d="M1026.9 1634.07h-1.12l.1-1-.1-1h1.1z" fill="#5e5e5e"/><path d="M1026.92 1634.1h-1.17l.1-1.03-.1-1.02h1.17zm-1.1-2l.07.97-.1.98h1.07v-1.95z" stroke="#5e5e5e" stroke-width=".05" fill="#5e5e5e"/><path d="M1095.3 1633.07l-14.27 4.64v-9.26z" fill="#5e5e5e"/><path d="M1098.54 1633.07l-18.5 6.02v-12.04zm-16.5 3.26l10.02-3.26-10.03-3.26z" stroke="#5e5e5e" stroke-width=".05" fill="#5e5e5e"/><use xlink:href="#C" transform="matrix(1,0,0,1,1053.8076906447184,1622.4068771610366) translate(0.005000000000000782 14.222222222222223)"/><path d="M1376.56 1632.16l1.07.25 1 .43.95.58.84.72.7.84.58.93.42 1 .27 1.12.06 146.92-.08 1.06-.26 1.07-.42 1-.57.95-.7.84-.85.7-.94.58-1 .42-1.12.27-463.23.07-.83.07-.77.18-.72.3-.67.4-.6.52-.5.6-.4.67-.3.72-.18.73-.07 16.3h-2l.07-16.56.27-1.1.4-1.02.58-.93.7-.85.85-.7.94-.6 1-.4 1.08-.26 1.06-.1 463.08-.07.73-.17.73-.3.67-.4.6-.52.5-.6.42-.67.3-.72.18-.76.06-.84-.07-146.6-.18-.73-.3-.73-.4-.66-.52-.6-.6-.5-.67-.42-.72-.3-.75-.18-.83-.07h-32.96v-2h33.04z" stroke="#5e5e5e" stroke-width=".05" fill="#5e5e5e"/><path d="M1342.5 1634.07h-1.04v-2h1.03z" fill="#5e5e5e"/><path d="M1342.5 1634.1h-1.06v-2.05h1.07zm-1-2v1.95h.96v-1.95z" stroke="#5e5e5e" stroke-width=".05" fill="#5e5e5e"/><path d="M907.25 1827.67l-4.64-14.27h9.28z" fill="#5e5e5e"/><path d="M907.25 1830.9l-6-18.5h12zm-3.26-16.5l3.25 10.03 3.26-10.03zM908.25 1812.4h-2v-30.8h2zm0-52.14h-2v-30.8h2z" stroke="#5e5e5e" stroke-width=".05" fill="#5e5e5e"/><path d="M907.25 1728.47l1-.07v1.1h-2v-1.1z" fill="#5e5e5e"/><path d="M907.25 1728.45l1.02-.07v1.14h-2.05v-1.14zm-.98 1.02h1.95v-1.04l-.97.07-.98-.07z" stroke="#5e5e5e" stroke-width=".05" fill="#5e5e5e"/><path d="M907.25 1827.67l-4.64-14.27h9.28z" fill="#5e5e5e"/><path d="M907.25 1830.9l-6-18.5h12zm-3.26-16.5l3.25 10.03 3.26-10.03z" stroke="#5e5e5e" stroke-width=".05" fill="#5e5e5e"/><use xlink:href="#G" transform="matrix(1,0,0,1,895.4443154194383,1760.2638891802287) translate(0.005000000000000782 14.222222222222223)"/><path d="M1110 1886a6 6 0 0 1 6-6h208a6 6 0 0 1 6 6v68a6 6 0 0 1-6 6h-208a6 6 0 0 1-6-6z" stroke="#5e5e5e" stroke-width="3" fill="#fff"/><g><use xlink:href="#D" transform="matrix(1,0,0,1,1122,1892) translate(1.7962962962963047 21.27777777777778)"/><use xlink:href="#E" transform="matrix(1,0,0,1,1122,1892) translate(104.14197530864197 21.27777777777778)"/><use xlink:href="#t" transform="matrix(1,0,0,1,1122,1892) translate(54.82098765432099 47.94444444444444)"/><use xlink:href="#J" transform="matrix(1,0,0,1,1122,1892) translate(85.68518518518519 47.94444444444444)"/></g><path d="M1058.75 1921.4h-32v-2h32zm31.28 0h-14.5v-2h14.5z" stroke="#5e5e5e" stroke-width=".05" fill="#5e5e5e"/><path d="M1026.78 1921.4h-1.12l.1-1-.1-1h1.12z" fill="#5e5e5e"/><path d="M1026.8 1921.43h-1.17l.1-1.02-.1-1.02h1.17zm-1.1-2l.08.98-.1.98h1.07v-1.95z" stroke="#5e5e5e" stroke-width=".05" fill="#5e5e5e"/><path d="M1105.3 1920.4l-14.26 4.64v-9.27z" fill="#5e5e5e"/><path d="M1108.54 1920.4l-18.5 6.02v-12.02zm-16.5 3.27l10.02-3.26-10.02-3.25z" stroke="#5e5e5e" stroke-width=".05" fill="#5e5e5e"/><g><use xlink:href="#C" transform="matrix(1,0,0,1,1058.750000829333,1909.74021049437) translate(0.005000000000000782 14.222222222222223)"/></g><path d="M908.25 2093.74h-2v-52.07h2zm0-73.4h-2v-9.43h2z" stroke="#5e5e5e" stroke-width=".05" fill="#5e5e5e"/><path d="M907.25 2009.9l1-.05v1.1h-2v-1.1z" fill="#5e5e5e"/><path d="M907.25 2009.88l1.02-.06v1.14h-2.05v-1.14zm-.98 1.03h1.95v-1.03l-.97.07-.98-.07z" stroke="#5e5e5e" stroke-width=".05" fill="#5e5e5e"/><path d="M907.25 2109l-4.64-14.26h9.28z" fill="#5e5e5e"/><path d="M907.25 2112.24l-6-18.5h12zm-3.26-16.5l3.25 10.03 3.26-10.03z" stroke="#5e5e5e" stroke-width=".05" fill="#5e5e5e"/><g><use xlink:href="#G" transform="matrix(1,0,0,1,895.4443154194383,2020.3333333333333) translate(0.005000000000000782 14.222222222222223)"/></g><path d="M1366.56 1919.08l1.07.26 1 .42.95.57.84.72.7.83.58.94.42 1.02.27 1.1.06 141.34-.08 1.05-.26 1.07-.42 1.02-.57.93-.7.84-.85.7-.94.58-1 .42-1.12.26-453.23.08-.83.06-.77.18-.72.3-.67.4-.6.52-.5.6-.4.67-.3.72-.18.72-.07 16.32h-2l.07-16.56.27-1.1.4-1.02.58-.94.7-.83.85-.73.94-.57 1-.42 1.08-.26 1.06-.08 453.08-.08.73-.17.73-.3.67-.42.6-.5.5-.6.42-.67.3-.72.18-.76.06-.82-.07-141.02-.18-.72-.3-.73-.4-.67-.52-.6-.6-.5-.67-.4-.72-.3-.75-.2-.83-.06h-32.96v-2h33.04z" stroke="#5e5e5e" stroke-width=".05" fill="#5e5e5e"/><path d="M1332.5 1921h-1.04v-2h1.03z" fill="#5e5e5e"/><path d="M1332.5 1921.03h-1.06v-2.06h1.07zm-1-2v1.94h.96v-1.94z" stroke="#5e5e5e" stroke-width=".05" fill="#5e5e5e"/><path d="M907.25 2109l-4.64-14.26h9.28z" fill="#5e5e5e"/><path d="M907.25 2112.24l-6-18.5h12zm-3.26-16.5l3.25 10.03 3.26-10.03z" stroke="#5e5e5e" stroke-width=".05" fill="#5e5e5e"/><path d="M907.25 1198.2v39.54" stroke="#5e5e5e" stroke-width="2" fill="none"/><path d="M908.25 1198.23h-2v-1.03h2z" stroke="#5e5e5e" stroke-width=".05" fill="#5e5e5e"/><path d="M907.25 1253l-4.64-14.26h9.28z" stroke="#5e5e5e" stroke-width="2" fill="#5e5e5e"/><path d="M1120 2166a6 6 0 0 1 6-6h208a6 6 0 0 1 6 6v68a6 6 0 0 1-6 6h-208a6 6 0 0 1-6-6z" stroke="#5e5e5e" stroke-width="3" fill="#fff"/><g><use xlink:href="#H" transform="matrix(1,0,0,1,1132,2172) translate(33.925925925925924 21.27777777777778)"/><use xlink:href="#I" transform="matrix(1,0,0,1,1132,2172) translate(6.7037037037037095 47.94444444444444)"/><use xlink:href="#t" transform="matrix(1,0,0,1,1132,2172) translate(102.93827160493828 47.94444444444444)"/><use xlink:href="#J" transform="matrix(1,0,0,1,1132,2172) translate(133.80246913580248 47.94444444444444)"/></g><path d="M1063.75 2202.74h-37v-2h37zm36.28-1.74h-19.5v-2h19.5z" stroke="#5e5e5e" stroke-width=".05" fill="#5e5e5e"/><path d="M1026.78 2202.74h-1.12l.1-1-.1-1h1.12z" fill="#5e5e5e"/><path d="M1026.8 2202.77h-1.17l.1-1.03-.1-1.02h1.17zm-1.1-2l.08.97-.1.98h1.07v-1.95z" stroke="#5e5e5e" stroke-width=".05" fill="#5e5e5e"/><path d="M1115.3 2200l-14.27 4.64v-9.28z" fill="#5e5e5e"/><path d="M1118.54 2200l-18.5 6v-12zm-16.5 3.26l10.02-3.26-10.03-3.26z" stroke="#5e5e5e" stroke-width=".05" fill="#5e5e5e"/><g><use xlink:href="#C" transform="matrix(1,0,0,1,1063.7497825873063,2190.2034385805187) translate(0.005000000000000782 14.222222222222223)"/></g><path d="M809.75 2399.07a6 6 0 0 1 6-6h183a6 6 0 0 1 6 6v69.6a6 6 0 0 1-6 6h-183a6 6 0 0 1-6-6z" stroke="#5e5e5e" stroke-width="3" fill="#fff"/><g><use xlink:href="#K" transform="matrix(1,0,0,1,821.7467845552408,2405.073543827704) translate(9.08024691358024 21.40277777777778)"/><use xlink:href="#L" transform="matrix(1,0,0,1,821.7467845552408,2405.073543827704) translate(95.25308641975309 21.40277777777778)"/><use xlink:href="#M" transform="matrix(1,0,0,1,821.7467845552408,2405.073543827704) translate(14.04938271604938 48.06944444444444)"/><use xlink:href="#N" transform="matrix(1,0,0,1,821.7467845552408,2405.073543827704) translate(79.41975308641975 48.06944444444444)"/><use xlink:href="#O" transform="matrix(1,0,0,1,821.7467845552408,2405.073543827704) translate(115.1604938271605 48.06944444444444)"/></g><path d="M1376.56 2199.08l1.07.26 1 .42.95.57.84.72.7.83.58.94.42 1.02.27 1.1.06 140.7-.08 1.07-.26 1.07-.42 1.02-.57.93-.7.83-.85.72-.94.57-1 .42-1.12.27-463.23.07-.83.07-.77.2-.72.3-.67.4-.6.5-.5.6-.4.67-.3.73-.18.72-.07 16.3h-2l.07-16.55.27-1.1.4-1.02.58-.94.7-.84.85-.72.94-.57 1-.42 1.08-.26 1.06-.1 463.08-.06.73-.18.73-.3.67-.4.6-.52.5-.6.42-.66.3-.73.18-.76.06-.83-.07-140.4-.18-.7-.3-.74-.4-.67-.52-.6-.6-.5-.67-.4-.72-.3-.75-.2-.83-.06h-32.96v-2h33.04z" stroke="#5e5e5e" stroke-width=".05" fill="#5e5e5e"/><path d="M1342.5 2201h-1.04v-2h1.03z" fill="#5e5e5e"/><path d="M1342.5 2201.03h-1.06v-2.06h1.07zm-1-2v1.94h.96v-1.94z" stroke="#5e5e5e" stroke-width=".05" fill="#5e5e5e"/><path d="M907.25 2388.37l-4.64-14.26h9.28z" fill="#5e5e5e"/><path d="M907.25 2391.6l-6-18.5h12zm-3.26-16.5l3.25 10.04 3.26-10.03zM908.25 2373.1h-2v-41.63h2zm0-62.97h-2v-17.9h2z" stroke="#5e5e5e" stroke-width=".05" fill="#5e5e5e"/><path d="M907.25 2291.24l1-.06v1.1h-2v-1.1z" fill="#5e5e5e"/><path d="M907.25 2291.22l1.02-.07v1.14h-2.05v-1.15zm-.98 1.02h1.95v-1.03l-.97.07-.98-.06z" stroke="#5e5e5e" stroke-width=".05" fill="#5e5e5e"/><path d="M907.25 2388.37l-4.64-14.26h9.28z" fill="#5e5e5e"/><path d="M907.25 2391.6l-6-18.5h12zm-3.26-16.5l3.25 10.04 3.26-10.03z" stroke="#5e5e5e" stroke-width=".05" fill="#5e5e5e"/><g><use xlink:href="#G" transform="matrix(1,0,0,1,895.4443154194383,2310.1333333333337) translate(0.005000000000000782 14.222222222222223)"/></g><path d="M964.75 2576c22.1 0 40 13.43 40 30s-17.9 30-40 30h-120c-22.1 0-40-13.43-40-30s17.9-30 40-30z" stroke="#5e5e5e" stroke-width="3" fill="#fff"/><g><use xlink:href="#P" transform="matrix(1,0,0,1,809.7467845552408,2581.0000000000005) translate(79.62962962962963 30.27777777777778)"/></g><path d="M907.25 2477.13V2556" stroke="#5e5e5e" stroke-width="2" fill="none"/><path d="M908.25 2477.16h-2v-1.03h2z" stroke="#5e5e5e" stroke-width=".05" fill="#5e5e5e"/><path d="M907.25 2571.26L902.6 2557h9.28z" stroke="#5e5e5e" stroke-width="2" fill="#5e5e5e"/><path d="M807.28 2433.87H606a6 6 0 0 1-6-6V1006a6 6 0 0 1 6-6h188.53" stroke="#5e5e5e" stroke-width="2" fill="none"/><path d="M808.28 2434.87h-1.02v-2h1.02z" stroke="#5e5e5e" stroke-width=".05" fill="#5e5e5e"/><path d="M809.8 1000l-14.27 4.64v-9.28z" stroke="#5e5e5e" stroke-width="2" fill="#5e5e5e"/><defs><path fill="#333" d="M30 0v-248h187v28H63v79h144v27H63v87h162V0H30" id="Q"/><path fill="#333" d="M135-143c-3-34-86-38-87 0 15 53 115 12 119 90S17 21 10-45l28-5c4 36 97 45 98 0-10-56-113-15-118-90-4-57 82-63 122-42 12 7 21 19 24 35" id="R"/><path fill="#333" d="M59-47c-2 24 18 29 38 22v24C64 9 27 4 27-40v-127H5v-23h24l9-43h21v43h35v23H59v120" id="S"/><path fill="#333" d="M141-36C126-15 110 5 73 4 37 3 15-17 15-53c-1-64 63-63 125-63 3-35-9-54-41-54-24 1-41 7-42 31l-33-3c5-37 33-52 76-52 45 0 72 20 72 64v82c-1 20 7 32 28 27v20c-31 9-61-2-59-35zM48-53c0 20 12 33 32 33 41-3 63-29 60-74-43 2-92-5-92 41" id="T"/><path fill="#333" d="M85-194c31 0 48 13 60 33l-1-100h32l1 261h-30c-2-10 0-23-3-31C134-8 116 4 85 4 32 4 16-35 15-94c0-66 23-100 70-100zm9 24c-40 0-46 34-46 75 0 40 6 74 45 74 42 0 51-32 51-76 0-42-9-74-50-73" id="U"/><path fill="#333" d="M100-194c62-1 85 37 85 99 1 63-27 99-86 99S16-35 15-95c0-66 28-99 85-99zM99-20c44 1 53-31 53-75 0-43-8-75-51-75s-53 32-53 75 10 74 51 75" id="V"/><g id="a"><use transform="matrix(0.06172839506172839,0,0,0.06172839506172839,0,0)" xlink:href="#Q"/><use transform="matrix(0.06172839506172839,0,0,0.06172839506172839,14.814814814814813,0)" xlink:href="#R"/><use transform="matrix(0.06172839506172839,0,0,0.06172839506172839,25.925925925925924,0)" xlink:href="#S"/><use transform="matrix(0.06172839506172839,0,0,0.06172839506172839,32.098765432098766,0)" xlink:href="#T"/><use transform="matrix(0.06172839506172839,0,0,0.06172839506172839,44.44444444444444,0)" xlink:href="#U"/><use transform="matrix(0.06172839506172839,0,0,0.06172839506172839,56.79012345679012,0)" xlink:href="#V"/></g><path fill="#333" d="M27 0v-27h64v-190l-56 39v-29l58-41h29v221h61V0H27" id="W"/><use transform="matrix(0.06172839506172839,0,0,0.06172839506172839,0,0)" xlink:href="#W" id="b"/><path fill="#333" d="M212-179c-10-28-35-45-73-45-59 0-87 40-87 99 0 60 29 101 89 101 43 0 62-24 78-52l27 14C228-24 195 4 139 4 59 4 22-46 18-125c-6-104 99-153 187-111 19 9 31 26 39 46" id="X"/><path fill="#333" d="M117-194c89-4 53 116 60 194h-32v-121c0-31-8-49-39-48C34-167 62-67 57 0H25l-1-190h30c1 10-1 24 2 32 11-22 29-35 61-36" id="Y"/><path fill="#333" d="M101-234c-31-9-42 10-38 44h38v23H63V0H32v-167H5v-23h27c-7-52 17-82 69-68v24" id="Z"/><path fill="#333" d="M24-231v-30h32v30H24zM24 0v-190h32V0H24" id="aa"/><path fill="#333" d="M177-190C167-65 218 103 67 71c-23-6-38-20-44-43l32-5c15 47 100 32 89-28v-30C133-14 115 1 83 1 29 1 15-40 15-95c0-56 16-97 71-98 29-1 48 16 59 35 1-10 0-23 2-32h30zM94-22c36 0 50-32 50-73 0-42-14-75-50-75-39 0-46 34-46 75s6 73 46 73" id="ab"/><path fill="#333" d="M84 4C-5 8 30-112 23-190h32v120c0 31 7 50 39 49 72-2 45-101 50-169h31l1 190h-30c-1-10 1-25-2-33-11 22-28 36-60 37" id="ac"/><path fill="#333" d="M114-163C36-179 61-72 57 0H25l-1-190h30c1 12-1 29 2 39 6-27 23-49 58-41v29" id="ad"/><g id="c"><use transform="matrix(0.06172839506172839,0,0,0.06172839506172839,0,0)" xlink:href="#X"/><use transform="matrix(0.06172839506172839,0,0,0.06172839506172839,15.987654320987653,0)" xlink:href="#V"/><use transform="matrix(0.06172839506172839,0,0,0.06172839506172839,28.333333333333332,0)" xlink:href="#Y"/><use transform="matrix(0.06172839506172839,0,0,0.06172839506172839,40.67901234567901,0)" xlink:href="#Z"/><use transform="matrix(0.06172839506172839,0,0,0.06172839506172839,46.851851851851855,0)" xlink:href="#aa"/><use transform="matrix(0.06172839506172839,0,0,0.06172839506172839,51.7283950617284,0)" xlink:href="#ab"/><use transform="matrix(0.06172839506172839,0,0,0.06172839506172839,64.07407407407408,0)" xlink:href="#ac"/><use transform="matrix(0.06172839506172839,0,0,0.06172839506172839,76.41975308641976,0)" xlink:href="#ad"/><use transform="matrix(0.06172839506172839,0,0,0.06172839506172839,83.76543209876544,0)" xlink:href="#T"/><use transform="matrix(0.06172839506172839,0,0,0.06172839506172839,96.11111111111113,0)" xlink:href="#ad"/></g><path fill="#333" d="M106-169C34-169 62-67 57 0H25v-261h32l-1 103c12-21 28-36 61-36 89 0 53 116 60 194h-32v-121c2-32-8-49-39-48" id="ae"/><g id="d"><use transform="matrix(0.06172839506172839,0,0,0.06172839506172839,0,0)" xlink:href="#ae"/><use transform="matrix(0.06172839506172839,0,0,0.06172839506172839,12.345679012345679,0)" xlink:href="#V"/><use transform="matrix(0.06172839506172839,0,0,0.06172839506172839,24.691358024691358,0)" xlink:href="#ad"/><use transform="matrix(0.06172839506172839,0,0,0.06172839506172839,32.03703703703704,0)" xlink:href="#T"/></g><path fill="#333" d="M240 0l2-218c-23 76-54 145-80 218h-23L58-218 59 0H30v-248h44l77 211c21-75 51-140 76-211h43V0h-30" id="af"/><path fill="#333" d="M100-194c63 0 86 42 84 106H49c0 40 14 67 53 68 26 1 43-12 49-29l28 8c-11 28-37 45-77 45C44 4 14-33 15-96c1-61 26-98 85-98zm52 81c6-60-76-77-97-28-3 7-6 17-6 28h103" id="ag"/><g id="e"><use transform="matrix(0.06172839506172839,0,0,0.06172839506172839,0,0)" xlink:href="#af"/><use transform="matrix(0.06172839506172839,0,0,0.06172839506172839,18.456790123456788,0)" xlink:href="#ac"/><use transform="matrix(0.06172839506172839,0,0,0.06172839506172839,30.80246913580247,0)" xlink:href="#ag"/><use transform="matrix(0.06172839506172839,0,0,0.06172839506172839,43.148148148148145,0)" xlink:href="#R"/><use transform="matrix(0.06172839506172839,0,0,0.06172839506172839,54.25925925925925,0)" xlink:href="#S"/><use transform="matrix(0.06172839506172839,0,0,0.06172839506172839,60.432098765432094,0)" xlink:href="#ad"/><use transform="matrix(0.06172839506172839,0,0,0.06172839506172839,67.77777777777777,0)" xlink:href="#T"/></g><path fill="#333" d="M24 0v-261h32V0H24" id="ah"/><g id="f"><use transform="matrix(0.06172839506172839,0,0,0.06172839506172839,0,0)" xlink:href="#ah"/><use transform="matrix(0.06172839506172839,0,0,0.06172839506172839,4.876543209876543,0)" xlink:href="#V"/><use transform="matrix(0.06172839506172839,0,0,0.06172839506172839,17.22222222222222,0)" xlink:href="#R"/></g><path fill="#333" d="M108 0H70L1-190h34L89-25l56-165h34" id="ai"/><g id="g"><use transform="matrix(0.06172839506172839,0,0,0.06172839506172839,0,0)" xlink:href="#ai"/><use transform="matrix(0.06172839506172839,0,0,0.06172839506172839,11.11111111111111,0)" xlink:href="#T"/><use transform="matrix(0.06172839506172839,0,0,0.06172839506172839,23.45679012345679,0)" xlink:href="#ah"/><use transform="matrix(0.06172839506172839,0,0,0.06172839506172839,28.333333333333336,0)" xlink:href="#V"/><use transform="matrix(0.06172839506172839,0,0,0.06172839506172839,40.67901234567901,0)" xlink:href="#ad"/><use transform="matrix(0.06172839506172839,0,0,0.06172839506172839,48.02469135802469,0)" xlink:href="#ag"/><use transform="matrix(0.06172839506172839,0,0,0.06172839506172839,60.37037037037037,0)" xlink:href="#R"/></g><g id="h"><use transform="matrix(0.06172839506172839,0,0,0.06172839506172839,0,0)" xlink:href="#U"/><use transform="matrix(0.06172839506172839,0,0,0.06172839506172839,12.345679012345679,0)" xlink:href="#ag"/></g><path fill="#333" d="M210-169c-67 3-38 105-44 169h-31v-121c0-29-5-50-35-48C34-165 62-65 56 0H25l-1-190h30c1 10-1 24 2 32 10-44 99-50 107 0 11-21 27-35 58-36 85-2 47 119 55 194h-31v-121c0-29-5-49-35-48" id="aj"/><g id="i"><use transform="matrix(0.06172839506172839,0,0,0.06172839506172839,0,0)" xlink:href="#aj"/><use transform="matrix(0.06172839506172839,0,0,0.06172839506172839,18.456790123456788,0)" xlink:href="#aa"/><use transform="matrix(0.06172839506172839,0,0,0.06172839506172839,23.33333333333333,0)" xlink:href="#Y"/><use transform="matrix(0.06172839506172839,0,0,0.06172839506172839,35.679012345679006,0)" xlink:href="#ac"/><use transform="matrix(0.06172839506172839,0,0,0.06172839506172839,48.02469135802468,0)" xlink:href="#S"/><use transform="matrix(0.06172839506172839,0,0,0.06172839506172839,54.197530864197525,0)" xlink:href="#V"/><use transform="matrix(0.06172839506172839,0,0,0.06172839506172839,66.5432098765432,0)" xlink:href="#R"/></g><path fill="#333" d="M179-190L93 31C79 59 56 82 12 73V49c39 6 53-20 64-50L1-190h34L92-34l54-156h33" id="ak"/><use transform="matrix(0.06172839506172839,0,0,0.06172839506172839,0,0)" xlink:href="#ak" id="j"/><g id="k"><use transform="matrix(0.06172839506172839,0,0,0.06172839506172839,0,0)" xlink:href="#ae"/><use transform="matrix(0.06172839506172839,0,0,0.06172839506172839,12.345679012345679,0)" xlink:href="#V"/><use transform="matrix(0.06172839506172839,0,0,0.06172839506172839,24.691358024691358,0)" xlink:href="#ad"/><use transform="matrix(0.06172839506172839,0,0,0.06172839506172839,32.03703703703704,0)" xlink:href="#T"/><use transform="matrix(0.06172839506172839,0,0,0.06172839506172839,44.382716049382715,0)" xlink:href="#R"/></g><g id="l"><use transform="matrix(0.06172839506172839,0,0,0.06172839506172839,0,0)" xlink:href="#ag"/><use transform="matrix(0.06172839506172839,0,0,0.06172839506172839,12.345679012345679,0)" xlink:href="#Y"/></g><path fill="#333" d="M64 0c3-98 48-159 88-221H18v-27h164v26C143-157 98-101 97 0H64" id="al"/><use transform="matrix(0.06172839506172839,0,0,0.06172839506172839,0,0)" xlink:href="#al" id="m"/><g id="n"><use transform="matrix(0.06172839506172839,0,0,0.06172839506172839,0,0)" xlink:href="#R"/><use transform="matrix(0.06172839506172839,0,0,0.06172839506172839,11.11111111111111,0)" xlink:href="#ag"/><use transform="matrix(0.06172839506172839,0,0,0.06172839506172839,23.45679012345679,0)" xlink:href="#ab"/><use transform="matrix(0.06172839506172839,0,0,0.06172839506172839,35.80246913580247,0)" xlink:href="#aj"/><use transform="matrix(0.06172839506172839,0,0,0.06172839506172839,54.25925925925925,0)" xlink:href="#ag"/><use transform="matrix(0.06172839506172839,0,0,0.06172839506172839,66.60493827160494,0)" xlink:href="#Y"/><use transform="matrix(0.06172839506172839,0,0,0.06172839506172839,78.95061728395062,0)" xlink:href="#S"/><use transform="matrix(0.06172839506172839,0,0,0.06172839506172839,85.12345679012346,0)" xlink:href="#V"/><use transform="matrix(0.06172839506172839,0,0,0.06172839506172839,97.46913580246914,0)" xlink:href="#R"/></g><path fill="#333" d="M107 61C57 61 25 39 23-9c-2-65 71-58 78-115h30c1 64-76 54-76 114 0 30 21 42 52 43 32 0 53-17 56-46l32 2c-6 46-36 72-88 72zm26-251v35H99v-35h34" id="am"/><path fill="#333" d="M185-189c-5-48-123-54-124 2 14 75 158 14 163 119 3 78-121 87-175 55-17-10-28-26-33-46l33-7c5 56 141 63 141-1 0-78-155-14-162-118-5-82 145-84 179-34 5 7 8 16 11 25" id="an"/><g id="o"><use transform="matrix(0.06172839506172839,0,0,0.06172839506172839,0,0)" xlink:href="#am"/><use transform="matrix(0.06172839506172839,0,0,0.06172839506172839,13.518518518518517,0)" xlink:href="#an"/><use transform="matrix(0.06172839506172839,0,0,0.06172839506172839,28.33333333333333,0)" xlink:href="#ag"/></g><g id="p"><use transform="matrix(0.06172839506172839,0,0,0.06172839506172839,0,0)" xlink:href="#ae"/><use transform="matrix(0.06172839506172839,0,0,0.06172839506172839,12.345679012345679,0)" xlink:href="#T"/></g><path fill="#333" d="M115-194c55 1 70 41 70 98S169 2 115 4C84 4 66-9 55-30l1 105H24l-1-265h31l2 30c10-21 28-34 59-34zm-8 174c40 0 45-34 45-75s-6-73-45-74c-42 0-51 32-51 76 0 43 10 73 51 73" id="ao"/><g id="q"><use transform="matrix(0.06172839506172839,0,0,0.06172839506172839,0,0)" xlink:href="#ao"/><use transform="matrix(0.06172839506172839,0,0,0.06172839506172839,12.345679012345679,0)" xlink:href="#ac"/><use transform="matrix(0.06172839506172839,0,0,0.06172839506172839,24.691358024691358,0)" xlink:href="#ah"/><use transform="matrix(0.06172839506172839,0,0,0.06172839506172839,29.5679012345679,0)" xlink:href="#R"/><use transform="matrix(0.06172839506172839,0,0,0.06172839506172839,40.67901234567901,0)" xlink:href="#T"/><use transform="matrix(0.06172839506172839,0,0,0.06172839506172839,53.02469135802469,0)" xlink:href="#U"/><use transform="matrix(0.06172839506172839,0,0,0.06172839506172839,65.37037037037037,0)" xlink:href="#V"/></g><g id="r"><use transform="matrix(0.06172839506172839,0,0,0.06172839506172839,0,0)" xlink:href="#ag"/><use transform="matrix(0.06172839506172839,0,0,0.06172839506172839,12.345679012345679,0)" xlink:href="#ah"/></g><path fill="#333" d="M115-194c53 0 69 39 70 98 0 66-23 100-70 100C84 3 66-7 56-30L54 0H23l1-261h32v101c10-23 28-34 59-34zm-8 174c40 0 45-34 45-75 0-40-5-75-45-74-42 0-51 32-51 76 0 43 10 73 51 73" id="ap"/><path fill="#333" d="M100-194c62-1 85 37 85 99 1 63-27 99-86 99S16-35 15-95c0-66 28-99 85-99zM99-20c44 1 53-31 53-75 0-43-8-75-51-75s-53 32-53 75 10 74 51 75zM76-211c8-23 27-35 38-54h36v5l-58 49H76" id="aq"/><g id="s"><use transform="matrix(0.06172839506172839,0,0,0.06172839506172839,0,0)" xlink:href="#ap"/><use transform="matrix(0.06172839506172839,0,0,0.06172839506172839,12.345679012345679,0)" xlink:href="#V"/><use transform="matrix(0.06172839506172839,0,0,0.06172839506172839,24.691358024691358,0)" xlink:href="#S"/><use transform="matrix(0.06172839506172839,0,0,0.06172839506172839,30.864197530864196,0)" xlink:href="#aq"/><use transform="matrix(0.06172839506172839,0,0,0.06172839506172839,43.20987654320987,0)" xlink:href="#Y"/></g><g id="t"><use transform="matrix(0.06172839506172839,0,0,0.06172839506172839,0,0)" xlink:href="#U"/><use transform="matrix(0.06172839506172839,0,0,0.06172839506172839,12.345679012345679,0)" xlink:href="#ag"/></g><g id="u"><use transform="matrix(0.06172839506172839,0,0,0.06172839506172839,0,0)" xlink:href="#T"/><use transform="matrix(0.06172839506172839,0,0,0.06172839506172839,12.345679012345679,0)" xlink:href="#ac"/><use transform="matrix(0.06172839506172839,0,0,0.06172839506172839,24.691358024691358,0)" xlink:href="#aj"/><use transform="matrix(0.06172839506172839,0,0,0.06172839506172839,43.148148148148145,0)" xlink:href="#ag"/><use transform="matrix(0.06172839506172839,0,0,0.06172839506172839,55.49382716049382,0)" xlink:href="#Y"/><use transform="matrix(0.06172839506172839,0,0,0.06172839506172839,67.8395061728395,0)" xlink:href="#S"/><use transform="matrix(0.06172839506172839,0,0,0.06172839506172839,74.01234567901234,0)" xlink:href="#V"/></g><path fill="#333" d="M103-251c84 0 111 97 45 133-19 10-37 24-39 52H78c0-63 77-55 77-114 0-30-21-42-52-43-32 0-53 17-56 46l-32-2c7-45 34-72 88-72zM77 0v-35h34V0H77" id="ar"/><g id="v"><use transform="matrix(0.06172839506172839,0,0,0.06172839506172839,0,0)" xlink:href="#aj"/><use transform="matrix(0.06172839506172839,0,0,0.06172839506172839,18.456790123456788,0)" xlink:href="#aa"/><use transform="matrix(0.06172839506172839,0,0,0.06172839506172839,23.33333333333333,0)" xlink:href="#Y"/><use transform="matrix(0.06172839506172839,0,0,0.06172839506172839,35.679012345679006,0)" xlink:href="#ac"/><use transform="matrix(0.06172839506172839,0,0,0.06172839506172839,48.02469135802468,0)" xlink:href="#S"/><use transform="matrix(0.06172839506172839,0,0,0.06172839506172839,54.197530864197525,0)" xlink:href="#V"/><use transform="matrix(0.06172839506172839,0,0,0.06172839506172839,66.5432098765432,0)" xlink:href="#R"/><use transform="matrix(0.06172839506172839,0,0,0.06172839506172839,77.65432098765432,0)" xlink:href="#ar"/></g><g id="w"><use transform="matrix(0.06172839506172839,0,0,0.06172839506172839,0,0)" xlink:href="#am"/><use transform="matrix(0.06172839506172839,0,0,0.06172839506172839,13.518518518518517,0)" xlink:href="#an"/><use transform="matrix(0.06172839506172839,0,0,0.06172839506172839,28.33333333333333,0)" xlink:href="#ag"/></g><g id="x"><use transform="matrix(0.06172839506172839,0,0,0.06172839506172839,0,0)" xlink:href="#ae"/><use transform="matrix(0.06172839506172839,0,0,0.06172839506172839,12.345679012345679,0)" xlink:href="#T"/></g><g id="y"><use transform="matrix(0.06172839506172839,0,0,0.06172839506172839,0,0)" xlink:href="#ao"/><use transform="matrix(0.06172839506172839,0,0,0.06172839506172839,12.345679012345679,0)" xlink:href="#ac"/><use transform="matrix(0.06172839506172839,0,0,0.06172839506172839,24.691358024691358,0)" xlink:href="#ah"/><use transform="matrix(0.06172839506172839,0,0,0.06172839506172839,29.5679012345679,0)" xlink:href="#R"/><use transform="matrix(0.06172839506172839,0,0,0.06172839506172839,40.67901234567901,0)" xlink:href="#T"/><use transform="matrix(0.06172839506172839,0,0,0.06172839506172839,53.02469135802469,0)" xlink:href="#U"/><use transform="matrix(0.06172839506172839,0,0,0.06172839506172839,65.37037037037037,0)" xlink:href="#V"/></g><g id="z"><use transform="matrix(0.06172839506172839,0,0,0.06172839506172839,0,0)" xlink:href="#ap"/><use transform="matrix(0.06172839506172839,0,0,0.06172839506172839,12.345679012345679,0)" xlink:href="#V"/><use transform="matrix(0.06172839506172839,0,0,0.06172839506172839,24.691358024691358,0)" xlink:href="#S"/><use transform="matrix(0.06172839506172839,0,0,0.06172839506172839,30.864197530864196,0)" xlink:href="#aq"/><use transform="matrix(0.06172839506172839,0,0,0.06172839506172839,43.20987654320987,0)" xlink:href="#Y"/></g><path fill="#333" d="M96-169c-40 0-48 33-48 73s9 75 48 75c24 0 41-14 43-38l32 2c-6 37-31 61-74 61-59 0-76-41-82-99-10-93 101-131 147-64 4 7 5 14 7 22l-32 3c-4-21-16-35-41-35" id="as"/><g id="A"><use transform="matrix(0.06172839506172839,0,0,0.06172839506172839,0,0)" xlink:href="#U"/><use transform="matrix(0.06172839506172839,0,0,0.06172839506172839,12.345679012345679,0)" xlink:href="#ag"/><use transform="matrix(0.06172839506172839,0,0,0.06172839506172839,24.691358024691358,0)" xlink:href="#as"/><use transform="matrix(0.06172839506172839,0,0,0.06172839506172839,35.80246913580247,0)" xlink:href="#ad"/><use transform="matrix(0.06172839506172839,0,0,0.06172839506172839,43.148148148148145,0)" xlink:href="#ag"/><use transform="matrix(0.06172839506172839,0,0,0.06172839506172839,55.49382716049382,0)" xlink:href="#aj"/><use transform="matrix(0.06172839506172839,0,0,0.06172839506172839,73.9506172839506,0)" xlink:href="#ag"/><use transform="matrix(0.06172839506172839,0,0,0.06172839506172839,86.29629629629629,0)" xlink:href="#Y"/><use transform="matrix(0.06172839506172839,0,0,0.06172839506172839,98.64197530864197,0)" xlink:href="#S"/><use transform="matrix(0.06172839506172839,0,0,0.06172839506172839,104.81481481481481,0)" xlink:href="#V"/></g><g id="B"><use transform="matrix(0.06172839506172839,0,0,0.06172839506172839,0,0)" xlink:href="#ae"/><use transform="matrix(0.06172839506172839,0,0,0.06172839506172839,12.345679012345679,0)" xlink:href="#V"/><use transform="matrix(0.06172839506172839,0,0,0.06172839506172839,24.691358024691358,0)" xlink:href="#ad"/><use transform="matrix(0.06172839506172839,0,0,0.06172839506172839,32.03703703703704,0)" xlink:href="#T"/><use transform="matrix(0.06172839506172839,0,0,0.06172839506172839,44.382716049382715,0)" xlink:href="#R"/><use transform="matrix(0.06172839506172839,0,0,0.06172839506172839,55.49382716049382,0)" xlink:href="#ar"/></g><path fill="#333" d="M169-182c-1-43-94-46-97-3 18 66 151 10 154 114 3 95-165 93-204 36-6-8-10-19-12-30l50-8c3 46 112 56 116 5-17-69-150-10-154-114-4-87 153-88 188-35 5 8 8 18 10 28" id="at"/><path fill="#333" d="M25 0v-190h50V0H25zm-5-208v-5l45-51h45v8l-60 48H20" id="au"/><g id="C"><use transform="matrix(0.04938271604938272,0,0,0.04938271604938272,0,0)" xlink:href="#at"/><use transform="matrix(0.04938271604938272,0,0,0.04938271604938272,11.851851851851853,0)" xlink:href="#au"/></g><path fill="#333" d="M205 0l-28-72H64L36 0H1l101-248h38L239 0h-34zm-38-99l-47-123c-12 45-31 82-46 123h93" id="av"/><g id="D"><use transform="matrix(0.06172839506172839,0,0,0.06172839506172839,0,0)" xlink:href="#av"/><use transform="matrix(0.06172839506172839,0,0,0.06172839506172839,14.814814814814813,0)" xlink:href="#ac"/><use transform="matrix(0.06172839506172839,0,0,0.06172839506172839,27.160493827160494,0)" xlink:href="#aj"/><use transform="matrix(0.06172839506172839,0,0,0.06172839506172839,45.61728395061728,0)" xlink:href="#ag"/><use transform="matrix(0.06172839506172839,0,0,0.06172839506172839,57.962962962962955,0)" xlink:href="#Y"/><use transform="matrix(0.06172839506172839,0,0,0.06172839506172839,70.30864197530863,0)" xlink:href="#S"/><use transform="matrix(0.06172839506172839,0,0,0.06172839506172839,76.48148148148147,0)" xlink:href="#T"/><use transform="matrix(0.06172839506172839,0,0,0.06172839506172839,88.82716049382715,0)" xlink:href="#ad"/></g><g id="E"><use transform="matrix(0.06172839506172839,0,0,0.06172839506172839,0,0)" xlink:href="#ac"/><use transform="matrix(0.06172839506172839,0,0,0.06172839506172839,12.345679012345679,0)" xlink:href="#Y"/><use transform="matrix(0.06172839506172839,0,0,0.06172839506172839,24.691358024691358,0)" xlink:href="#aa"/><use transform="matrix(0.06172839506172839,0,0,0.06172839506172839,29.5679012345679,0)" xlink:href="#U"/><use transform="matrix(0.06172839506172839,0,0,0.06172839506172839,41.913580246913575,0)" xlink:href="#T"/><use transform="matrix(0.06172839506172839,0,0,0.06172839506172839,54.25925925925925,0)" xlink:href="#U"/><use transform="matrix(0.06172839506172839,0,0,0.06172839506172839,66.60493827160494,0)" xlink:href="#ag"/><use transform="matrix(0.06172839506172839,0,0,0.06172839506172839,78.95061728395062,0)" xlink:href="#R"/></g><g id="F"><use transform="matrix(0.06172839506172839,0,0,0.06172839506172839,0,0)" xlink:href="#aj"/><use transform="matrix(0.06172839506172839,0,0,0.06172839506172839,18.456790123456788,0)" xlink:href="#aa"/><use transform="matrix(0.06172839506172839,0,0,0.06172839506172839,23.33333333333333,0)" xlink:href="#Y"/><use transform="matrix(0.06172839506172839,0,0,0.06172839506172839,35.679012345679006,0)" xlink:href="#ac"/><use transform="matrix(0.06172839506172839,0,0,0.06172839506172839,48.02469135802468,0)" xlink:href="#S"/><use transform="matrix(0.06172839506172839,0,0,0.06172839506172839,54.197530864197525,0)" xlink:href="#V"/><use transform="matrix(0.06172839506172839,0,0,0.06172839506172839,66.5432098765432,0)" xlink:href="#R"/></g><path fill="#333" d="M175 0L67-191c6 58 2 128 3 191H24v-248h59L193-55c-6-58-2-129-3-193h46V0h-61" id="aw"/><path fill="#333" d="M110-194c64 0 96 36 96 99 0 64-35 99-97 99-61 0-95-36-95-99 0-62 34-99 96-99zm-1 164c35 0 45-28 45-65 0-40-10-65-43-65-34 0-45 26-45 65 0 36 10 65 43 65" id="ax"/><g id="G"><use transform="matrix(0.04938271604938272,0,0,0.04938271604938272,0,0)" xlink:href="#aw"/><use transform="matrix(0.04938271604938272,0,0,0.04938271604938272,12.790123456790125,0)" xlink:href="#ax"/></g><path fill="#333" d="M30-248c118-7 216 8 213 122C240-48 200 0 122 0H30v-248zM63-27c89 8 146-16 146-99s-60-101-146-95v194" id="ay"/><g id="H"><use transform="matrix(0.06172839506172839,0,0,0.06172839506172839,0,0)" xlink:href="#ay"/><use transform="matrix(0.06172839506172839,0,0,0.06172839506172839,15.987654320987653,0)" xlink:href="#ag"/><use transform="matrix(0.06172839506172839,0,0,0.06172839506172839,28.333333333333332,0)" xlink:href="#as"/><use transform="matrix(0.06172839506172839,0,0,0.06172839506172839,39.44444444444444,0)" xlink:href="#ad"/><use transform="matrix(0.06172839506172839,0,0,0.06172839506172839,46.79012345679012,0)" xlink:href="#ag"/><use transform="matrix(0.06172839506172839,0,0,0.06172839506172839,59.1358024691358,0)" xlink:href="#aj"/><use transform="matrix(0.06172839506172839,0,0,0.06172839506172839,77.59259259259258,0)" xlink:href="#ag"/><use transform="matrix(0.06172839506172839,0,0,0.06172839506172839,89.93827160493827,0)" xlink:href="#Y"/><use transform="matrix(0.06172839506172839,0,0,0.06172839506172839,102.28395061728395,0)" xlink:href="#S"/><use transform="matrix(0.06172839506172839,0,0,0.06172839506172839,108.45679012345678,0)" xlink:href="#T"/><use transform="matrix(0.06172839506172839,0,0,0.06172839506172839,120.80246913580247,0)" xlink:href="#ad"/></g><g id="I"><use transform="matrix(0.06172839506172839,0,0,0.06172839506172839,0,0)" xlink:href="#ac"/><use transform="matrix(0.06172839506172839,0,0,0.06172839506172839,12.345679012345679,0)" xlink:href="#Y"/><use transform="matrix(0.06172839506172839,0,0,0.06172839506172839,24.691358024691358,0)" xlink:href="#aa"/><use transform="matrix(0.06172839506172839,0,0,0.06172839506172839,29.5679012345679,0)" xlink:href="#U"/><use transform="matrix(0.06172839506172839,0,0,0.06172839506172839,41.913580246913575,0)" xlink:href="#T"/><use transform="matrix(0.06172839506172839,0,0,0.06172839506172839,54.25925925925925,0)" xlink:href="#U"/><use transform="matrix(0.06172839506172839,0,0,0.06172839506172839,66.60493827160494,0)" xlink:href="#ag"/><use transform="matrix(0.06172839506172839,0,0,0.06172839506172839,78.95061728395062,0)" xlink:href="#R"/></g><g id="J"><use transform="matrix(0.06172839506172839,0,0,0.06172839506172839,0,0)" xlink:href="#ae"/><use transform="matrix(0.06172839506172839,0,0,0.06172839506172839,12.345679012345679,0)" xlink:href="#V"/><use transform="matrix(0.06172839506172839,0,0,0.06172839506172839,24.691358024691358,0)" xlink:href="#ad"/><use transform="matrix(0.06172839506172839,0,0,0.06172839506172839,32.03703703703704,0)" xlink:href="#T"/><use transform="matrix(0.06172839506172839,0,0,0.06172839506172839,44.382716049382715,0)" xlink:href="#R"/></g><path fill="#333" d="M137 0h-34L2-248h35l83 218 83-218h36" id="az"/><g id="K"><use transform="matrix(0.06172839506172839,0,0,0.06172839506172839,0,0)" xlink:href="#az"/><use transform="matrix(0.06172839506172839,0,0,0.06172839506172839,13.580246913580245,0)" xlink:href="#ag"/><use transform="matrix(0.06172839506172839,0,0,0.06172839506172839,25.925925925925924,0)" xlink:href="#ad"/><use transform="matrix(0.06172839506172839,0,0,0.06172839506172839,33.2716049382716,0)" xlink:href="#aa"/><use transform="matrix(0.06172839506172839,0,0,0.06172839506172839,38.148148148148145,0)" xlink:href="#Z"/><use transform="matrix(0.06172839506172839,0,0,0.06172839506172839,44.32098765432099,0)" xlink:href="#aa"/><use transform="matrix(0.06172839506172839,0,0,0.06172839506172839,49.19753086419753,0)" xlink:href="#as"/><use transform="matrix(0.06172839506172839,0,0,0.06172839506172839,60.308641975308646,0)" xlink:href="#T"/><use transform="matrix(0.06172839506172839,0,0,0.06172839506172839,72.65432098765433,0)" xlink:href="#ad"/></g><g id="L"><use transform="matrix(0.06172839506172839,0,0,0.06172839506172839,0,0)" xlink:href="#ag"/><use transform="matrix(0.06172839506172839,0,0,0.06172839506172839,12.345679012345679,0)" xlink:href="#R"/><use transform="matrix(0.06172839506172839,0,0,0.06172839506172839,23.45679012345679,0)" xlink:href="#S"/><use transform="matrix(0.06172839506172839,0,0,0.06172839506172839,29.62962962962963,0)" xlink:href="#T"/><use transform="matrix(0.06172839506172839,0,0,0.06172839506172839,41.97530864197531,0)" xlink:href="#U"/><use transform="matrix(0.06172839506172839,0,0,0.06172839506172839,54.32098765432099,0)" xlink:href="#V"/></g><g id="M"><use transform="matrix(0.06172839506172839,0,0,0.06172839506172839,0,0)" xlink:href="#T"/><use transform="matrix(0.06172839506172839,0,0,0.06172839506172839,12.345679012345679,0)" xlink:href="#as"/><use transform="matrix(0.06172839506172839,0,0,0.06172839506172839,23.45679012345679,0)" xlink:href="#S"/><use transform="matrix(0.06172839506172839,0,0,0.06172839506172839,29.62962962962963,0)" xlink:href="#ac"/><use transform="matrix(0.06172839506172839,0,0,0.06172839506172839,41.97530864197531,0)" xlink:href="#T"/><use transform="matrix(0.06172839506172839,0,0,0.06172839506172839,54.32098765432099,0)" xlink:href="#ah"/></g><g id="N"><use transform="matrix(0.06172839506172839,0,0,0.06172839506172839,0,0)" xlink:href="#U"/><use transform="matrix(0.06172839506172839,0,0,0.06172839506172839,12.345679012345679,0)" xlink:href="#ag"/><use transform="matrix(0.06172839506172839,0,0,0.06172839506172839,24.691358024691358,0)" xlink:href="#ah"/></g><path fill="#333" d="M24-231v-30h32v30H24zM-9 49c24 4 33-6 33-30v-209h32V24c2 40-23 58-65 49V49" id="aA"/><g id="O"><use transform="matrix(0.06172839506172839,0,0,0.06172839506172839,0,0)" xlink:href="#ad"/><use transform="matrix(0.06172839506172839,0,0,0.06172839506172839,7.345679012345679,0)" xlink:href="#ag"/><use transform="matrix(0.06172839506172839,0,0,0.06172839506172839,19.691358024691358,0)" xlink:href="#ah"/><use transform="matrix(0.06172839506172839,0,0,0.06172839506172839,24.5679012345679,0)" xlink:href="#V"/><use transform="matrix(0.06172839506172839,0,0,0.06172839506172839,36.913580246913575,0)" xlink:href="#aA"/></g><path fill="#333" d="M63-220v92h138v28H63V0H30v-248h175v28H63" id="aB"/><g id="P"><use transform="matrix(0.06172839506172839,0,0,0.06172839506172839,0,0)" xlink:href="#aB"/><use transform="matrix(0.06172839506172839,0,0,0.06172839506172839,13.518518518518517,0)" xlink:href="#aa"/><use transform="matrix(0.06172839506172839,0,0,0.06172839506172839,18.39506172839506,0)" xlink:href="#Y"/></g></defs></g></svg>