<svg xmlns="http://www.w3.org/2000/svg" xmlns:xlink="http://www.w3.org/1999/xlink" xmlns:lucid="lucid" width="776.22" height="1740.26"><g transform="translate(-2429 -720)" lucid:page-tab-id="0_0"><path d="M2570 746a6 6 0 0 1 6-6h288a6 6 0 0 1 6 6v68a6 6 0 0 1-6 6h-288a6 6 0 0 1-6-6z" stroke="#5e5e5e" stroke-width="3" fill="#fff"/><use xlink:href="#a" transform="matrix(1,0,0,1,2582.0000000000005,752) translate(94.17283950617283 21.27777777777778)"/><use xlink:href="#b" transform="matrix(1,0,0,1,2582.0000000000005,752) translate(169.48148148148147 21.27777777777778)"/><use xlink:href="#c" transform="matrix(1,0,0,1,2582.0000000000005,752) translate(0.03703703703700967 47.94444444444444)"/><use xlink:href="#d" transform="matrix(1,0,0,1,2582.0000000000005,752) translate(109.66666666666666 47.94444444444444)"/><use xlink:href="#e" transform="matrix(1,0,0,1,2582.0000000000005,752) translate(126.9506172839506 47.94444444444444)"/><use xlink:href="#f" transform="matrix(1,0,0,1,2582.0000000000005,752) translate(208.2469135802469 47.94444444444444)"/><path d="M2555 896.67a6 6 0 0 1 6-6h318a6 6 0 0 1 6 6v86.66a6 6 0 0 1-6 6h-318a6 6 0 0 1-6-6z" stroke="#5e5e5e" stroke-width="3" fill="#fff"/><use xlink:href="#g" transform="matrix(1,0,0,1,2567,902.6666666666667) translate(41.42592592592594 17.77777777777778)"/><use xlink:href="#h" transform="matrix(1,0,0,1,2567,902.6666666666667) translate(127.72222222222223 17.77777777777778)"/><use xlink:href="#i" transform="matrix(1,0,0,1,2567,902.6666666666667) translate(162.2283950617284 17.77777777777778)"/><use xlink:href="#j" transform="matrix(1,0,0,1,2567,902.6666666666667) translate(239.88271604938268 17.77777777777778)"/><use xlink:href="#k" transform="matrix(1,0,0,1,2567,902.6666666666667) translate(6.888888888888914 44.44444444444444)"/><use xlink:href="#d" transform="matrix(1,0,0,1,2567,902.6666666666667) translate(90.71604938271606 44.44444444444444)"/><use xlink:href="#l" transform="matrix(1,0,0,1,2567,902.6666666666667) translate(108.00000000000001 44.44444444444444)"/><use xlink:href="#m" transform="matrix(1,0,0,1,2567,902.6666666666667) translate(169.66666666666669 44.44444444444444)"/><use xlink:href="#n" transform="matrix(1,0,0,1,2567,902.6666666666667) translate(200.5308641975309 44.44444444444444)"/><use xlink:href="#o" transform="matrix(1,0,0,1,2567,902.6666666666667) translate(274.41975308641975 44.44444444444444)"/><use xlink:href="#h" transform="matrix(1,0,0,1,2567,902.6666666666667) translate(72.19753086419753 71.11111111111111)"/><use xlink:href="#p" transform="matrix(1,0,0,1,2567,902.6666666666667) translate(106.7037037037037 71.11111111111111)"/><use xlink:href="#q" transform="matrix(1,0,0,1,2567,902.6666666666667) translate(125.22222222222223 71.11111111111111)"/><path d="M2715.2 1063.6a8 8 0 0 1 9.6 0l110.4 82.8a4.5 4.5 0 0 1 0 7.2l-110.4 82.8a8 8 0 0 1-9.6 0l-110.4-82.8a4.5 4.5 0 0 1 0-7.2z" stroke="#5e5e5e" stroke-width="3" fill="#fff"/><use xlink:href="#r" transform="matrix(1,0,0,1,2605.0000000000005,1065) translate(79.2333950617284 49.65277777777778)"/><use xlink:href="#s" transform="matrix(1,0,0,1,2605.0000000000005,1065) translate(126.08524691358025 49.65277777777778)"/><use xlink:href="#t" transform="matrix(1,0,0,1,2605.0000000000005,1065) translate(33.585246913580264 76.31944444444446)"/><use xlink:href="#u" transform="matrix(1,0,0,1,2605.0000000000005,1065) translate(117.47413580246915 76.31944444444446)"/><use xlink:href="#v" transform="matrix(1,0,0,1,2605.0000000000005,1065) translate(140.8691975308642 76.31944444444446)"/><use xlink:href="#m" transform="matrix(1,0,0,1,2605.0000000000005,1065) translate(40.961790123456794 102.98611111111111)"/><use xlink:href="#w" transform="matrix(1,0,0,1,2605.0000000000005,1065) translate(71.82598765432098 102.98611111111111)"/><use xlink:href="#j" transform="matrix(1,0,0,1,2605.0000000000005,1065) translate(164.35685185185184 102.98611111111111)"/><use xlink:href="#x" transform="matrix(1,0,0,1,2605.0000000000005,1065) translate(70.00500000000001 129.6527777777778)"/><path d="M2715.3 1345.08a7.5 7.5 0 0 1 9.4 0l110.6 88.5a4.8 4.8 0 0 1 0 7.5l-110.6 88.5a7.5 7.5 0 0 1-9.4 0l-110.6-88.5a4.8 4.8 0 0 1 0-7.5z" stroke="#5e5e5e" stroke-width="3" fill="#fff"/><use xlink:href="#y" transform="matrix(1,0,0,1,2605.0000000000005,1346.3333333333335) translate(94.6654938271605 29.787777777777777)"/><use xlink:href="#z" transform="matrix(1,0,0,1,2605.0000000000005,1346.3333333333335) translate(60.714876543209876 56.45444444444445)"/><use xlink:href="#A" transform="matrix(1,0,0,1,2605.0000000000005,1346.3333333333335) translate(91.57907407407407 56.45444444444445)"/><use xlink:href="#u" transform="matrix(1,0,0,1,2605.0000000000005,1346.3333333333335) translate(60.09759259259259 83.1211111111111)"/><use xlink:href="#B" transform="matrix(1,0,0,1,2605.0000000000005,1346.3333333333335) translate(83.49265432098764 83.1211111111111)"/><use xlink:href="#j" transform="matrix(1,0,0,1,2605.0000000000005,1346.3333333333335) translate(145.22104938271605 83.1211111111111)"/><use xlink:href="#C" transform="matrix(1,0,0,1,2605.0000000000005,1346.3333333333335) translate(40.992654320987654 109.78777777777779)"/><use xlink:href="#j" transform="matrix(1,0,0,1,2605.0000000000005,1346.3333333333335) translate(164.32598765432098 109.78777777777779)"/><use xlink:href="#x" transform="matrix(1,0,0,1,2605.0000000000005,1346.3333333333335) translate(70.005 136.45444444444445)"/><path d="M2715.2 1638.27a8 8 0 0 1 9.6 0l110.4 82.8a4.5 4.5 0 0 1 0 7.2l-110.4 82.8a8 8 0 0 1-9.6 0l-110.4-82.8a4.5 4.5 0 0 1 0-7.2z" stroke="#5e5e5e" stroke-width="3" fill="#fff"/><use xlink:href="#r" transform="matrix(1,0,0,1,2605.0000000000005,1639.666666666667) translate(79.2333950617284 49.65277777777778)"/><use xlink:href="#s" transform="matrix(1,0,0,1,2605.0000000000005,1639.666666666667) translate(126.08524691358025 49.65277777777778)"/><use xlink:href="#t" transform="matrix(1,0,0,1,2605.0000000000005,1639.666666666667) translate(33.585246913580264 76.31944444444446)"/><use xlink:href="#u" transform="matrix(1,0,0,1,2605.0000000000005,1639.666666666667) translate(117.47413580246915 76.31944444444446)"/><use xlink:href="#v" transform="matrix(1,0,0,1,2605.0000000000005,1639.666666666667) translate(140.8691975308642 76.31944444444446)"/><use xlink:href="#m" transform="matrix(1,0,0,1,2605.0000000000005,1639.666666666667) translate(40.961790123456794 102.98611111111111)"/><use xlink:href="#w" transform="matrix(1,0,0,1,2605.0000000000005,1639.666666666667) translate(71.82598765432098 102.98611111111111)"/><use xlink:href="#j" transform="matrix(1,0,0,1,2605.0000000000005,1639.666666666667) translate(164.35685185185184 102.98611111111111)"/><use xlink:href="#D" transform="matrix(1,0,0,1,2605.0000000000005,1639.666666666667) translate(81.08524691358025 129.6527777777778)"/><path d="M2715.2 1919.6a8 8 0 0 1 9.6 0l110.4 82.8a4.5 4.5 0 0 1 0 7.2l-110.4 82.8a8 8 0 0 1-9.6 0l-110.4-82.8a4.5 4.5 0 0 1 0-7.2z" stroke="#5e5e5e" stroke-width="3" fill="#fff"/><use xlink:href="#y" transform="matrix(1,0,0,1,2605.0000000000005,1921.0000000000005) translate(94.6654938271605 28.40277777777778)"/><use xlink:href="#z" transform="matrix(1,0,0,1,2605.0000000000005,1921.0000000000005) translate(60.714876543209876 55.06944444444445)"/><use xlink:href="#A" transform="matrix(1,0,0,1,2605.0000000000005,1921.0000000000005) translate(91.57907407407407 55.06944444444445)"/><use xlink:href="#u" transform="matrix(1,0,0,1,2605.0000000000005,1921.0000000000005) translate(60.09759259259259 81.73611111111111)"/><use xlink:href="#B" transform="matrix(1,0,0,1,2605.0000000000005,1921.0000000000005) translate(83.49265432098764 81.73611111111111)"/><use xlink:href="#j" transform="matrix(1,0,0,1,2605.0000000000005,1921.0000000000005) translate(145.22104938271605 81.73611111111111)"/><use xlink:href="#C" transform="matrix(1,0,0,1,2605.0000000000005,1921.0000000000005) translate(40.99265432098765 108.4027777777778)"/><use xlink:href="#j" transform="matrix(1,0,0,1,2605.0000000000005,1921.0000000000005) translate(164.32598765432098 108.4027777777778)"/><use xlink:href="#D" transform="matrix(1,0,0,1,2605.0000000000005,1921.0000000000005) translate(81.08524691358025 135.06944444444446)"/><path d="M2866.5 1151h-27v-2h27zm26.3 0h-9.5v-2h9.5z" stroke="#5e5e5e" stroke-width=".05" fill="#5e5e5e"/><path d="M2839.53 1151h-1.12l.1-1-.1-1h1.13z" fill="#5e5e5e"/><path d="M2839.56 1151.03h-1.17l.08-1.03-.1-1.03h1.18zm-1.12-2l.1.97-.1.97h1.07v-1.94z" stroke="#5e5e5e" stroke-width=".05" fill="#5e5e5e"/><path d="M2908.05 1150l-14.26 4.64v-9.28z" fill="#5e5e5e"/><path d="M2911.3 1150l-18.5 6v-12zm-16.5 3.26l10.02-3.26-10.03-3.26z" stroke="#5e5e5e" stroke-width=".05" fill="#5e5e5e"/><use xlink:href="#E" transform="matrix(1,0,0,1,2866.503063230411,1139.3333333333333) translate(0.005000000000000782 14.222222222222223)"/><path d="M2912.75 1104a6 6 0 0 1 6-6h208a6 6 0 0 1 6 6v92a6 6 0 0 1-6 6h-208a6 6 0 0 1-6-6z" stroke="#5e5e5e" stroke-width="3" fill="#fff"/><use xlink:href="#F" transform="matrix(1,0,0,1,2924.753215444759,1110) translate(1.7962962962963047 20.27777777777778)"/><use xlink:href="#G" transform="matrix(1,0,0,1,2924.753215444759,1110) translate(104.14197530864197 20.27777777777778)"/><use xlink:href="#m" transform="matrix(1,0,0,1,2924.753215444759,1110) translate(28.308641975308646 46.94444444444444)"/><use xlink:href="#k" transform="matrix(1,0,0,1,2924.753215444759,1110) translate(59.17283950617284 46.94444444444444)"/><use xlink:href="#j" transform="matrix(1,0,0,1,2924.753215444759,1110) translate(143 46.94444444444444)"/><use xlink:href="#f" transform="matrix(1,0,0,1,2924.753215444759,1110) translate(64.14197530864197 73.61111111111111)"/><path d="M3169.3 1149.08l1.08.26 1.02.42.93.57.84.72.7.83.6.94.4 1.02.27 1.1.08 141.03-.1 1.06-.24 1.07-.42 1-.58.95-.7.84-.85.7-.93.57-1.02.42-1.1.26-443.24.07-.82.07-.76.18-.73.3-.67.4-.6.52-.5.6-.4.67-.3.72-.2.72-.06 16.32h-2l.07-16.56.27-1.1.42-1.02.57-.94.72-.84.83-.7.94-.6 1.02-.4 1.06-.26 1.06-.1 443.08-.06.72-.17.73-.3.65-.42.6-.5.5-.6.42-.68.3-.72.18-.76.07-.82-.08-140.72-.17-.72-.3-.73-.4-.67-.52-.6-.6-.5-.66-.4-.74-.3-.76-.2-.82-.06h-32.96v-2h33.04z" stroke="#5e5e5e" stroke-width=".05" fill="#5e5e5e"/><path d="M3135.24 1151h-1.02v-2h1.02z" fill="#5e5e5e"/><path d="M3135.27 1151.03h-1.08v-2.06h1.07zm-1.03-2v1.94h.98v-1.94z" stroke="#5e5e5e" stroke-width=".05" fill="#5e5e5e"/><path d="M2720 1338.7l-4.64-14.27h9.28z" fill="#5e5e5e"/><path d="M2720 1341.93l-6-18.5h12zm-3.26-16.5l3.26 10.03 3.26-10.03zM2721 1323.43h-2v-39.17h2zm0-60.5h-2v-22.43h2z" stroke="#5e5e5e" stroke-width=".05" fill="#5e5e5e"/><path d="M2720 1239.5l1-.06v1.1h-2v-1.1z" fill="#5e5e5e"/><path d="M2720 1239.48l1.03-.07v1.15h-2.06v-1.14zm-.97 1.02h1.94v-1.03l-.97.06-.97-.06z" stroke="#5e5e5e" stroke-width=".05" fill="#5e5e5e"/><path d="M2720 1338.7l-4.64-14.27h9.28z" fill="#5e5e5e"/><path d="M2720 1341.93l-6-18.5h12zm-3.26-16.5l3.26 10.03 3.26-10.03z" stroke="#5e5e5e" stroke-width=".05" fill="#5e5e5e"/><use xlink:href="#H" transform="matrix(1,0,0,1,2708.197530864198,1262.9264561722966) translate(0.005000000000000782 14.222222222222223)"/><path d="M2912.75 1391.33a6 6 0 0 1 6-6h228a6 6 0 0 1 6 6v92a6 6 0 0 1-6 6h-228a6 6 0 0 1-6-6z" stroke="#5e5e5e" stroke-width="3" fill="#fff"/><use xlink:href="#I" transform="matrix(1,0,0,1,2924.753215444759,1397.3333333333335) translate(43.925925925925924 20.27777777777778)"/><use xlink:href="#J" transform="matrix(1,0,0,1,2924.753215444759,1397.3333333333335) translate(5.62345679012347 46.94444444444444)"/><use xlink:href="#m" transform="matrix(1,0,0,1,2924.753215444759,1397.3333333333335) translate(101.85802469135804 46.94444444444444)"/><use xlink:href="#K" transform="matrix(1,0,0,1,2924.753215444759,1397.3333333333335) translate(132.72222222222223 46.94444444444444)"/><use xlink:href="#m" transform="matrix(1,0,0,1,2924.753215444759,1397.3333333333335) translate(58.70987654320987 73.61111111111111)"/><use xlink:href="#f" transform="matrix(1,0,0,1,2924.753215444759,1397.3333333333335) translate(89.57407407407408 73.61111111111111)"/><path d="M2866.56 1438.33h-26.94v-2h26.94zm26.23 0h-9.45v-2h9.44z" stroke="#5e5e5e" stroke-width=".05" fill="#5e5e5e"/><path d="M2839.65 1438.33h-1.12l.1-1-.1-1h1.12z" fill="#5e5e5e"/><path d="M2839.67 1438.36h-1.16l.1-1.03-.1-1.02h1.17zm-1.1-2l.08.97-.1.98h1.07v-1.94z" stroke="#5e5e5e" stroke-width=".05" fill="#5e5e5e"/><path d="M2908.05 1437.33l-14.26 4.64v-9.27z" fill="#5e5e5e"/><path d="M2911.3 1437.33l-18.5 6.02v-12.03zm-16.5 3.26l10.02-3.27-10.03-3.26z" stroke="#5e5e5e" stroke-width=".05" fill="#5e5e5e"/><use xlink:href="#E" transform="matrix(1,0,0,1,2866.5609747286867,1426.6666666666667) translate(0.005000000000000782 14.222222222222223)"/><path d="M3189.3 1436.42l1.08.25 1.02.42.93.57.84.7.7.85.6.93.4 1.02.27 1.1.08 146.93-.1 1.06-.24 1.07-.42 1-.58.95-.7.84-.85.7-.93.58-1.02.42-1.1.27-463.24.06-.82.07-.76.18-.73.3-.67.42-.6.5-.5.6-.4.68-.3.72-.2.73-.06 16.32h-2l.07-16.57.27-1.1.42-1.02.57-.93.72-.84.83-.7.94-.58 1.02-.42 1.06-.25 1.06-.1 463.08-.06.72-.18.73-.3.65-.4.6-.52.5-.6.42-.67.3-.72.18-.75.07-.83-.08-146.6-.17-.73-.3-.74-.4-.66-.52-.6-.6-.5-.66-.42-.74-.3-.76-.18-.82-.07h-32.96v-2h33.04z" stroke="#5e5e5e" stroke-width=".05" fill="#5e5e5e"/><path d="M3155.24 1438.33h-1.02v-2h1.02z" fill="#5e5e5e"/><path d="M3155.27 1438.36h-1.08v-2.05h1.07zm-1.03-2v1.95h.98v-1.94z" stroke="#5e5e5e" stroke-width=".05" fill="#5e5e5e"/><path d="M2720 1631.93l-4.64-14.27h9.28z" fill="#5e5e5e"/><path d="M2720 1635.16l-6-18.5h12zm-3.26-16.5l3.26 10.03 3.26-10.04zM2721 1616.66h-2v-30.8h2zm0-52.14h-2v-30.8h2z" stroke="#5e5e5e" stroke-width=".05" fill="#5e5e5e"/><path d="M2720 1532.73l1-.07v1.1h-2v-1.1z" fill="#5e5e5e"/><path d="M2720 1532.7l1.03-.06v1.14h-2.06v-1.14zm-.97 1.03h1.94v-1.04l-.97.06-.97-.07z" stroke="#5e5e5e" stroke-width=".05" fill="#5e5e5e"/><path d="M2720 1631.93l-4.64-14.27h9.28z" fill="#5e5e5e"/><path d="M2720 1635.16l-6-18.5h12zm-3.26-16.5l3.26 10.03 3.26-10.04z" stroke="#5e5e5e" stroke-width=".05" fill="#5e5e5e"/><g><use xlink:href="#H" transform="matrix(1,0,0,1,2708.197530864198,1564.5236786858588) translate(0.005000000000000782 14.222222222222223)"/></g><path d="M2922.75 1690.26a6 6 0 0 1 6-6h208a6 6 0 0 1 6 6v68a6 6 0 0 1-6 6h-208a6 6 0 0 1-6-6z" stroke="#5e5e5e" stroke-width="3" fill="#fff"/><g><use xlink:href="#F" transform="matrix(1,0,0,1,2934.753215444759,1696.2597895056301) translate(1.7962962962963047 21.27777777777778)"/><use xlink:href="#G" transform="matrix(1,0,0,1,2934.753215444759,1696.2597895056301) translate(104.14197530864197 21.27777777777778)"/><use xlink:href="#m" transform="matrix(1,0,0,1,2934.753215444759,1696.2597895056301) translate(2.444444444444443 47.94444444444444)"/><use xlink:href="#l" transform="matrix(1,0,0,1,2934.753215444759,1696.2597895056301) translate(33.30864197530864 47.94444444444444)"/><use xlink:href="#m" transform="matrix(1,0,0,1,2934.753215444759,1696.2597895056301) translate(94.9753086419753 47.94444444444444)"/><use xlink:href="#f" transform="matrix(1,0,0,1,2934.753215444759,1696.2597895056301) translate(125.8395061728395 47.94444444444444)"/></g><path d="M2871.5 1725.67h-32v-2h32zm31.3 0h-14.5v-2h14.5z" stroke="#5e5e5e" stroke-width=".05" fill="#5e5e5e"/><path d="M2839.53 1725.67h-1.12l.1-1-.1-1h1.13z" fill="#5e5e5e"/><path d="M2839.56 1725.7h-1.17l.08-1.03-.1-1.03h1.18zm-1.12-2l.1.97-.1.97h1.07v-1.95z" stroke="#5e5e5e" stroke-width=".05" fill="#5e5e5e"/><path d="M2918.05 1724.67l-14.26 4.63v-9.27z" fill="#5e5e5e"/><path d="M2921.3 1724.67l-18.5 6v-12.02zm-16.5 3.26l10.02-3.26-10.03-3.26z" stroke="#5e5e5e" stroke-width=".05" fill="#5e5e5e"/><g><use xlink:href="#E" transform="matrix(1,0,0,1,2871.5032162740927,1714.0000000000002) translate(0.005000000000000782 14.222222222222223)"/></g><path d="M2721 1898h-2v-52.07h2zm0-73.4h-2v-9.43h2z" stroke="#5e5e5e" stroke-width=".05" fill="#5e5e5e"/><path d="M2720 1814.17l1-.06v1.1h-2v-1.1z" fill="#5e5e5e"/><path d="M2720 1814.14l1.03-.06v1.14h-2.06v-1.14zm-.97 1.03h1.94v-1.04l-.97.06-.97-.07z" stroke="#5e5e5e" stroke-width=".05" fill="#5e5e5e"/><path d="M2720 1913.26l-4.64-14.26h9.28z" fill="#5e5e5e"/><path d="M2720 1916.5l-6-18.5h12zm-3.26-16.5l3.26 10.02 3.26-10.02z" stroke="#5e5e5e" stroke-width=".05" fill="#5e5e5e"/><g><use xlink:href="#H" transform="matrix(1,0,0,1,2708.197530864198,1824.5931228389634) translate(0.005000000000000782 14.222222222222223)"/></g><path d="M3179.3 1723.34l1.08.26 1.02.42.93.57.84.7.7.84.6.94.4 1.02.27 1.1.08 141.34-.1 1.05-.24 1.06-.42 1.02-.58.93-.7.85-.85.7-.93.6-1.02.4-1.1.27-453.24.08-.82.06-.76.18-.73.3-.67.4-.6.52-.5.6-.4.67-.3.72-.2.73-.06 16.32h-2l.07-16.56.27-1.1.42-1.02.57-.94.72-.84.83-.7.94-.58 1.02-.42 1.06-.26 1.06-.08 453.08-.08.72-.17.73-.3.65-.4.6-.52.5-.6.42-.66.3-.73.18-.76.07-.82-.08-141.02-.17-.72-.3-.73-.4-.68-.52-.6-.6-.5-.66-.4-.74-.3-.76-.2-.82-.06h-32.96v-2h33.04z" stroke="#5e5e5e" stroke-width=".05" fill="#5e5e5e"/><path d="M3145.24 1725.26h-1.02v-2h1.02z" fill="#5e5e5e"/><path d="M3145.27 1725.28h-1.08v-2.05h1.07zm-1.03-2v1.95h.98v-1.95z" stroke="#5e5e5e" stroke-width=".05" fill="#5e5e5e"/><path d="M2720 1913.26l-4.64-14.26h9.28z" fill="#5e5e5e"/><path d="M2720 1916.5l-6-18.5h12zm-3.26-16.5l3.26 10.02 3.26-10.02z" stroke="#5e5e5e" stroke-width=".05" fill="#5e5e5e"/><path d="M2932.75 1958.26a6 6 0 0 1 6-6h208a6 6 0 0 1 6 6v92a6 6 0 0 1-6 6h-208a6 6 0 0 1-6-6z" stroke="#5e5e5e" stroke-width="3" fill="#fff"/><g><use xlink:href="#I" transform="matrix(1,0,0,1,2944.753215444759,1964.2597895056301) translate(33.925925925925924 20.27777777777778)"/><use xlink:href="#J" transform="matrix(1,0,0,1,2944.753215444759,1964.2597895056301) translate(6.7037037037037095 46.94444444444444)"/><use xlink:href="#m" transform="matrix(1,0,0,1,2944.753215444759,1964.2597895056301) translate(102.93827160493828 46.94444444444444)"/><use xlink:href="#L" transform="matrix(1,0,0,1,2944.753215444759,1964.2597895056301) translate(133.80246913580248 46.94444444444444)"/><use xlink:href="#m" transform="matrix(1,0,0,1,2944.753215444759,1964.2597895056301) translate(48.70987654320987 73.61111111111111)"/><use xlink:href="#f" transform="matrix(1,0,0,1,2944.753215444759,1964.2597895056301) translate(79.57407407407408 73.61111111111111)"/></g><path d="M2876.5 2007h-37v-2h37zm36.3-1.74h-19.5v-2h19.5z" stroke="#5e5e5e" stroke-width=".05" fill="#5e5e5e"/><path d="M2839.53 2007h-1.12l.1-1-.1-1h1.13z" fill="#5e5e5e"/><path d="M2839.56 2007.03h-1.17l.08-1.03-.1-1.03h1.18zm-1.12-2l.1.97-.1.97h1.07v-1.94z" stroke="#5e5e5e" stroke-width=".05" fill="#5e5e5e"/><path d="M2928.05 2004.26l-14.26 4.64v-9.28z" fill="#5e5e5e"/><path d="M2931.3 2004.26l-18.5 6v-12zm-16.5 3.26l10.02-3.26-10.03-3.26z" stroke="#5e5e5e" stroke-width=".05" fill="#5e5e5e"/><g><use xlink:href="#E" transform="matrix(1,0,0,1,2876.503063230411,1994.4632280861485) translate(0.005000000000000782 14.222222222222223)"/></g><path d="M2622.5 2203.33a6 6 0 0 1 6-6h183a6 6 0 0 1 6 6v69.6a6 6 0 0 1-6 6h-183a6 6 0 0 1-6-6z" stroke="#5e5e5e" stroke-width="3" fill="#fff"/><g><use xlink:href="#M" transform="matrix(1,0,0,1,2634.5000000000005,2209.333333333334) translate(9.08024691358024 21.40277777777778)"/><use xlink:href="#N" transform="matrix(1,0,0,1,2634.5000000000005,2209.333333333334) translate(95.25308641975309 21.40277777777778)"/><use xlink:href="#O" transform="matrix(1,0,0,1,2634.5000000000005,2209.333333333334) translate(14.04938271604938 48.06944444444444)"/><use xlink:href="#P" transform="matrix(1,0,0,1,2634.5000000000005,2209.333333333334) translate(79.41975308641975 48.06944444444444)"/><use xlink:href="#Q" transform="matrix(1,0,0,1,2634.5000000000005,2209.333333333334) translate(115.1604938271605 48.06944444444444)"/></g><path d="M3189.3 2003.34l1.08.26 1.02.42.93.57.84.7.7.84.6.94.4 1.02.27 1.1.08 140.7-.1 1.07-.24 1.06-.42 1.02-.58.94-.7.82-.85.72-.93.57-1.02.43-1.1.27-463.24.07-.82.06-.76.2-.73.3-.67.4-.6.5-.5.6-.4.67-.3.73-.2.72-.06 16.32h-2l.07-16.56.27-1.1.42-1 .57-.95.72-.83.83-.72.94-.57 1.02-.42 1.06-.25 1.06-.08 463.08-.07.72-.18.73-.3.65-.4.6-.52.5-.6.42-.66.3-.73.18-.75.07-.82-.08-140.4-.17-.7-.3-.74-.4-.68-.52-.6-.6-.5-.66-.4-.74-.3-.76-.2-.82-.06h-32.96v-2h33.04z" stroke="#5e5e5e" stroke-width=".05" fill="#5e5e5e"/><path d="M3155.24 2005.26h-1.02v-2h1.02z" fill="#5e5e5e"/><path d="M3155.27 2005.28h-1.08v-2.05h1.07zm-1.03-2v1.95h.98v-1.95z" stroke="#5e5e5e" stroke-width=".05" fill="#5e5e5e"/><path d="M2720 2192.63l-4.64-14.26h9.28z" fill="#5e5e5e"/><path d="M2720 2195.87l-6-18.5h12zm-3.26-16.5l3.26 10.03 3.26-10.03zM2721 2177.37h-2v-41.64h2zm0-62.98h-2v-17.9h2z" stroke="#5e5e5e" stroke-width=".05" fill="#5e5e5e"/><path d="M2720 2095.5l1-.06v1.1h-2v-1.1z" fill="#5e5e5e"/><path d="M2720 2095.48l1.03-.07v1.15h-2.06v-1.14zm-.97 1.02h1.94v-1.03l-.97.06-.97-.06z" stroke="#5e5e5e" stroke-width=".05" fill="#5e5e5e"/><path d="M2720 2192.63l-4.64-14.26h9.28z" fill="#5e5e5e"/><path d="M2720 2195.87l-6-18.5h12zm-3.26-16.5l3.26 10.03 3.26-10.03z" stroke="#5e5e5e" stroke-width=".05" fill="#5e5e5e"/><g><use xlink:href="#H" transform="matrix(1,0,0,1,2708.197530864198,2114.393122838964) translate(0.005000000000000782 14.222222222222223)"/></g><path d="M2777.5 2380.26c22.1 0 40 13.43 40 30s-17.9 30-40 30h-120c-22.1 0-40-13.43-40-30s17.9-30 40-30z" stroke="#5e5e5e" stroke-width="3" fill="#fff"/><g><use xlink:href="#R" transform="matrix(1,0,0,1,2622.5,2385.2597895056306) translate(79.62962962962963 30.27777777777778)"/></g><path d="M2720 2281.4v78.87" stroke="#5e5e5e" stroke-width="2" fill="none"/><path d="M2721 2281.42h-2v-1.03h2z" stroke="#5e5e5e" stroke-width=".05" fill="#5e5e5e"/><path d="M2720 2375.52l-4.64-14.26h9.28z" stroke="#5e5e5e" stroke-width="2" fill="#5e5e5e"/><path d="M2720 822.46V870.7" stroke="#5e5e5e" stroke-width="2" fill="none"/><path d="M2721 822.5h-2v-1.04h2z" stroke="#5e5e5e" stroke-width=".05" fill="#5e5e5e"/><path d="M2720 885.97l-4.64-14.27h9.28z" stroke="#5e5e5e" stroke-width="2" fill="#5e5e5e"/><path d="M2720 991.8v49.7" stroke="#5e5e5e" stroke-width="2" fill="none"/><path d="M2721 991.82h-2v-1.02h2z" stroke="#5e5e5e" stroke-width=".05" fill="#5e5e5e"/><path d="M2720 1056.76l-4.64-14.26h9.28z" stroke="#5e5e5e" stroke-width="2" fill="#5e5e5e"/><path d="M2620.04 2238.13H2446a6 6 0 0 1-6-6V786a6 6 0 0 1 6-6h104.03" stroke="#5e5e5e" stroke-width="2" fill="none"/><path d="M2621.04 2239.13H2620v-2h1.04z" stroke="#5e5e5e" stroke-width=".05" fill="#5e5e5e"/><path d="M2565.3 780l-14.27 4.64v-9.28z" stroke="#5e5e5e" stroke-width="2" fill="#5e5e5e"/><defs><path fill="#333" d="M30 0v-248h187v28H63v79h144v27H63v87h162V0H30" id="S"/><path fill="#333" d="M135-143c-3-34-86-38-87 0 15 53 115 12 119 90S17 21 10-45l28-5c4 36 97 45 98 0-10-56-113-15-118-90-4-57 82-63 122-42 12 7 21 19 24 35" id="T"/><path fill="#333" d="M59-47c-2 24 18 29 38 22v24C64 9 27 4 27-40v-127H5v-23h24l9-43h21v43h35v23H59v120" id="U"/><path fill="#333" d="M141-36C126-15 110 5 73 4 37 3 15-17 15-53c-1-64 63-63 125-63 3-35-9-54-41-54-24 1-41 7-42 31l-33-3c5-37 33-52 76-52 45 0 72 20 72 64v82c-1 20 7 32 28 27v20c-31 9-61-2-59-35zM48-53c0 20 12 33 32 33 41-3 63-29 60-74-43 2-92-5-92 41" id="V"/><path fill="#333" d="M85-194c31 0 48 13 60 33l-1-100h32l1 261h-30c-2-10 0-23-3-31C134-8 116 4 85 4 32 4 16-35 15-94c0-66 23-100 70-100zm9 24c-40 0-46 34-46 75 0 40 6 74 45 74 42 0 51-32 51-76 0-42-9-74-50-73" id="W"/><path fill="#333" d="M100-194c62-1 85 37 85 99 1 63-27 99-86 99S16-35 15-95c0-66 28-99 85-99zM99-20c44 1 53-31 53-75 0-43-8-75-51-75s-53 32-53 75 10 74 51 75" id="X"/><g id="a"><use transform="matrix(0.06172839506172839,0,0,0.06172839506172839,0,0)" xlink:href="#S"/><use transform="matrix(0.06172839506172839,0,0,0.06172839506172839,14.814814814814813,0)" xlink:href="#T"/><use transform="matrix(0.06172839506172839,0,0,0.06172839506172839,25.925925925925924,0)" xlink:href="#U"/><use transform="matrix(0.06172839506172839,0,0,0.06172839506172839,32.098765432098766,0)" xlink:href="#V"/><use transform="matrix(0.06172839506172839,0,0,0.06172839506172839,44.44444444444444,0)" xlink:href="#W"/><use transform="matrix(0.06172839506172839,0,0,0.06172839506172839,56.79012345679012,0)" xlink:href="#X"/></g><path fill="#333" d="M101-251c82-7 93 87 43 132L82-64C71-53 59-42 53-27h129V0H18c2-99 128-94 128-182 0-28-16-43-45-43s-46 15-49 41l-32-3c6-41 34-60 81-64" id="Y"/><use transform="matrix(0.06172839506172839,0,0,0.06172839506172839,0,0)" xlink:href="#Y" id="b"/><path fill="#333" d="M212-179c-10-28-35-45-73-45-59 0-87 40-87 99 0 60 29 101 89 101 43 0 62-24 78-52l27 14C228-24 195 4 139 4 59 4 22-46 18-125c-6-104 99-153 187-111 19 9 31 26 39 46" id="Z"/><path fill="#333" d="M117-194c89-4 53 116 60 194h-32v-121c0-31-8-49-39-48C34-167 62-67 57 0H25l-1-190h30c1 10-1 24 2 32 11-22 29-35 61-36" id="aa"/><path fill="#333" d="M101-234c-31-9-42 10-38 44h38v23H63V0H32v-167H5v-23h27c-7-52 17-82 69-68v24" id="ab"/><path fill="#333" d="M24-231v-30h32v30H24zM24 0v-190h32V0H24" id="ac"/><path fill="#333" d="M177-190C167-65 218 103 67 71c-23-6-38-20-44-43l32-5c15 47 100 32 89-28v-30C133-14 115 1 83 1 29 1 15-40 15-95c0-56 16-97 71-98 29-1 48 16 59 35 1-10 0-23 2-32h30zM94-22c36 0 50-32 50-73 0-42-14-75-50-75-39 0-46 34-46 75s6 73 46 73" id="ad"/><path fill="#333" d="M84 4C-5 8 30-112 23-190h32v120c0 31 7 50 39 49 72-2 45-101 50-169h31l1 190h-30c-1-10 1-25-2-33-11 22-28 36-60 37" id="ae"/><path fill="#333" d="M114-163C36-179 61-72 57 0H25l-1-190h30c1 12-1 29 2 39 6-27 23-49 58-41v29" id="af"/><g id="c"><use transform="matrix(0.06172839506172839,0,0,0.06172839506172839,0,0)" xlink:href="#Z"/><use transform="matrix(0.06172839506172839,0,0,0.06172839506172839,15.987654320987653,0)" xlink:href="#X"/><use transform="matrix(0.06172839506172839,0,0,0.06172839506172839,28.333333333333332,0)" xlink:href="#aa"/><use transform="matrix(0.06172839506172839,0,0,0.06172839506172839,40.67901234567901,0)" xlink:href="#ab"/><use transform="matrix(0.06172839506172839,0,0,0.06172839506172839,46.851851851851855,0)" xlink:href="#ac"/><use transform="matrix(0.06172839506172839,0,0,0.06172839506172839,51.7283950617284,0)" xlink:href="#ad"/><use transform="matrix(0.06172839506172839,0,0,0.06172839506172839,64.07407407407408,0)" xlink:href="#ae"/><use transform="matrix(0.06172839506172839,0,0,0.06172839506172839,76.41975308641976,0)" xlink:href="#af"/><use transform="matrix(0.06172839506172839,0,0,0.06172839506172839,83.76543209876544,0)" xlink:href="#V"/><use transform="matrix(0.06172839506172839,0,0,0.06172839506172839,96.11111111111113,0)" xlink:href="#af"/></g><path fill="#333" d="M179-190L93 31C79 59 56 82 12 73V49c39 6 53-20 64-50L1-190h34L92-34l54-156h33" id="ag"/><use transform="matrix(0.06172839506172839,0,0,0.06172839506172839,0,0)" xlink:href="#ag" id="d"/><path fill="#333" d="M210-169c-67 3-38 105-44 169h-31v-121c0-29-5-50-35-48C34-165 62-65 56 0H25l-1-190h30c1 10-1 24 2 32 10-44 99-50 107 0 11-21 27-35 58-36 85-2 47 119 55 194h-31v-121c0-29-5-49-35-48" id="ah"/><g id="e"><use transform="matrix(0.06172839506172839,0,0,0.06172839506172839,0,0)" xlink:href="#ah"/><use transform="matrix(0.06172839506172839,0,0,0.06172839506172839,18.456790123456788,0)" xlink:href="#X"/><use transform="matrix(0.06172839506172839,0,0,0.06172839506172839,30.80246913580247,0)" xlink:href="#T"/><use transform="matrix(0.06172839506172839,0,0,0.06172839506172839,41.91358024691358,0)" xlink:href="#U"/><use transform="matrix(0.06172839506172839,0,0,0.06172839506172839,48.086419753086425,0)" xlink:href="#af"/><use transform="matrix(0.06172839506172839,0,0,0.06172839506172839,55.4320987654321,0)" xlink:href="#V"/><use transform="matrix(0.06172839506172839,0,0,0.06172839506172839,67.77777777777779,0)" xlink:href="#af"/></g><path fill="#333" d="M24 0v-261h32V0H24" id="ai"/><g id="f"><use transform="matrix(0.06172839506172839,0,0,0.06172839506172839,0,0)" xlink:href="#V"/><use transform="matrix(0.06172839506172839,0,0,0.06172839506172839,12.345679012345679,0)" xlink:href="#ai"/><use transform="matrix(0.06172839506172839,0,0,0.06172839506172839,17.22222222222222,0)" xlink:href="#V"/><use transform="matrix(0.06172839506172839,0,0,0.06172839506172839,29.5679012345679,0)" xlink:href="#af"/><use transform="matrix(0.06172839506172839,0,0,0.06172839506172839,36.913580246913575,0)" xlink:href="#ah"/><use transform="matrix(0.06172839506172839,0,0,0.06172839506172839,55.37037037037037,0)" xlink:href="#V"/></g><path fill="#333" d="M240 0l2-218c-23 76-54 145-80 218h-23L58-218 59 0H30v-248h44l77 211c21-75 51-140 76-211h43V0h-30" id="aj"/><path fill="#333" d="M100-194c63 0 86 42 84 106H49c0 40 14 67 53 68 26 1 43-12 49-29l28 8c-11 28-37 45-77 45C44 4 14-33 15-96c1-61 26-98 85-98zm52 81c6-60-76-77-97-28-3 7-6 17-6 28h103" id="ak"/><g id="g"><use transform="matrix(0.06172839506172839,0,0,0.06172839506172839,0,0)" xlink:href="#aj"/><use transform="matrix(0.06172839506172839,0,0,0.06172839506172839,18.456790123456788,0)" xlink:href="#ae"/><use transform="matrix(0.06172839506172839,0,0,0.06172839506172839,30.80246913580247,0)" xlink:href="#ak"/><use transform="matrix(0.06172839506172839,0,0,0.06172839506172839,43.148148148148145,0)" xlink:href="#T"/><use transform="matrix(0.06172839506172839,0,0,0.06172839506172839,54.25925925925925,0)" xlink:href="#U"/><use transform="matrix(0.06172839506172839,0,0,0.06172839506172839,60.432098765432094,0)" xlink:href="#af"/><use transform="matrix(0.06172839506172839,0,0,0.06172839506172839,67.77777777777777,0)" xlink:href="#V"/></g><g id="h"><use transform="matrix(0.06172839506172839,0,0,0.06172839506172839,0,0)" xlink:href="#ai"/><use transform="matrix(0.06172839506172839,0,0,0.06172839506172839,4.876543209876543,0)" xlink:href="#X"/><use transform="matrix(0.06172839506172839,0,0,0.06172839506172839,17.22222222222222,0)" xlink:href="#T"/></g><path fill="#333" d="M108 0H70L1-190h34L89-25l56-165h34" id="al"/><g id="i"><use transform="matrix(0.06172839506172839,0,0,0.06172839506172839,0,0)" xlink:href="#al"/><use transform="matrix(0.06172839506172839,0,0,0.06172839506172839,11.11111111111111,0)" xlink:href="#V"/><use transform="matrix(0.06172839506172839,0,0,0.06172839506172839,23.45679012345679,0)" xlink:href="#ai"/><use transform="matrix(0.06172839506172839,0,0,0.06172839506172839,28.333333333333336,0)" xlink:href="#X"/><use transform="matrix(0.06172839506172839,0,0,0.06172839506172839,40.67901234567901,0)" xlink:href="#af"/><use transform="matrix(0.06172839506172839,0,0,0.06172839506172839,48.02469135802469,0)" xlink:href="#ak"/><use transform="matrix(0.06172839506172839,0,0,0.06172839506172839,60.37037037037037,0)" xlink:href="#T"/></g><g id="j"><use transform="matrix(0.06172839506172839,0,0,0.06172839506172839,0,0)" xlink:href="#W"/><use transform="matrix(0.06172839506172839,0,0,0.06172839506172839,12.345679012345679,0)" xlink:href="#ak"/></g><g id="k"><use transform="matrix(0.06172839506172839,0,0,0.06172839506172839,0,0)" xlink:href="#ah"/><use transform="matrix(0.06172839506172839,0,0,0.06172839506172839,18.456790123456788,0)" xlink:href="#ac"/><use transform="matrix(0.06172839506172839,0,0,0.06172839506172839,23.33333333333333,0)" xlink:href="#aa"/><use transform="matrix(0.06172839506172839,0,0,0.06172839506172839,35.679012345679006,0)" xlink:href="#ae"/><use transform="matrix(0.06172839506172839,0,0,0.06172839506172839,48.02469135802468,0)" xlink:href="#U"/><use transform="matrix(0.06172839506172839,0,0,0.06172839506172839,54.197530864197525,0)" xlink:href="#X"/><use transform="matrix(0.06172839506172839,0,0,0.06172839506172839,66.5432098765432,0)" xlink:href="#T"/></g><path fill="#333" d="M106-169C34-169 62-67 57 0H25v-261h32l-1 103c12-21 28-36 61-36 89 0 53 116 60 194h-32v-121c2-32-8-49-39-48" id="am"/><g id="l"><use transform="matrix(0.06172839506172839,0,0,0.06172839506172839,0,0)" xlink:href="#am"/><use transform="matrix(0.06172839506172839,0,0,0.06172839506172839,12.345679012345679,0)" xlink:href="#X"/><use transform="matrix(0.06172839506172839,0,0,0.06172839506172839,24.691358024691358,0)" xlink:href="#af"/><use transform="matrix(0.06172839506172839,0,0,0.06172839506172839,32.03703703703704,0)" xlink:href="#V"/><use transform="matrix(0.06172839506172839,0,0,0.06172839506172839,44.382716049382715,0)" xlink:href="#T"/></g><g id="m"><use transform="matrix(0.06172839506172839,0,0,0.06172839506172839,0,0)" xlink:href="#W"/><use transform="matrix(0.06172839506172839,0,0,0.06172839506172839,12.345679012345679,0)" xlink:href="#ak"/></g><g id="n"><use transform="matrix(0.06172839506172839,0,0,0.06172839506172839,0,0)" xlink:href="#V"/><use transform="matrix(0.06172839506172839,0,0,0.06172839506172839,12.345679012345679,0)" xlink:href="#ai"/><use transform="matrix(0.06172839506172839,0,0,0.06172839506172839,17.22222222222222,0)" xlink:href="#V"/><use transform="matrix(0.06172839506172839,0,0,0.06172839506172839,29.5679012345679,0)" xlink:href="#af"/><use transform="matrix(0.06172839506172839,0,0,0.06172839506172839,36.913580246913575,0)" xlink:href="#ah"/><use transform="matrix(0.06172839506172839,0,0,0.06172839506172839,55.37037037037037,0)" xlink:href="#V"/></g><g id="o"><use transform="matrix(0.06172839506172839,0,0,0.06172839506172839,0,0)" xlink:href="#ak"/><use transform="matrix(0.06172839506172839,0,0,0.06172839506172839,12.345679012345679,0)" xlink:href="#aa"/></g><path fill="#333" d="M64 0c3-98 48-159 88-221H18v-27h164v26C143-157 98-101 97 0H64" id="an"/><use transform="matrix(0.06172839506172839,0,0,0.06172839506172839,0,0)" xlink:href="#an" id="p"/><g id="q"><use transform="matrix(0.06172839506172839,0,0,0.06172839506172839,0,0)" xlink:href="#T"/><use transform="matrix(0.06172839506172839,0,0,0.06172839506172839,11.11111111111111,0)" xlink:href="#ak"/><use transform="matrix(0.06172839506172839,0,0,0.06172839506172839,23.45679012345679,0)" xlink:href="#ad"/><use transform="matrix(0.06172839506172839,0,0,0.06172839506172839,35.80246913580247,0)" xlink:href="#ah"/><use transform="matrix(0.06172839506172839,0,0,0.06172839506172839,54.25925925925925,0)" xlink:href="#ak"/><use transform="matrix(0.06172839506172839,0,0,0.06172839506172839,66.60493827160494,0)" xlink:href="#aa"/><use transform="matrix(0.06172839506172839,0,0,0.06172839506172839,78.95061728395062,0)" xlink:href="#U"/><use transform="matrix(0.06172839506172839,0,0,0.06172839506172839,85.12345679012346,0)" xlink:href="#X"/><use transform="matrix(0.06172839506172839,0,0,0.06172839506172839,97.46913580246914,0)" xlink:href="#T"/></g><path fill="#333" d="M107 61C57 61 25 39 23-9c-2-65 71-58 78-115h30c1 64-76 54-76 114 0 30 21 42 52 43 32 0 53-17 56-46l32 2c-6 46-36 72-88 72zm26-251v35H99v-35h34" id="ao"/><path fill="#333" d="M185-189c-5-48-123-54-124 2 14 75 158 14 163 119 3 78-121 87-175 55-17-10-28-26-33-46l33-7c5 56 141 63 141-1 0-78-155-14-162-118-5-82 145-84 179-34 5 7 8 16 11 25" id="ap"/><g id="r"><use transform="matrix(0.06172839506172839,0,0,0.06172839506172839,0,0)" xlink:href="#ao"/><use transform="matrix(0.06172839506172839,0,0,0.06172839506172839,13.518518518518517,0)" xlink:href="#ap"/><use transform="matrix(0.06172839506172839,0,0,0.06172839506172839,28.33333333333333,0)" xlink:href="#ak"/></g><g id="s"><use transform="matrix(0.06172839506172839,0,0,0.06172839506172839,0,0)" xlink:href="#am"/><use transform="matrix(0.06172839506172839,0,0,0.06172839506172839,12.345679012345679,0)" xlink:href="#V"/></g><path fill="#333" d="M115-194c55 1 70 41 70 98S169 2 115 4C84 4 66-9 55-30l1 105H24l-1-265h31l2 30c10-21 28-34 59-34zm-8 174c40 0 45-34 45-75s-6-73-45-74c-42 0-51 32-51 76 0 43 10 73 51 73" id="aq"/><g id="t"><use transform="matrix(0.06172839506172839,0,0,0.06172839506172839,0,0)" xlink:href="#aq"/><use transform="matrix(0.06172839506172839,0,0,0.06172839506172839,12.345679012345679,0)" xlink:href="#ae"/><use transform="matrix(0.06172839506172839,0,0,0.06172839506172839,24.691358024691358,0)" xlink:href="#ai"/><use transform="matrix(0.06172839506172839,0,0,0.06172839506172839,29.5679012345679,0)" xlink:href="#T"/><use transform="matrix(0.06172839506172839,0,0,0.06172839506172839,40.67901234567901,0)" xlink:href="#V"/><use transform="matrix(0.06172839506172839,0,0,0.06172839506172839,53.02469135802469,0)" xlink:href="#W"/><use transform="matrix(0.06172839506172839,0,0,0.06172839506172839,65.37037037037037,0)" xlink:href="#X"/></g><g id="u"><use transform="matrix(0.06172839506172839,0,0,0.06172839506172839,0,0)" xlink:href="#ak"/><use transform="matrix(0.06172839506172839,0,0,0.06172839506172839,12.345679012345679,0)" xlink:href="#ai"/></g><path fill="#333" d="M115-194c53 0 69 39 70 98 0 66-23 100-70 100C84 3 66-7 56-30L54 0H23l1-261h32v101c10-23 28-34 59-34zm-8 174c40 0 45-34 45-75 0-40-5-75-45-74-42 0-51 32-51 76 0 43 10 73 51 73" id="ar"/><path fill="#333" d="M100-194c62-1 85 37 85 99 1 63-27 99-86 99S16-35 15-95c0-66 28-99 85-99zM99-20c44 1 53-31 53-75 0-43-8-75-51-75s-53 32-53 75 10 74 51 75zM76-211c8-23 27-35 38-54h36v5l-58 49H76" id="as"/><g id="v"><use transform="matrix(0.06172839506172839,0,0,0.06172839506172839,0,0)" xlink:href="#ar"/><use transform="matrix(0.06172839506172839,0,0,0.06172839506172839,12.345679012345679,0)" xlink:href="#X"/><use transform="matrix(0.06172839506172839,0,0,0.06172839506172839,24.691358024691358,0)" xlink:href="#U"/><use transform="matrix(0.06172839506172839,0,0,0.06172839506172839,30.864197530864196,0)" xlink:href="#as"/><use transform="matrix(0.06172839506172839,0,0,0.06172839506172839,43.20987654320987,0)" xlink:href="#aa"/></g><g id="w"><use transform="matrix(0.06172839506172839,0,0,0.06172839506172839,0,0)" xlink:href="#V"/><use transform="matrix(0.06172839506172839,0,0,0.06172839506172839,12.345679012345679,0)" xlink:href="#ae"/><use transform="matrix(0.06172839506172839,0,0,0.06172839506172839,24.691358024691358,0)" xlink:href="#ah"/><use transform="matrix(0.06172839506172839,0,0,0.06172839506172839,43.148148148148145,0)" xlink:href="#ak"/><use transform="matrix(0.06172839506172839,0,0,0.06172839506172839,55.49382716049382,0)" xlink:href="#aa"/><use transform="matrix(0.06172839506172839,0,0,0.06172839506172839,67.8395061728395,0)" xlink:href="#U"/><use transform="matrix(0.06172839506172839,0,0,0.06172839506172839,74.01234567901234,0)" xlink:href="#X"/></g><path fill="#333" d="M103-251c84 0 111 97 45 133-19 10-37 24-39 52H78c0-63 77-55 77-114 0-30-21-42-52-43-32 0-53 17-56 46l-32-2c7-45 34-72 88-72zM77 0v-35h34V0H77" id="at"/><g id="x"><use transform="matrix(0.06172839506172839,0,0,0.06172839506172839,0,0)" xlink:href="#ah"/><use transform="matrix(0.06172839506172839,0,0,0.06172839506172839,18.456790123456788,0)" xlink:href="#ac"/><use transform="matrix(0.06172839506172839,0,0,0.06172839506172839,23.33333333333333,0)" xlink:href="#aa"/><use transform="matrix(0.06172839506172839,0,0,0.06172839506172839,35.679012345679006,0)" xlink:href="#ae"/><use transform="matrix(0.06172839506172839,0,0,0.06172839506172839,48.02469135802468,0)" xlink:href="#U"/><use transform="matrix(0.06172839506172839,0,0,0.06172839506172839,54.197530864197525,0)" xlink:href="#X"/><use transform="matrix(0.06172839506172839,0,0,0.06172839506172839,66.5432098765432,0)" xlink:href="#T"/><use transform="matrix(0.06172839506172839,0,0,0.06172839506172839,77.65432098765432,0)" xlink:href="#at"/></g><g id="y"><use transform="matrix(0.06172839506172839,0,0,0.06172839506172839,0,0)" xlink:href="#ao"/><use transform="matrix(0.06172839506172839,0,0,0.06172839506172839,13.518518518518517,0)" xlink:href="#ap"/><use transform="matrix(0.06172839506172839,0,0,0.06172839506172839,28.33333333333333,0)" xlink:href="#ak"/></g><g id="z"><use transform="matrix(0.06172839506172839,0,0,0.06172839506172839,0,0)" xlink:href="#am"/><use transform="matrix(0.06172839506172839,0,0,0.06172839506172839,12.345679012345679,0)" xlink:href="#V"/></g><g id="A"><use transform="matrix(0.06172839506172839,0,0,0.06172839506172839,0,0)" xlink:href="#aq"/><use transform="matrix(0.06172839506172839,0,0,0.06172839506172839,12.345679012345679,0)" xlink:href="#ae"/><use transform="matrix(0.06172839506172839,0,0,0.06172839506172839,24.691358024691358,0)" xlink:href="#ai"/><use transform="matrix(0.06172839506172839,0,0,0.06172839506172839,29.5679012345679,0)" xlink:href="#T"/><use transform="matrix(0.06172839506172839,0,0,0.06172839506172839,40.67901234567901,0)" xlink:href="#V"/><use transform="matrix(0.06172839506172839,0,0,0.06172839506172839,53.02469135802469,0)" xlink:href="#W"/><use transform="matrix(0.06172839506172839,0,0,0.06172839506172839,65.37037037037037,0)" xlink:href="#X"/></g><g id="B"><use transform="matrix(0.06172839506172839,0,0,0.06172839506172839,0,0)" xlink:href="#ar"/><use transform="matrix(0.06172839506172839,0,0,0.06172839506172839,12.345679012345679,0)" xlink:href="#X"/><use transform="matrix(0.06172839506172839,0,0,0.06172839506172839,24.691358024691358,0)" xlink:href="#U"/><use transform="matrix(0.06172839506172839,0,0,0.06172839506172839,30.864197530864196,0)" xlink:href="#as"/><use transform="matrix(0.06172839506172839,0,0,0.06172839506172839,43.20987654320987,0)" xlink:href="#aa"/></g><path fill="#333" d="M96-169c-40 0-48 33-48 73s9 75 48 75c24 0 41-14 43-38l32 2c-6 37-31 61-74 61-59 0-76-41-82-99-10-93 101-131 147-64 4 7 5 14 7 22l-32 3c-4-21-16-35-41-35" id="au"/><g id="C"><use transform="matrix(0.06172839506172839,0,0,0.06172839506172839,0,0)" xlink:href="#W"/><use transform="matrix(0.06172839506172839,0,0,0.06172839506172839,12.345679012345679,0)" xlink:href="#ak"/><use transform="matrix(0.06172839506172839,0,0,0.06172839506172839,24.691358024691358,0)" xlink:href="#au"/><use transform="matrix(0.06172839506172839,0,0,0.06172839506172839,35.80246913580247,0)" xlink:href="#af"/><use transform="matrix(0.06172839506172839,0,0,0.06172839506172839,43.148148148148145,0)" xlink:href="#ak"/><use transform="matrix(0.06172839506172839,0,0,0.06172839506172839,55.49382716049382,0)" xlink:href="#ah"/><use transform="matrix(0.06172839506172839,0,0,0.06172839506172839,73.9506172839506,0)" xlink:href="#ak"/><use transform="matrix(0.06172839506172839,0,0,0.06172839506172839,86.29629629629629,0)" xlink:href="#aa"/><use transform="matrix(0.06172839506172839,0,0,0.06172839506172839,98.64197530864197,0)" xlink:href="#U"/><use transform="matrix(0.06172839506172839,0,0,0.06172839506172839,104.81481481481481,0)" xlink:href="#X"/></g><g id="D"><use transform="matrix(0.06172839506172839,0,0,0.06172839506172839,0,0)" xlink:href="#am"/><use transform="matrix(0.06172839506172839,0,0,0.06172839506172839,12.345679012345679,0)" xlink:href="#X"/><use transform="matrix(0.06172839506172839,0,0,0.06172839506172839,24.691358024691358,0)" xlink:href="#af"/><use transform="matrix(0.06172839506172839,0,0,0.06172839506172839,32.03703703703704,0)" xlink:href="#V"/><use transform="matrix(0.06172839506172839,0,0,0.06172839506172839,44.382716049382715,0)" xlink:href="#T"/><use transform="matrix(0.06172839506172839,0,0,0.06172839506172839,55.49382716049382,0)" xlink:href="#at"/></g><path fill="#333" d="M169-182c-1-43-94-46-97-3 18 66 151 10 154 114 3 95-165 93-204 36-6-8-10-19-12-30l50-8c3 46 112 56 116 5-17-69-150-10-154-114-4-87 153-88 188-35 5 8 8 18 10 28" id="av"/><path fill="#333" d="M25 0v-190h50V0H25zm-5-208v-5l45-51h45v8l-60 48H20" id="aw"/><g id="E"><use transform="matrix(0.04938271604938272,0,0,0.04938271604938272,0,0)" xlink:href="#av"/><use transform="matrix(0.04938271604938272,0,0,0.04938271604938272,11.851851851851853,0)" xlink:href="#aw"/></g><path fill="#333" d="M205 0l-28-72H64L36 0H1l101-248h38L239 0h-34zm-38-99l-47-123c-12 45-31 82-46 123h93" id="ax"/><g id="F"><use transform="matrix(0.06172839506172839,0,0,0.06172839506172839,0,0)" xlink:href="#ax"/><use transform="matrix(0.06172839506172839,0,0,0.06172839506172839,14.814814814814813,0)" xlink:href="#ae"/><use transform="matrix(0.06172839506172839,0,0,0.06172839506172839,27.160493827160494,0)" xlink:href="#ah"/><use transform="matrix(0.06172839506172839,0,0,0.06172839506172839,45.61728395061728,0)" xlink:href="#ak"/><use transform="matrix(0.06172839506172839,0,0,0.06172839506172839,57.962962962962955,0)" xlink:href="#aa"/><use transform="matrix(0.06172839506172839,0,0,0.06172839506172839,70.30864197530863,0)" xlink:href="#U"/><use transform="matrix(0.06172839506172839,0,0,0.06172839506172839,76.48148148148147,0)" xlink:href="#V"/><use transform="matrix(0.06172839506172839,0,0,0.06172839506172839,88.82716049382715,0)" xlink:href="#af"/></g><g id="G"><use transform="matrix(0.06172839506172839,0,0,0.06172839506172839,0,0)" xlink:href="#ae"/><use transform="matrix(0.06172839506172839,0,0,0.06172839506172839,12.345679012345679,0)" xlink:href="#aa"/><use transform="matrix(0.06172839506172839,0,0,0.06172839506172839,24.691358024691358,0)" xlink:href="#ac"/><use transform="matrix(0.06172839506172839,0,0,0.06172839506172839,29.5679012345679,0)" xlink:href="#W"/><use transform="matrix(0.06172839506172839,0,0,0.06172839506172839,41.913580246913575,0)" xlink:href="#V"/><use transform="matrix(0.06172839506172839,0,0,0.06172839506172839,54.25925925925925,0)" xlink:href="#W"/><use transform="matrix(0.06172839506172839,0,0,0.06172839506172839,66.60493827160494,0)" xlink:href="#ak"/><use transform="matrix(0.06172839506172839,0,0,0.06172839506172839,78.95061728395062,0)" xlink:href="#T"/></g><path fill="#333" d="M175 0L67-191c6 58 2 128 3 191H24v-248h59L193-55c-6-58-2-129-3-193h46V0h-61" id="ay"/><path fill="#333" d="M110-194c64 0 96 36 96 99 0 64-35 99-97 99-61 0-95-36-95-99 0-62 34-99 96-99zm-1 164c35 0 45-28 45-65 0-40-10-65-43-65-34 0-45 26-45 65 0 36 10 65 43 65" id="az"/><g id="H"><use transform="matrix(0.04938271604938272,0,0,0.04938271604938272,0,0)" xlink:href="#ay"/><use transform="matrix(0.04938271604938272,0,0,0.04938271604938272,12.790123456790125,0)" xlink:href="#az"/></g><path fill="#333" d="M30-248c118-7 216 8 213 122C240-48 200 0 122 0H30v-248zM63-27c89 8 146-16 146-99s-60-101-146-95v194" id="aA"/><g id="I"><use transform="matrix(0.06172839506172839,0,0,0.06172839506172839,0,0)" xlink:href="#aA"/><use transform="matrix(0.06172839506172839,0,0,0.06172839506172839,15.987654320987653,0)" xlink:href="#ak"/><use transform="matrix(0.06172839506172839,0,0,0.06172839506172839,28.333333333333332,0)" xlink:href="#au"/><use transform="matrix(0.06172839506172839,0,0,0.06172839506172839,39.44444444444444,0)" xlink:href="#af"/><use transform="matrix(0.06172839506172839,0,0,0.06172839506172839,46.79012345679012,0)" xlink:href="#ak"/><use transform="matrix(0.06172839506172839,0,0,0.06172839506172839,59.1358024691358,0)" xlink:href="#ah"/><use transform="matrix(0.06172839506172839,0,0,0.06172839506172839,77.59259259259258,0)" xlink:href="#ak"/><use transform="matrix(0.06172839506172839,0,0,0.06172839506172839,89.93827160493827,0)" xlink:href="#aa"/><use transform="matrix(0.06172839506172839,0,0,0.06172839506172839,102.28395061728395,0)" xlink:href="#U"/><use transform="matrix(0.06172839506172839,0,0,0.06172839506172839,108.45679012345678,0)" xlink:href="#V"/><use transform="matrix(0.06172839506172839,0,0,0.06172839506172839,120.80246913580247,0)" xlink:href="#af"/></g><g id="J"><use transform="matrix(0.06172839506172839,0,0,0.06172839506172839,0,0)" xlink:href="#ae"/><use transform="matrix(0.06172839506172839,0,0,0.06172839506172839,12.345679012345679,0)" xlink:href="#aa"/><use transform="matrix(0.06172839506172839,0,0,0.06172839506172839,24.691358024691358,0)" xlink:href="#ac"/><use transform="matrix(0.06172839506172839,0,0,0.06172839506172839,29.5679012345679,0)" xlink:href="#W"/><use transform="matrix(0.06172839506172839,0,0,0.06172839506172839,41.913580246913575,0)" xlink:href="#V"/><use transform="matrix(0.06172839506172839,0,0,0.06172839506172839,54.25925925925925,0)" xlink:href="#W"/><use transform="matrix(0.06172839506172839,0,0,0.06172839506172839,66.60493827160494,0)" xlink:href="#ak"/><use transform="matrix(0.06172839506172839,0,0,0.06172839506172839,78.95061728395062,0)" xlink:href="#T"/></g><g id="K"><use transform="matrix(0.06172839506172839,0,0,0.06172839506172839,0,0)" xlink:href="#ah"/><use transform="matrix(0.06172839506172839,0,0,0.06172839506172839,18.456790123456788,0)" xlink:href="#ac"/><use transform="matrix(0.06172839506172839,0,0,0.06172839506172839,23.33333333333333,0)" xlink:href="#aa"/><use transform="matrix(0.06172839506172839,0,0,0.06172839506172839,35.679012345679006,0)" xlink:href="#ae"/><use transform="matrix(0.06172839506172839,0,0,0.06172839506172839,48.02469135802468,0)" xlink:href="#U"/><use transform="matrix(0.06172839506172839,0,0,0.06172839506172839,54.197530864197525,0)" xlink:href="#X"/><use transform="matrix(0.06172839506172839,0,0,0.06172839506172839,66.5432098765432,0)" xlink:href="#T"/></g><g id="L"><use transform="matrix(0.06172839506172839,0,0,0.06172839506172839,0,0)" xlink:href="#am"/><use transform="matrix(0.06172839506172839,0,0,0.06172839506172839,12.345679012345679,0)" xlink:href="#X"/><use transform="matrix(0.06172839506172839,0,0,0.06172839506172839,24.691358024691358,0)" xlink:href="#af"/><use transform="matrix(0.06172839506172839,0,0,0.06172839506172839,32.03703703703704,0)" xlink:href="#V"/><use transform="matrix(0.06172839506172839,0,0,0.06172839506172839,44.382716049382715,0)" xlink:href="#T"/></g><path fill="#333" d="M137 0h-34L2-248h35l83 218 83-218h36" id="aB"/><g id="M"><use transform="matrix(0.06172839506172839,0,0,0.06172839506172839,0,0)" xlink:href="#aB"/><use transform="matrix(0.06172839506172839,0,0,0.06172839506172839,13.580246913580245,0)" xlink:href="#ak"/><use transform="matrix(0.06172839506172839,0,0,0.06172839506172839,25.925925925925924,0)" xlink:href="#af"/><use transform="matrix(0.06172839506172839,0,0,0.06172839506172839,33.2716049382716,0)" xlink:href="#ac"/><use transform="matrix(0.06172839506172839,0,0,0.06172839506172839,38.148148148148145,0)" xlink:href="#ab"/><use transform="matrix(0.06172839506172839,0,0,0.06172839506172839,44.32098765432099,0)" xlink:href="#ac"/><use transform="matrix(0.06172839506172839,0,0,0.06172839506172839,49.19753086419753,0)" xlink:href="#au"/><use transform="matrix(0.06172839506172839,0,0,0.06172839506172839,60.308641975308646,0)" xlink:href="#V"/><use transform="matrix(0.06172839506172839,0,0,0.06172839506172839,72.65432098765433,0)" xlink:href="#af"/></g><g id="N"><use transform="matrix(0.06172839506172839,0,0,0.06172839506172839,0,0)" xlink:href="#ak"/><use transform="matrix(0.06172839506172839,0,0,0.06172839506172839,12.345679012345679,0)" xlink:href="#T"/><use transform="matrix(0.06172839506172839,0,0,0.06172839506172839,23.45679012345679,0)" xlink:href="#U"/><use transform="matrix(0.06172839506172839,0,0,0.06172839506172839,29.62962962962963,0)" xlink:href="#V"/><use transform="matrix(0.06172839506172839,0,0,0.06172839506172839,41.97530864197531,0)" xlink:href="#W"/><use transform="matrix(0.06172839506172839,0,0,0.06172839506172839,54.32098765432099,0)" xlink:href="#X"/></g><g id="O"><use transform="matrix(0.06172839506172839,0,0,0.06172839506172839,0,0)" xlink:href="#V"/><use transform="matrix(0.06172839506172839,0,0,0.06172839506172839,12.345679012345679,0)" xlink:href="#au"/><use transform="matrix(0.06172839506172839,0,0,0.06172839506172839,23.45679012345679,0)" xlink:href="#U"/><use transform="matrix(0.06172839506172839,0,0,0.06172839506172839,29.62962962962963,0)" xlink:href="#ae"/><use transform="matrix(0.06172839506172839,0,0,0.06172839506172839,41.97530864197531,0)" xlink:href="#V"/><use transform="matrix(0.06172839506172839,0,0,0.06172839506172839,54.32098765432099,0)" xlink:href="#ai"/></g><g id="P"><use transform="matrix(0.06172839506172839,0,0,0.06172839506172839,0,0)" xlink:href="#W"/><use transform="matrix(0.06172839506172839,0,0,0.06172839506172839,12.345679012345679,0)" xlink:href="#ak"/><use transform="matrix(0.06172839506172839,0,0,0.06172839506172839,24.691358024691358,0)" xlink:href="#ai"/></g><path fill="#333" d="M24-231v-30h32v30H24zM-9 49c24 4 33-6 33-30v-209h32V24c2 40-23 58-65 49V49" id="aC"/><g id="Q"><use transform="matrix(0.06172839506172839,0,0,0.06172839506172839,0,0)" xlink:href="#af"/><use transform="matrix(0.06172839506172839,0,0,0.06172839506172839,7.345679012345679,0)" xlink:href="#ak"/><use transform="matrix(0.06172839506172839,0,0,0.06172839506172839,19.691358024691358,0)" xlink:href="#ai"/><use transform="matrix(0.06172839506172839,0,0,0.06172839506172839,24.5679012345679,0)" xlink:href="#X"/><use transform="matrix(0.06172839506172839,0,0,0.06172839506172839,36.913580246913575,0)" xlink:href="#aC"/></g><path fill="#333" d="M63-220v92h138v28H63V0H30v-248h175v28H63" id="aD"/><g id="R"><use transform="matrix(0.06172839506172839,0,0,0.06172839506172839,0,0)" xlink:href="#aD"/><use transform="matrix(0.06172839506172839,0,0,0.06172839506172839,13.518518518518517,0)" xlink:href="#ac"/><use transform="matrix(0.06172839506172839,0,0,0.06172839506172839,18.39506172839506,0)" xlink:href="#aa"/></g></defs></g></svg>